<svg width="14" height="16" viewBox="0 0 14 16" fill="none" xmlns="http://www.w3.org/2000/svg">
<path d="M8.72982 1.72999C9.19899 1.26069 9.83537 0.996987 10.499 0.996893C11.1626 0.9968 11.799 1.26032 12.2683 1.72949C12.7376 2.19866 13.0013 2.83504 13.0014 3.49864C13.0015 4.16223 12.738 4.79869 12.2688 5.26799L5.70882 11.708L5.70582 11.711C5.51722 11.8931 5.26461 11.9939 5.00242 11.9917C4.74022 11.9894 4.48941 11.8842 4.304 11.6988C4.11859 11.5134 4.01342 11.2626 4.01114 11.0004C4.00887 10.7382 4.10966 10.4856 4.29182 10.297L10.7318 3.85699C10.8229 3.76269 10.8733 3.63639 10.8722 3.50529C10.871 3.37419 10.8184 3.24879 10.7257 3.15608C10.633 3.06338 10.5076 3.01079 10.3765 3.00965C10.2454 3.00851 10.1191 3.05891 10.0248 3.14999L3.58482 9.58999C3.2107 9.964 2.99999 10.471 2.99882 11C2.99882 12.1 3.89382 13 4.99882 13C5.52754 12.9993 6.03449 12.7894 6.40882 12.416L12.9688 5.97599L12.9718 5.97299C13.6288 5.31861 13.9992 4.43026 14.0018 3.50299C14.0018 1.57299 12.4318 0.00299073 10.5018 0.00299073C9.57598 0.00292112 8.68784 0.369686 8.03182 1.02299L1.47182 7.46299L1.46882 7.46599C1.00391 7.93052 0.635549 8.48248 0.38497 9.09005C0.134391 9.69762 0.0065505 10.3488 0.00881872 11.006C0.00881872 13.766 2.24882 16.006 5.00882 16.006C6.38882 16.006 7.63882 15.446 8.54882 14.546L12.8688 10.226C12.9599 10.1317 13.0103 10.0054 13.0092 9.87429C13.008 9.74319 12.9554 9.61779 12.8627 9.52508C12.77 9.43238 12.6446 9.37979 12.5135 9.37865C12.3824 9.37751 12.2561 9.42791 12.1618 9.51899L7.84182 13.839C7.47073 14.2112 7.02958 14.5063 6.54385 14.7071C6.05812 14.9079 5.53742 15.0105 5.01182 15.009C2.80182 15.009 1.01182 13.219 1.01182 11.009C1.01182 9.90899 1.45882 8.90899 2.18182 8.17899L8.74182 1.73899L8.74482 1.73599L8.72982 1.72999Z" fill="black"/>
</svg>
