<svg width="78" height="27" viewBox="0 0 78 27" fill="none" xmlns="http://www.w3.org/2000/svg">
<rect x="0.25" y="0.25" width="77.5" height="26.5" rx="13.25" stroke="black" stroke-width="0.5"/>
<path d="M41.39 13.918C41.9593 14.0207 42.4353 14.3007 42.818 14.758C43.21 15.2153 43.406 15.752 43.406 16.368C43.406 16.872 43.2847 17.3247 43.042 17.726C42.8087 18.118 42.454 18.4307 41.978 18.664C41.5113 18.888 40.942 19 40.27 19H37.148V9.172H40.214C41.194 9.172 41.9313 9.40067 42.426 9.858C42.93 10.306 43.182 10.8893 43.182 11.608C43.182 12.2333 43.014 12.742 42.678 13.134C42.342 13.5167 41.9127 13.778 41.39 13.918ZM37.778 13.638H40.242C40.9793 13.638 41.544 13.4653 41.936 13.12C42.3373 12.7653 42.538 12.28 42.538 11.664C42.538 11.0667 42.342 10.5953 41.95 10.25C41.558 9.90467 40.9653 9.732 40.172 9.732H37.778V13.638ZM40.228 18.454C41.0213 18.454 41.642 18.2673 42.09 17.894C42.5473 17.5113 42.776 16.9887 42.776 16.326C42.776 15.6727 42.5427 15.1547 42.076 14.772C41.6187 14.38 40.9887 14.184 40.186 14.184H37.778V18.454H40.228ZM44.8634 15.192C44.8634 14.408 45.0174 13.722 45.3254 13.134C45.6428 12.546 46.0768 12.0933 46.6274 11.776C47.1874 11.4587 47.8221 11.3 48.5314 11.3C49.3341 11.3 50.0154 11.496 50.5754 11.888C51.1354 12.28 51.5274 12.7793 51.7514 13.386V11.398H52.3814V19H51.7514V16.998C51.5274 17.614 51.1308 18.1227 50.5614 18.524C50.0014 18.916 49.3248 19.112 48.5314 19.112C47.8221 19.112 47.1874 18.9533 46.6274 18.636C46.0768 18.3093 45.6428 17.852 45.3254 17.264C45.0174 16.6667 44.8634 15.976 44.8634 15.192ZM51.7514 15.192C51.7514 14.5293 51.6114 13.946 51.3314 13.442C51.0608 12.9287 50.6874 12.5367 50.2114 12.266C49.7354 11.986 49.2034 11.846 48.6154 11.846C47.9994 11.846 47.4581 11.9813 46.9914 12.252C46.5248 12.5133 46.1608 12.896 45.8994 13.4C45.6381 13.904 45.5074 14.5013 45.5074 15.192C45.5074 15.8827 45.6381 16.48 45.8994 16.984C46.1608 17.488 46.5248 17.8753 46.9914 18.146C47.4674 18.4167 48.0088 18.552 48.6154 18.552C49.2034 18.552 49.7354 18.4167 50.2114 18.146C50.6968 17.866 51.0748 17.474 51.3454 16.97C51.6161 16.4567 51.7514 15.864 51.7514 15.192ZM54.2833 15.192C54.2833 14.3987 54.4373 13.708 54.7453 13.12C55.0627 12.532 55.4967 12.084 56.0473 11.776C56.6073 11.4587 57.2467 11.3 57.9653 11.3C58.9173 11.3 59.6967 11.538 60.3033 12.014C60.9193 12.49 61.302 13.1293 61.4513 13.932H60.7933C60.672 13.2787 60.3547 12.7653 59.8413 12.392C59.3373 12.0187 58.712 11.832 57.9653 11.832C57.4053 11.832 56.8967 11.958 56.4393 12.21C55.982 12.4527 55.6133 12.8307 55.3333 13.344C55.0627 13.848 54.9273 14.464 54.9273 15.192C54.9273 15.9293 55.0627 16.55 55.3333 17.054C55.6133 17.558 55.982 17.936 56.4393 18.188C56.8967 18.44 57.4053 18.566 57.9653 18.566C58.712 18.566 59.3373 18.3793 59.8413 18.006C60.3547 17.6327 60.672 17.1193 60.7933 16.466H61.4513C61.302 17.2593 60.9193 17.8987 60.3033 18.384C59.6873 18.8693 58.908 19.112 57.9653 19.112C57.2467 19.112 56.6073 18.9533 56.0473 18.636C55.4967 18.3187 55.0627 17.866 54.7453 17.278C54.4373 16.6807 54.2833 15.9853 54.2833 15.192ZM67.3187 19L64.0007 15.514V19H63.3707V8.64H64.0007V14.842L67.2627 11.398H68.1447L64.4627 15.178L68.1867 19H67.3187Z" fill="black"/>
<path d="M9.64645 13.6464C9.45119 13.8417 9.45119 14.1583 9.64645 14.3536L12.8284 17.5355C13.0237 17.7308 13.3403 17.7308 13.5355 17.5355C13.7308 17.3403 13.7308 17.0237 13.5355 16.8284L10.7071 14L13.5355 11.1716C13.7308 10.9763 13.7308 10.6597 13.5355 10.4645C13.3403 10.2692 13.0237 10.2692 12.8284 10.4645L9.64645 13.6464ZM30 14V13.5L10 13.5V14V14.5L30 14.5V14Z" fill="black"/>
</svg>
