<svg width="13" height="13" viewBox="0 0 13 13" fill="none" xmlns="http://www.w3.org/2000/svg">
<path d="M2.68917 5.64292C3.70917 7.6475 5.3525 9.29083 7.35708 10.3108L8.91542 8.7525C9.11375 8.55417 9.39 8.4975 9.63792 8.57542C10.4312 8.8375 11.2812 8.97917 12.1667 8.97917C12.3545 8.97917 12.5347 9.05379 12.6675 9.18663C12.8004 9.31947 12.875 9.49964 12.875 9.6875V12.1667C12.875 12.3545 12.8004 12.5347 12.6675 12.6675C12.5347 12.8004 12.3545 12.875 12.1667 12.875C8.97302 12.875 5.91017 11.6063 3.65192 9.34808C1.39367 7.08983 0.125 4.02698 0.125 0.833333C0.125 0.645472 0.199628 0.465304 0.332466 0.332466C0.465304 0.199628 0.645472 0.125 0.833333 0.125H3.3125C3.50036 0.125 3.68053 0.199628 3.81337 0.332466C3.94621 0.465304 4.02083 0.645472 4.02083 0.833333C4.02083 1.71875 4.1625 2.56875 4.42458 3.36208C4.5025 3.61 4.44583 3.88625 4.2475 4.08458L2.68917 5.64292Z" fill="black"/>
</svg>
