<svg width="19" height="18" viewBox="0 0 19 18" fill="none" xmlns="http://www.w3.org/2000/svg">
<path d="M14.463 13.865C14.9423 13.865 15.4019 14.0554 15.7408 14.3943C16.0797 14.7332 16.2701 15.1929 16.2701 15.6722C16.2701 16.1515 16.0797 16.6111 15.7408 16.95C15.4019 17.289 14.9423 17.4794 14.463 17.4794C13.9837 17.4794 13.524 17.289 13.1851 16.95C12.8462 16.6111 12.6558 16.1515 12.6558 15.6722C12.6558 15.1929 12.8462 14.7332 13.1851 14.3943C13.524 14.0554 13.9837 13.865 14.463 13.865ZM14.463 14.7686C14.2233 14.7686 13.9935 14.8638 13.824 15.0332C13.6546 15.2027 13.5594 15.4325 13.5594 15.6722C13.5594 15.9118 13.6546 16.1417 13.824 16.3111C13.9935 16.4806 14.2233 16.5758 14.463 16.5758C14.7026 16.5758 14.9324 16.4806 15.1019 16.3111C15.2714 16.1417 15.3666 15.9118 15.3666 15.6722C15.3666 15.4325 15.2714 15.2027 15.1019 15.0332C14.9324 14.8638 14.7026 14.7686 14.463 14.7686ZM6.3307 13.865C6.80999 13.865 7.26965 14.0554 7.60856 14.3943C7.94747 14.7332 8.13787 15.1929 8.13787 15.6722C8.13787 16.1515 7.94747 16.6111 7.60856 16.95C7.26965 17.289 6.80999 17.4794 6.3307 17.4794C5.8514 17.4794 5.39174 17.289 5.05283 16.95C4.71392 16.6111 4.52352 16.1515 4.52352 15.6722C4.52352 15.1929 4.71392 14.7332 5.05283 14.3943C5.39174 14.0554 5.8514 13.865 6.3307 13.865ZM6.3307 14.7686C6.09105 14.7686 5.86122 14.8638 5.69176 15.0332C5.52231 15.2027 5.42711 15.4325 5.42711 15.6722C5.42711 15.9118 5.52231 16.1417 5.69176 16.3111C5.86122 16.4806 6.09105 16.5758 6.3307 16.5758C6.57034 16.5758 6.80017 16.4806 6.96963 16.3111C7.13908 16.1417 7.23428 15.9118 7.23428 15.6722C7.23428 15.4325 7.13908 15.2027 6.96963 15.0332C6.80017 14.8638 6.57034 14.7686 6.3307 14.7686ZM16.2701 3.02198H3.86391L6.16805 8.44349H13.5594C13.8576 8.44349 14.1196 8.29892 14.2823 8.08206L16.993 4.46771C17.1105 4.3141 17.1737 4.12435 17.1737 3.92556C17.1737 3.68592 17.0785 3.45609 16.9091 3.28663C16.7396 3.11718 16.5098 3.02198 16.2701 3.02198ZM13.5594 9.34708H6.21323L5.51747 10.7567L5.42711 11.1543C5.42711 11.3939 5.52231 11.6237 5.69176 11.7932C5.86122 11.9626 6.09105 12.0578 6.3307 12.0578H16.2701V12.9614H6.3307C5.8514 12.9614 5.39174 12.771 5.05283 12.4321C4.71392 12.0932 4.52352 11.6335 4.52352 11.1543C4.52326 10.8477 4.60099 10.546 4.74942 10.2778L5.4 8.9495L2.11998 1.2148H0.90918V0.311218H2.71635L3.4844 2.11839H16.2701C16.7494 2.11839 17.2091 2.30879 17.548 2.6477C17.8869 2.98661 18.0773 3.44627 18.0773 3.92556C18.0773 4.37736 17.9237 4.75686 17.6707 5.06408L15.0413 8.57903C14.716 9.03986 14.1738 9.34708 13.5594 9.34708Z" fill="black"/>
</svg>
