<svg width="13" height="13" viewBox="0 0 13 13" fill="none" xmlns="http://www.w3.org/2000/svg">
<path d="M6.66683 0C8.34653 0 9.95744 0.66726 11.1452 1.85499C12.3329 3.04272 13.0002 4.65363 13.0002 6.33333C13.0002 8.01304 12.3329 9.62395 11.1452 10.8117C9.95744 11.9994 8.34653 12.6667 6.66683 12.6667C4.98712 12.6667 3.37622 11.9994 2.18849 10.8117C1.00076 9.62395 0.333496 8.01304 0.333496 6.33333C0.333496 4.65363 1.00076 3.04272 2.18849 1.85499C3.37622 0.66726 4.98712 0 6.66683 0ZM6.66683 0.666667C5.16394 0.666667 3.7226 1.26369 2.65989 2.3264C1.59719 3.3891 1.00016 4.83044 1.00016 6.33333C1.00016 7.83623 1.59719 9.27757 2.65989 10.3403C3.7226 11.403 5.16394 12 6.66683 12C7.41099 12 8.14786 11.8534 8.83537 11.5687C9.52288 11.2839 10.1476 10.8665 10.6738 10.3403C11.2 9.81407 11.6174 9.18939 11.9021 8.50187C12.1869 7.81436 12.3335 7.07749 12.3335 6.33333C12.3335 4.83044 11.7365 3.3891 10.6738 2.3264C9.61106 1.26369 8.16972 0.666667 6.66683 0.666667ZM6.3335 2.66667H7.00016V6.28L10.1335 8.08667L9.80016 8.66667L6.3335 6.66667V2.66667Z" fill="#848484"/>
</svg>
