<svg width="359" height="49" viewBox="0 0 359 49" fill="none" xmlns="http://www.w3.org/2000/svg">
<rect x="1" y="1" width="357" height="47" rx="23.5" stroke="#36A5FF" stroke-width="2"/>
<path d="M142.672 24.1C142.672 23.1387 142.882 22.28 143.302 21.524C143.722 20.7587 144.296 20.166 145.024 19.746C145.752 19.3167 146.564 19.102 147.46 19.102C148.552 19.102 149.485 19.3633 150.26 19.886C151.044 20.3993 151.613 21.1273 151.968 22.07H150.82C150.54 21.4073 150.111 20.8893 149.532 20.516C148.963 20.1427 148.272 19.956 147.46 19.956C146.741 19.956 146.093 20.124 145.514 20.46C144.945 20.796 144.497 21.2813 144.17 21.916C143.843 22.5413 143.68 23.2693 143.68 24.1C143.68 24.9307 143.843 25.6587 144.17 26.284C144.497 26.9093 144.945 27.39 145.514 27.726C146.093 28.062 146.741 28.23 147.46 28.23C148.272 28.23 148.963 28.048 149.532 27.684C150.111 27.3107 150.54 26.7973 150.82 26.144H151.968C151.613 27.0773 151.044 27.8007 150.26 28.314C149.476 28.8273 148.543 29.084 147.46 29.084C146.564 29.084 145.752 28.874 145.024 28.454C144.296 28.0247 143.722 27.432 143.302 26.676C142.882 25.92 142.672 25.0613 142.672 24.1ZM157.267 29.112C156.548 29.112 155.899 28.9533 155.321 28.636C154.751 28.3093 154.299 27.852 153.963 27.264C153.636 26.6667 153.473 25.9713 153.473 25.178C153.473 24.3847 153.641 23.694 153.977 23.106C154.313 22.5087 154.77 22.0513 155.349 21.734C155.927 21.4073 156.576 21.244 157.295 21.244C158.013 21.244 158.662 21.4073 159.241 21.734C159.829 22.0513 160.286 22.5087 160.613 23.106C160.949 23.694 161.117 24.3847 161.117 25.178C161.117 25.962 160.949 26.6527 160.613 27.25C160.277 27.8473 159.815 28.3093 159.227 28.636C158.639 28.9533 157.985 29.112 157.267 29.112ZM157.267 28.258C157.771 28.258 158.237 28.146 158.667 27.922C159.096 27.6887 159.441 27.3433 159.703 26.886C159.973 26.4193 160.109 25.85 160.109 25.178C160.109 24.506 159.978 23.9413 159.717 23.484C159.455 23.0173 159.11 22.672 158.681 22.448C158.251 22.2147 157.785 22.098 157.281 22.098C156.777 22.098 156.31 22.2147 155.881 22.448C155.451 22.672 155.106 23.0173 154.845 23.484C154.593 23.9413 154.467 24.506 154.467 25.178C154.467 25.85 154.593 26.4193 154.845 26.886C155.106 27.3433 155.447 27.6887 155.867 27.922C156.296 28.146 156.763 28.258 157.267 28.258ZM166.487 21.216C167.402 21.216 168.149 21.5007 168.727 22.07C169.306 22.63 169.595 23.4467 169.595 24.52V29H168.629V24.632C168.629 23.8013 168.419 23.1667 167.999 22.728C167.589 22.2893 167.024 22.07 166.305 22.07C165.568 22.07 164.98 22.3033 164.541 22.77C164.103 23.2367 163.883 23.9227 163.883 24.828V29H162.903V21.356H163.883V22.658C164.126 22.1913 164.476 21.8367 164.933 21.594C165.391 21.342 165.909 21.216 166.487 21.216ZM173.037 22.182V26.928C173.037 27.3947 173.125 27.7167 173.303 27.894C173.48 28.0713 173.793 28.16 174.241 28.16H175.137V29H174.087C173.396 29 172.883 28.8413 172.547 28.524C172.211 28.1973 172.043 27.6653 172.043 26.928V22.182H170.979V21.356H172.043V19.438H173.037V21.356H175.137V22.182H173.037ZM177.243 19.914C177.047 19.914 176.879 19.844 176.739 19.704C176.599 19.564 176.529 19.3913 176.529 19.186C176.529 18.9807 176.599 18.8127 176.739 18.682C176.879 18.542 177.047 18.472 177.243 18.472C177.439 18.472 177.607 18.542 177.747 18.682C177.887 18.8127 177.957 18.9807 177.957 19.186C177.957 19.3913 177.887 19.564 177.747 19.704C177.607 19.844 177.439 19.914 177.243 19.914ZM177.733 21.356V29H176.753V21.356H177.733ZM183.536 21.216C184.451 21.216 185.197 21.5007 185.776 22.07C186.355 22.63 186.644 23.4467 186.644 24.52V29H185.678V24.632C185.678 23.8013 185.468 23.1667 185.048 22.728C184.637 22.2893 184.073 22.07 183.354 22.07C182.617 22.07 182.029 22.3033 181.59 22.77C181.151 23.2367 180.932 23.9227 180.932 24.828V29H179.952V21.356H180.932V22.658C181.175 22.1913 181.525 21.8367 181.982 21.594C182.439 21.342 182.957 21.216 183.536 21.216ZM195.433 21.356V29H194.453V27.656C194.229 28.132 193.884 28.496 193.417 28.748C192.951 29 192.428 29.126 191.849 29.126C190.935 29.126 190.188 28.846 189.609 28.286C189.031 27.7167 188.741 26.8953 188.741 25.822V21.356H189.707V25.71C189.707 26.5407 189.913 27.1753 190.323 27.614C190.743 28.0527 191.313 28.272 192.031 28.272C192.769 28.272 193.357 28.0387 193.795 27.572C194.234 27.1053 194.453 26.4193 194.453 25.514V21.356H195.433ZM204.587 24.786C204.587 25.122 204.577 25.3787 204.559 25.556H198.217C198.245 26.1347 198.385 26.6293 198.637 27.04C198.889 27.4507 199.22 27.7633 199.631 27.978C200.041 28.1833 200.489 28.286 200.975 28.286C201.609 28.286 202.141 28.132 202.571 27.824C203.009 27.516 203.299 27.1007 203.439 26.578H204.475C204.288 27.3247 203.887 27.936 203.271 28.412C202.664 28.8787 201.899 29.112 200.975 29.112C200.256 29.112 199.612 28.9533 199.043 28.636C198.473 28.3093 198.025 27.852 197.699 27.264C197.381 26.6667 197.223 25.9713 197.223 25.178C197.223 24.3847 197.381 23.6893 197.699 23.092C198.016 22.4947 198.459 22.0373 199.029 21.72C199.598 21.4027 200.247 21.244 200.975 21.244C201.703 21.244 202.337 21.4027 202.879 21.72C203.429 22.0373 203.849 22.4667 204.139 23.008C204.437 23.54 204.587 24.1327 204.587 24.786ZM203.593 24.758C203.602 24.1887 203.485 23.7033 203.243 23.302C203.009 22.9007 202.687 22.5973 202.277 22.392C201.866 22.1867 201.418 22.084 200.933 22.084C200.205 22.084 199.584 22.3173 199.071 22.784C198.557 23.2507 198.273 23.9087 198.217 24.758H203.593Z" fill="black"/>
</svg>
