<svg width="169" height="169" viewBox="0 0 169 169" fill="none" xmlns="http://www.w3.org/2000/svg">
<rect x="0.5" y="0.5" width="168" height="168" rx="6.5" fill="#F7F7F7"/>
<rect x="0.5" y="0.5" width="168" height="168" rx="6.5" stroke="#36A5FF"/>
<path d="M12.75 71.525V89H11V71.525H12.75ZM16.9379 71.525H18.9629L16.7629 76.925H15.4879L16.9379 71.525ZM37.8945 75.1C39.4945 75.1 40.7945 75.6083 41.7945 76.625C42.8112 77.625 43.3195 79.0833 43.3195 81V89H41.5945V81.2C41.5945 79.7167 41.2362 78.5833 40.5195 77.8C39.8029 77.0167 38.8279 76.625 37.5945 76.625C36.3112 76.625 35.2862 77.05 34.5195 77.9C33.7529 78.75 33.3695 79.9833 33.3695 81.6V89H31.6445V81.2C31.6445 79.7167 31.2862 78.5833 30.5695 77.8C29.8529 77.0167 28.8695 76.625 27.6195 76.625C26.3362 76.625 25.3112 77.05 24.5445 77.9C23.7779 78.75 23.3945 79.9833 23.3945 81.6V89H21.6445V75.35H23.3945V77.7C23.8279 76.85 24.4445 76.2083 25.2445 75.775C26.0445 75.325 26.9362 75.1 27.9195 75.1C29.1029 75.1 30.1362 75.3833 31.0195 75.95C31.9195 76.5167 32.5695 77.35 32.9695 78.45C33.3362 77.3667 33.9612 76.5417 34.8445 75.975C35.7445 75.3917 36.7612 75.1 37.8945 75.1ZM53.2664 82.15C53.2664 80.75 53.5414 79.525 54.0914 78.475C54.6581 77.4083 55.4331 76.5917 56.4164 76.025C57.4164 75.4417 58.5414 75.15 59.7914 75.15C61.0914 75.15 62.2081 75.45 63.1414 76.05C64.0914 76.65 64.7747 77.4167 65.1914 78.35V75.35H66.9414V89H65.1914V85.975C64.7581 86.9083 64.0664 87.6833 63.1164 88.3C62.1831 88.9 61.0664 89.2 59.7664 89.2C58.5331 89.2 57.4164 88.9083 56.4164 88.325C55.4331 87.7417 54.6581 86.9167 54.0914 85.85C53.5414 84.7833 53.2664 83.55 53.2664 82.15ZM65.1914 82.175C65.1914 81.075 64.9664 80.1083 64.5164 79.275C64.0664 78.4417 63.4497 77.8 62.6664 77.35C61.8997 76.9 61.0497 76.675 60.1164 76.675C59.1497 76.675 58.2831 76.8917 57.5164 77.325C56.7497 77.7583 56.1414 78.3917 55.6914 79.225C55.2581 80.0417 55.0414 81.0167 55.0414 82.15C55.0414 83.2667 55.2581 84.25 55.6914 85.1C56.1414 85.9333 56.7497 86.575 57.5164 87.025C58.2831 87.4583 59.1497 87.675 60.1164 87.675C61.0497 87.675 61.8997 87.45 62.6664 87C63.4497 86.55 64.0664 85.9083 64.5164 85.075C64.9664 84.2417 65.1914 83.275 65.1914 82.175ZM10.2 109.175C10.2 107.758 10.4833 106.525 11.05 105.475C11.6167 104.408 12.4 103.592 13.4 103.025C14.4 102.442 15.5417 102.15 16.825 102.15C18.5083 102.15 19.8917 102.567 20.975 103.4C22.075 104.233 22.7833 105.367 23.1 106.8H21.225C20.9917 105.817 20.4833 105.05 19.7 104.5C18.9333 103.933 17.975 103.65 16.825 103.65C15.9083 103.65 15.0833 103.858 14.35 104.275C13.6167 104.692 13.0333 105.317 12.6 106.15C12.1833 106.967 11.975 107.975 11.975 109.175C11.975 110.375 12.1833 111.392 12.6 112.225C13.0333 113.058 13.6167 113.683 14.35 114.1C15.0833 114.517 15.9083 114.725 16.825 114.725C17.975 114.725 18.9333 114.45 19.7 113.9C20.4833 113.333 20.9917 112.55 21.225 111.55H23.1C22.7833 112.95 22.075 114.075 20.975 114.925C19.875 115.775 18.4917 116.2 16.825 116.2C15.5417 116.2 14.4 115.917 13.4 115.35C12.4 114.767 11.6167 113.95 11.05 112.9C10.4833 111.833 10.2 110.592 10.2 109.175ZM38.157 102.35V116H36.407V113.6C36.007 114.45 35.3904 115.1 34.557 115.55C33.7237 116 32.7904 116.225 31.757 116.225C30.1237 116.225 28.7904 115.725 27.757 114.725C26.7237 113.708 26.207 112.242 26.207 110.325V102.35H27.932V110.125C27.932 111.608 28.2987 112.742 29.032 113.525C29.782 114.308 30.7987 114.7 32.082 114.7C33.3987 114.7 34.4487 114.283 35.232 113.45C36.0154 112.617 36.407 111.392 36.407 109.775V102.35H38.157ZM46.8523 116.2C45.2857 116.2 44.0023 115.842 43.0023 115.125C42.019 114.392 41.469 113.4 41.3523 112.15H43.1523C43.2357 112.917 43.594 113.542 44.2273 114.025C44.8773 114.492 45.744 114.725 46.8273 114.725C47.7773 114.725 48.519 114.5 49.0523 114.05C49.6023 113.6 49.8773 113.042 49.8773 112.375C49.8773 111.908 49.7273 111.525 49.4273 111.225C49.1273 110.925 48.744 110.692 48.2773 110.525C47.8273 110.342 47.2107 110.15 46.4273 109.95C45.4107 109.683 44.5857 109.417 43.9523 109.15C43.319 108.883 42.7773 108.492 42.3273 107.975C41.894 107.442 41.6773 106.733 41.6773 105.85C41.6773 105.183 41.8773 104.567 42.2773 104C42.6773 103.433 43.244 102.983 43.9773 102.65C44.7107 102.317 45.544 102.15 46.4773 102.15C47.944 102.15 49.1273 102.525 50.0273 103.275C50.9273 104.008 51.4107 105.025 51.4773 106.325H49.7273C49.6773 105.525 49.3607 104.883 48.7773 104.4C48.2107 103.9 47.4273 103.65 46.4273 103.65C45.544 103.65 44.8273 103.858 44.2773 104.275C43.7273 104.692 43.4523 105.208 43.4523 105.825C43.4523 106.358 43.6107 106.8 43.9273 107.15C44.2607 107.483 44.669 107.75 45.1523 107.95C45.6357 108.133 46.2857 108.342 47.1023 108.575C48.0857 108.842 48.869 109.1 49.4523 109.35C50.0357 109.6 50.5357 109.967 50.9523 110.45C51.369 110.933 51.5857 111.575 51.6023 112.375C51.6023 113.108 51.4023 113.767 51.0023 114.35C50.6023 114.917 50.044 115.367 49.3273 115.7C48.6107 116.033 47.7857 116.2 46.8523 116.2ZM57.1715 103.825V112.3C57.1715 113.133 57.3298 113.708 57.6465 114.025C57.9632 114.342 58.5215 114.5 59.3215 114.5H60.9215V116H59.0465C57.8132 116 56.8965 115.717 56.2965 115.15C55.6965 114.567 55.3965 113.617 55.3965 112.3V103.825H53.4965V102.35H55.3965V98.925H57.1715V102.35H60.9215V103.825H57.1715ZM69.7826 116.2C68.4993 116.2 67.341 115.917 66.3076 115.35C65.291 114.767 64.4826 113.95 63.8826 112.9C63.2993 111.833 63.0076 110.592 63.0076 109.175C63.0076 107.758 63.3076 106.525 63.9076 105.475C64.5076 104.408 65.3243 103.592 66.3576 103.025C67.391 102.442 68.5493 102.15 69.8326 102.15C71.116 102.15 72.2743 102.442 73.3076 103.025C74.3576 103.592 75.1743 104.408 75.7576 105.475C76.3576 106.525 76.6576 107.758 76.6576 109.175C76.6576 110.575 76.3576 111.808 75.7576 112.875C75.1576 113.942 74.3326 114.767 73.2826 115.35C72.2326 115.917 71.066 116.2 69.7826 116.2ZM69.7826 114.675C70.6826 114.675 71.516 114.475 72.2826 114.075C73.0493 113.658 73.666 113.042 74.1326 112.225C74.616 111.392 74.8576 110.375 74.8576 109.175C74.8576 107.975 74.6243 106.967 74.1576 106.15C73.691 105.317 73.0743 104.7 72.3076 104.3C71.541 103.883 70.7076 103.675 69.8076 103.675C68.9076 103.675 68.0743 103.883 67.3076 104.3C66.541 104.7 65.9243 105.317 65.4576 106.15C65.0076 106.967 64.7826 107.975 64.7826 109.175C64.7826 110.375 65.0076 111.392 65.4576 112.225C65.9243 113.042 66.5326 113.658 67.2826 114.075C68.0493 114.475 68.8826 114.675 69.7826 114.675ZM96.0977 102.1C97.6977 102.1 98.9977 102.608 99.9977 103.625C101.014 104.625 101.523 106.083 101.523 108V116H99.7977V108.2C99.7977 106.717 99.4393 105.583 98.7227 104.8C98.006 104.017 97.031 103.625 95.7977 103.625C94.5143 103.625 93.4893 104.05 92.7227 104.9C91.956 105.75 91.5727 106.983 91.5727 108.6V116H89.8477V108.2C89.8477 106.717 89.4893 105.583 88.7727 104.8C88.056 104.017 87.0727 103.625 85.8227 103.625C84.5393 103.625 83.5143 104.05 82.7477 104.9C81.981 105.75 81.5977 106.983 81.5977 108.6V116H79.8477V102.35H81.5977V104.7C82.031 103.85 82.6477 103.208 83.4477 102.775C84.2477 102.325 85.1393 102.1 86.1227 102.1C87.306 102.1 88.3393 102.383 89.2227 102.95C90.1227 103.517 90.7727 104.35 91.1727 105.45C91.5393 104.367 92.1643 103.542 93.0477 102.975C93.9477 102.392 94.9643 102.1 96.0977 102.1ZM117.759 108.475C117.759 109.075 117.743 109.533 117.709 109.85H106.384C106.434 110.883 106.684 111.767 107.134 112.5C107.584 113.233 108.176 113.792 108.909 114.175C109.643 114.542 110.443 114.725 111.309 114.725C112.443 114.725 113.393 114.45 114.159 113.9C114.943 113.35 115.459 112.608 115.709 111.675H117.559C117.226 113.008 116.509 114.1 115.409 114.95C114.326 115.783 112.959 116.2 111.309 116.2C110.026 116.2 108.876 115.917 107.859 115.35C106.843 114.767 106.043 113.95 105.459 112.9C104.893 111.833 104.609 110.592 104.609 109.175C104.609 107.758 104.893 106.517 105.459 105.45C106.026 104.383 106.818 103.567 107.834 103C108.851 102.433 110.009 102.15 111.309 102.15C112.609 102.15 113.743 102.433 114.709 103C115.693 103.567 116.443 104.333 116.959 105.3C117.493 106.25 117.759 107.308 117.759 108.475ZM115.984 108.425C116.001 107.408 115.793 106.542 115.359 105.825C114.943 105.108 114.368 104.567 113.634 104.2C112.901 103.833 112.101 103.65 111.234 103.65C109.934 103.65 108.826 104.067 107.909 104.9C106.993 105.733 106.484 106.908 106.384 108.425H115.984ZM122.711 104.775C123.094 103.925 123.678 103.267 124.461 102.8C125.261 102.333 126.236 102.1 127.386 102.1V103.925H126.911C125.644 103.925 124.628 104.267 123.861 104.95C123.094 105.633 122.711 106.775 122.711 108.375V116H120.961V102.35H122.711V104.775Z" fill="black"/>
<path d="M12.705 139.091C12.1157 139.091 11.6 138.987 11.158 138.779C10.716 138.571 10.3693 138.289 10.118 137.934C9.87533 137.579 9.73667 137.184 9.702 136.751H10.313C10.3823 137.228 10.6033 137.652 10.976 138.025C11.3573 138.398 11.9337 138.584 12.705 138.584C13.1557 138.584 13.5457 138.502 13.875 138.337C14.213 138.172 14.473 137.947 14.655 137.661C14.837 137.375 14.928 137.059 14.928 136.712C14.928 136.27 14.8197 135.919 14.603 135.659C14.395 135.399 14.1307 135.204 13.81 135.074C13.498 134.944 13.0733 134.805 12.536 134.658C11.9467 134.502 11.47 134.346 11.106 134.19C10.7507 134.034 10.4473 133.796 10.196 133.475C9.95333 133.146 9.832 132.699 9.832 132.136C9.832 131.703 9.94467 131.308 10.17 130.953C10.404 130.589 10.7333 130.303 11.158 130.095C11.5827 129.887 12.0723 129.783 12.627 129.783C13.433 129.783 14.083 129.982 14.577 130.381C15.071 130.78 15.3657 131.269 15.461 131.85H14.837C14.785 131.616 14.668 131.378 14.486 131.135C14.3127 130.892 14.0613 130.693 13.732 130.537C13.4113 130.372 13.0257 130.29 12.575 130.29C11.9683 130.29 11.457 130.459 11.041 130.797C10.625 131.126 10.417 131.568 10.417 132.123C10.417 132.565 10.5253 132.92 10.742 133.189C10.9587 133.449 11.223 133.648 11.535 133.787C11.8557 133.917 12.2847 134.051 12.822 134.19C13.42 134.355 13.8923 134.515 14.239 134.671C14.5943 134.818 14.8933 135.057 15.136 135.386C15.3873 135.707 15.513 136.144 15.513 136.699C15.513 137.106 15.4047 137.492 15.188 137.856C14.9713 138.22 14.6507 138.519 14.226 138.753C13.81 138.978 13.303 139.091 12.705 139.091ZM17.5632 130.368C17.4246 130.368 17.3076 130.325 17.2122 130.238C17.1169 130.143 17.0692 130.017 17.0692 129.861C17.0692 129.714 17.1169 129.592 17.2122 129.497C17.3076 129.402 17.4246 129.354 17.5632 129.354C17.7019 129.354 17.8189 129.402 17.9142 129.497C18.0096 129.592 18.0572 129.714 18.0572 129.861C18.0572 130.017 18.0096 130.143 17.9142 130.238C17.8189 130.325 17.7019 130.368 17.5632 130.368ZM17.8492 131.941V139H17.2642V131.941H17.8492ZM23.0357 131.85C23.7811 131.85 24.4137 132.032 24.9337 132.396C25.4537 132.751 25.8177 133.211 26.0257 133.774V131.941H26.6107V139.221C26.6107 139.871 26.4677 140.439 26.1817 140.924C25.8957 141.418 25.5101 141.795 25.0247 142.055C24.5394 142.324 23.9977 142.458 23.3997 142.458C22.5157 142.458 21.7834 142.246 21.2027 141.821C20.6221 141.396 20.2407 140.824 20.0587 140.105H20.6437C20.8171 140.668 21.1421 141.115 21.6187 141.444C22.0954 141.782 22.6891 141.951 23.3997 141.951C23.8937 141.951 24.3401 141.838 24.7387 141.613C25.1374 141.396 25.4494 141.08 25.6747 140.664C25.9087 140.257 26.0257 139.776 26.0257 139.221V137.154C25.8177 137.717 25.4494 138.185 24.9207 138.558C24.4007 138.922 23.7724 139.104 23.0357 139.104C22.3771 139.104 21.7877 138.957 21.2677 138.662C20.7564 138.359 20.3534 137.934 20.0587 137.388C19.7727 136.833 19.6297 136.192 19.6297 135.464C19.6297 134.736 19.7727 134.099 20.0587 133.553C20.3534 133.007 20.7564 132.587 21.2677 132.292C21.7877 131.997 22.3771 131.85 23.0357 131.85ZM26.0257 135.464C26.0257 134.849 25.8957 134.307 25.6357 133.839C25.3844 133.362 25.0377 132.998 24.5957 132.747C24.1537 132.487 23.6597 132.357 23.1137 132.357C22.5417 132.357 22.0391 132.483 21.6057 132.734C21.1724 132.977 20.8344 133.332 20.5917 133.8C20.3491 134.268 20.2277 134.823 20.2277 135.464C20.2277 136.105 20.3491 136.66 20.5917 137.128C20.8344 137.596 21.1724 137.956 21.6057 138.207C22.0477 138.458 22.5504 138.584 23.1137 138.584C23.6597 138.584 24.1537 138.458 24.5957 138.207C25.0464 137.947 25.3974 137.583 25.6487 137.115C25.9001 136.638 26.0257 136.088 26.0257 135.464ZM31.9258 131.798C32.7665 131.798 33.4511 132.058 33.9798 132.578C34.5085 133.089 34.7728 133.852 34.7728 134.866V139H34.2008V134.905C34.2008 134.064 33.9885 133.423 33.5638 132.981C33.1391 132.53 32.5628 132.305 31.8348 132.305C31.0721 132.305 30.4611 132.548 30.0018 133.033C29.5511 133.518 29.3258 134.238 29.3258 135.191V139H28.7408V131.941H29.3258V133.436C29.5251 132.907 29.8545 132.504 30.3138 132.227C30.7818 131.941 31.3191 131.798 31.9258 131.798ZM41.0424 129.874V135.581C41.0424 136.612 41.2764 137.371 41.7444 137.856C42.2124 138.333 42.8494 138.571 43.6554 138.571C44.4527 138.571 45.081 138.333 45.5404 137.856C45.9997 137.379 46.2294 136.621 46.2294 135.581V129.874H46.8144V135.568C46.8144 136.755 46.5284 137.639 45.9564 138.22C45.3844 138.801 44.6174 139.091 43.6554 139.091C42.6934 139.091 41.9177 138.801 41.3284 138.22C40.7477 137.631 40.4574 136.747 40.4574 135.568V129.874H41.0424ZM49.4733 133.8C49.6726 133.228 50.0323 132.76 50.5523 132.396C51.0809 132.032 51.7179 131.85 52.4633 131.85C53.1219 131.85 53.7069 131.997 54.2183 132.292C54.7383 132.587 55.1413 133.007 55.4273 133.553C55.7219 134.099 55.8693 134.736 55.8693 135.464C55.8693 136.192 55.7219 136.833 55.4273 137.388C55.1413 137.934 54.7383 138.359 54.2183 138.662C53.7069 138.957 53.1219 139.104 52.4633 139.104C51.7266 139.104 51.0939 138.922 50.5653 138.558C50.0453 138.185 49.6813 137.717 49.4733 137.154V142.328H48.8883V131.941H49.4733V133.8ZM55.2713 135.464C55.2713 134.823 55.1499 134.268 54.9073 133.8C54.6646 133.332 54.3223 132.977 53.8803 132.734C53.4469 132.483 52.9443 132.357 52.3723 132.357C51.8263 132.357 51.3323 132.487 50.8903 132.747C50.4483 132.998 50.1016 133.362 49.8503 133.839C49.5989 134.307 49.4733 134.849 49.4733 135.464C49.4733 136.088 49.5989 136.638 49.8503 137.115C50.1016 137.583 50.4483 137.947 50.8903 138.207C51.3323 138.458 51.8263 138.584 52.3723 138.584C52.9443 138.584 53.4469 138.458 53.8803 138.207C54.3223 137.956 54.6646 137.596 54.9073 137.128C55.1499 136.66 55.2713 136.105 55.2713 135.464ZM64.4113 139.104C63.7526 139.104 63.1589 138.957 62.6303 138.662C62.1016 138.367 61.6856 137.947 61.3823 137.401C61.0876 136.846 60.9403 136.201 60.9403 135.464C60.9403 134.736 61.0919 134.099 61.3953 133.553C61.6986 132.998 62.1146 132.578 62.6433 132.292C63.1806 131.997 63.7786 131.85 64.4373 131.85C65.0959 131.85 65.6896 131.997 66.2183 132.292C66.7469 132.578 67.1586 132.994 67.4533 133.54C67.7566 134.086 67.9083 134.727 67.9083 135.464C67.9083 136.201 67.7566 136.846 67.4533 137.401C67.1499 137.947 66.7296 138.367 66.1923 138.662C65.6636 138.957 65.0699 139.104 64.4113 139.104ZM64.4113 138.584C64.9226 138.584 65.3993 138.471 65.8413 138.246C66.2919 138.012 66.6516 137.661 66.9203 137.193C67.1889 136.725 67.3233 136.149 67.3233 135.464C67.3233 134.788 67.1889 134.216 66.9203 133.748C66.6516 133.28 66.2963 132.933 65.8543 132.708C65.4123 132.474 64.9356 132.357 64.4243 132.357C63.9129 132.357 63.4363 132.474 62.9943 132.708C62.5609 132.933 62.2099 133.28 61.9413 133.748C61.6726 134.216 61.5383 134.788 61.5383 135.464C61.5383 136.149 61.6683 136.725 61.9283 137.193C62.1969 137.661 62.5479 138.012 62.9813 138.246C63.4233 138.471 63.8999 138.584 64.4113 138.584ZM70.2682 133.397C70.4415 132.877 70.7492 132.483 71.1912 132.214C71.6332 131.937 72.1965 131.798 72.8812 131.798V132.409H72.6862C71.9929 132.409 71.4165 132.608 70.9572 133.007C70.4979 133.397 70.2682 134.038 70.2682 134.931V139H69.6832V131.941H70.2682V133.397ZM78.4821 138.506H81.8751V139H77.8971V129.874H78.4821V138.506ZM86.3107 139.104C85.652 139.104 85.0584 138.957 84.5297 138.662C84.001 138.367 83.585 137.947 83.2817 137.401C82.987 136.846 82.8397 136.201 82.8397 135.464C82.8397 134.736 82.9914 134.099 83.2947 133.553C83.598 132.998 84.014 132.578 84.5427 132.292C85.08 131.997 85.678 131.85 86.3367 131.85C86.9954 131.85 87.589 131.997 88.1177 132.292C88.6464 132.578 89.058 132.994 89.3527 133.54C89.656 134.086 89.8077 134.727 89.8077 135.464C89.8077 136.201 89.656 136.846 89.3527 137.401C89.0494 137.947 88.629 138.367 88.0917 138.662C87.563 138.957 86.9694 139.104 86.3107 139.104ZM86.3107 138.584C86.822 138.584 87.2987 138.471 87.7407 138.246C88.1914 138.012 88.551 137.661 88.8197 137.193C89.0884 136.725 89.2227 136.149 89.2227 135.464C89.2227 134.788 89.0884 134.216 88.8197 133.748C88.551 133.28 88.1957 132.933 87.7537 132.708C87.3117 132.474 86.835 132.357 86.3237 132.357C85.8124 132.357 85.3357 132.474 84.8937 132.708C84.4604 132.933 84.1094 133.28 83.8407 133.748C83.572 134.216 83.4377 134.788 83.4377 135.464C83.4377 136.149 83.5677 136.725 83.8277 137.193C84.0964 137.661 84.4474 138.012 84.8807 138.246C85.3227 138.471 85.7994 138.584 86.3107 138.584ZM94.6246 131.85C95.3699 131.85 96.0026 132.032 96.5226 132.396C97.0426 132.751 97.4066 133.211 97.6146 133.774V131.941H98.1996V139.221C98.1996 139.871 98.0566 140.439 97.7706 140.924C97.4846 141.418 97.0989 141.795 96.6136 142.055C96.1283 142.324 95.5866 142.458 94.9886 142.458C94.1046 142.458 93.3723 142.246 92.7916 141.821C92.2109 141.396 91.8296 140.824 91.6476 140.105H92.2326C92.4059 140.668 92.7309 141.115 93.2076 141.444C93.6843 141.782 94.2779 141.951 94.9886 141.951C95.4826 141.951 95.9289 141.838 96.3276 141.613C96.7263 141.396 97.0383 141.08 97.2636 140.664C97.4976 140.257 97.6146 139.776 97.6146 139.221V137.154C97.4066 137.717 97.0383 138.185 96.5096 138.558C95.9896 138.922 95.3613 139.104 94.6246 139.104C93.9659 139.104 93.3766 138.957 92.8566 138.662C92.3453 138.359 91.9423 137.934 91.6476 137.388C91.3616 136.833 91.2186 136.192 91.2186 135.464C91.2186 134.736 91.3616 134.099 91.6476 133.553C91.9423 133.007 92.3453 132.587 92.8566 132.292C93.3766 131.997 93.9659 131.85 94.6246 131.85ZM97.6146 135.464C97.6146 134.849 97.4846 134.307 97.2246 133.839C96.9733 133.362 96.6266 132.998 96.1846 132.747C95.7426 132.487 95.2486 132.357 94.7026 132.357C94.1306 132.357 93.6279 132.483 93.1946 132.734C92.7613 132.977 92.4233 133.332 92.1806 133.8C91.9379 134.268 91.8166 134.823 91.8166 135.464C91.8166 136.105 91.9379 136.66 92.1806 137.128C92.4233 137.596 92.7613 137.956 93.1946 138.207C93.6366 138.458 94.1393 138.584 94.7026 138.584C95.2486 138.584 95.7426 138.458 96.1846 138.207C96.6353 137.947 96.9863 137.583 97.2376 137.115C97.4889 136.638 97.6146 136.088 97.6146 135.464ZM100.629 130.368C100.49 130.368 100.373 130.325 100.278 130.238C100.182 130.143 100.135 130.017 100.135 129.861C100.135 129.714 100.182 129.592 100.278 129.497C100.373 129.402 100.49 129.354 100.629 129.354C100.767 129.354 100.884 129.402 100.98 129.497C101.075 129.592 101.123 129.714 101.123 129.861C101.123 130.017 101.075 130.143 100.98 130.238C100.884 130.325 100.767 130.368 100.629 130.368ZM100.915 131.941V139H100.33V131.941H100.915ZM106.244 131.798C107.085 131.798 107.769 132.058 108.298 132.578C108.827 133.089 109.091 133.852 109.091 134.866V139H108.519V134.905C108.519 134.064 108.307 133.423 107.882 132.981C107.457 132.53 106.881 132.305 106.153 132.305C105.39 132.305 104.779 132.548 104.32 133.033C103.869 133.518 103.644 134.238 103.644 135.191V139H103.059V131.941H103.644V133.436C103.843 132.907 104.173 132.504 104.632 132.227C105.1 131.941 105.637 131.798 106.244 131.798ZM9.702 149.464C9.702 148.736 9.845 148.099 10.131 147.553C10.4257 147.007 10.8287 146.587 11.34 146.292C11.86 145.997 12.4493 145.85 13.108 145.85C13.8533 145.85 14.486 146.032 15.006 146.396C15.526 146.76 15.89 147.224 16.098 147.787V145.941H16.683V153H16.098V151.141C15.89 151.713 15.5217 152.185 14.993 152.558C14.473 152.922 13.8447 153.104 13.108 153.104C12.4493 153.104 11.86 152.957 11.34 152.662C10.8287 152.359 10.4257 151.934 10.131 151.388C9.845 150.833 9.702 150.192 9.702 149.464ZM16.098 149.464C16.098 148.849 15.968 148.307 15.708 147.839C15.4567 147.362 15.11 146.998 14.668 146.747C14.226 146.487 13.732 146.357 13.186 146.357C12.614 146.357 12.1113 146.483 11.678 146.734C11.2447 146.977 10.9067 147.332 10.664 147.8C10.4213 148.268 10.3 148.823 10.3 149.464C10.3 150.105 10.4213 150.66 10.664 151.128C10.9067 151.596 11.2447 151.956 11.678 152.207C12.12 152.458 12.6227 152.584 13.186 152.584C13.732 152.584 14.226 152.458 14.668 152.207C15.1187 151.947 15.4697 151.583 15.721 151.115C15.9723 150.638 16.098 150.088 16.098 149.464ZM21.1661 153.104C20.3774 153.104 19.7317 152.931 19.2291 152.584C18.7351 152.237 18.4577 151.743 18.3971 151.102H18.9951C19.0384 151.561 19.2464 151.925 19.6191 152.194C20.0004 152.463 20.5161 152.597 21.1661 152.597C21.7034 152.597 22.1281 152.463 22.4401 152.194C22.7607 151.917 22.9211 151.579 22.9211 151.18C22.9211 150.903 22.8344 150.677 22.6611 150.504C22.4964 150.322 22.2884 150.183 22.0371 150.088C21.7857 149.993 21.4434 149.889 21.0101 149.776C20.4901 149.637 20.0697 149.503 19.7491 149.373C19.4284 149.234 19.1554 149.031 18.9301 148.762C18.7047 148.493 18.5921 148.134 18.5921 147.683C18.5921 147.354 18.6917 147.05 18.8911 146.773C19.0904 146.487 19.3677 146.262 19.7231 146.097C20.0784 145.932 20.4814 145.85 20.9321 145.85C21.6687 145.85 22.2624 146.036 22.7131 146.409C23.1724 146.773 23.4194 147.28 23.4541 147.93H22.8691C22.8431 147.462 22.6611 147.081 22.3231 146.786C21.9851 146.491 21.5171 146.344 20.9191 146.344C20.4164 146.344 20.0004 146.474 19.6711 146.734C19.3417 146.994 19.1771 147.31 19.1771 147.683C19.1771 148.012 19.2681 148.281 19.4501 148.489C19.6407 148.688 19.8704 148.844 20.1391 148.957C20.4164 149.061 20.7804 149.174 21.2311 149.295C21.7251 149.425 22.1194 149.555 22.4141 149.685C22.7174 149.806 22.9731 149.988 23.1811 150.231C23.3891 150.465 23.4931 150.781 23.4931 151.18C23.4931 151.544 23.3934 151.873 23.1941 152.168C22.9947 152.463 22.7174 152.692 22.3621 152.857C22.0067 153.022 21.6081 153.104 21.1661 153.104ZM28.5799 149.464C28.5799 148.736 28.7229 148.099 29.0089 147.553C29.3036 147.007 29.7066 146.587 30.2179 146.292C30.7379 145.997 31.3273 145.85 31.9859 145.85C32.7313 145.85 33.3639 146.032 33.8839 146.396C34.4039 146.76 34.7679 147.224 34.9759 147.787V145.941H35.5609V153H34.9759V151.141C34.7679 151.713 34.3996 152.185 33.8709 152.558C33.3509 152.922 32.7226 153.104 31.9859 153.104C31.3273 153.104 30.7379 152.957 30.2179 152.662C29.7066 152.359 29.3036 151.934 29.0089 151.388C28.7229 150.833 28.5799 150.192 28.5799 149.464ZM34.9759 149.464C34.9759 148.849 34.8459 148.307 34.5859 147.839C34.3346 147.362 33.9879 146.998 33.5459 146.747C33.1039 146.487 32.6099 146.357 32.0639 146.357C31.4919 146.357 30.9893 146.483 30.5559 146.734C30.1226 146.977 29.7846 147.332 29.5419 147.8C29.2993 148.268 29.1779 148.823 29.1779 149.464C29.1779 150.105 29.2993 150.66 29.5419 151.128C29.7846 151.596 30.1226 151.956 30.5559 152.207C30.9979 152.458 31.5006 152.584 32.0639 152.584C32.6099 152.584 33.1039 152.458 33.5459 152.207C33.9966 151.947 34.3476 151.583 34.5989 151.115C34.8503 150.638 34.9759 150.088 34.9759 149.464ZM40.9959 149.464C40.9959 148.727 41.1389 148.086 41.4249 147.54C41.7196 146.994 42.1226 146.578 42.6339 146.292C43.1539 145.997 43.7476 145.85 44.4149 145.85C45.2989 145.85 46.0226 146.071 46.5859 146.513C47.1579 146.955 47.5133 147.549 47.6519 148.294H47.0409C46.9283 147.687 46.6336 147.211 46.1569 146.864C45.6889 146.517 45.1083 146.344 44.4149 146.344C43.8949 146.344 43.4226 146.461 42.9979 146.695C42.5733 146.92 42.2309 147.271 41.9709 147.748C41.7196 148.216 41.5939 148.788 41.5939 149.464C41.5939 150.149 41.7196 150.725 41.9709 151.193C42.2309 151.661 42.5733 152.012 42.9979 152.246C43.4226 152.48 43.8949 152.597 44.4149 152.597C45.1083 152.597 45.6889 152.424 46.1569 152.077C46.6336 151.73 46.9283 151.254 47.0409 150.647H47.6519C47.5133 151.384 47.1579 151.977 46.5859 152.428C46.0139 152.879 45.2903 153.104 44.4149 153.104C43.7476 153.104 43.1539 152.957 42.6339 152.662C42.1226 152.367 41.7196 151.947 41.4249 151.401C41.1389 150.846 40.9959 150.201 40.9959 149.464ZM55.4012 145.941V153H54.8162V151.466C54.6168 152.003 54.2832 152.415 53.8152 152.701C53.3558 152.978 52.8272 153.117 52.2292 153.117C51.3885 153.117 50.6995 152.861 50.1622 152.35C49.6335 151.83 49.3692 151.063 49.3692 150.049V145.941H49.9412V150.01C49.9412 150.851 50.1535 151.496 50.5782 151.947C51.0028 152.389 51.5792 152.61 52.3072 152.61C53.0698 152.61 53.6765 152.367 54.1272 151.882C54.5865 151.397 54.8162 150.677 54.8162 149.724V145.941H55.4012ZM59.8868 153.104C59.0981 153.104 58.4524 152.931 57.9498 152.584C57.4558 152.237 57.1784 151.743 57.1178 151.102H57.7158C57.7591 151.561 57.9671 151.925 58.3398 152.194C58.7211 152.463 59.2368 152.597 59.8868 152.597C60.4241 152.597 60.8488 152.463 61.1608 152.194C61.4814 151.917 61.6418 151.579 61.6418 151.18C61.6418 150.903 61.5551 150.677 61.3818 150.504C61.2171 150.322 61.0091 150.183 60.7578 150.088C60.5064 149.993 60.1641 149.889 59.7308 149.776C59.2108 149.637 58.7904 149.503 58.4698 149.373C58.1491 149.234 57.8761 149.031 57.6508 148.762C57.4254 148.493 57.3128 148.134 57.3128 147.683C57.3128 147.354 57.4124 147.05 57.6118 146.773C57.8111 146.487 58.0884 146.262 58.4438 146.097C58.7991 145.932 59.2021 145.85 59.6528 145.85C60.3894 145.85 60.9831 146.036 61.4338 146.409C61.8931 146.773 62.1401 147.28 62.1748 147.93H61.5898C61.5638 147.462 61.3818 147.081 61.0438 146.786C60.7058 146.491 60.2378 146.344 59.6398 146.344C59.1371 146.344 58.7211 146.474 58.3918 146.734C58.0624 146.994 57.8978 147.31 57.8978 147.683C57.8978 148.012 57.9888 148.281 58.1708 148.489C58.3614 148.688 58.5911 148.844 58.8598 148.957C59.1371 149.061 59.5011 149.174 59.9518 149.295C60.4458 149.425 60.8401 149.555 61.1348 149.685C61.4381 149.806 61.6938 149.988 61.9018 150.231C62.1098 150.465 62.2138 150.781 62.2138 151.18C62.2138 151.544 62.1141 151.873 61.9148 152.168C61.7154 152.463 61.4381 152.692 61.0828 152.857C60.7274 153.022 60.3288 153.104 59.8868 153.104ZM64.8667 146.448V151.115C64.8667 151.635 64.962 151.995 65.1527 152.194C65.3434 152.385 65.6814 152.48 66.1667 152.48H66.9597V153H66.0757C65.4604 153 65.0054 152.857 64.7107 152.571C64.4247 152.276 64.2817 151.791 64.2817 151.115V146.448H63.2157V145.941H64.2817V144.147H64.8667V145.941H66.9597V146.448H64.8667ZM71.6095 153.104C70.9509 153.104 70.3572 152.957 69.8285 152.662C69.2999 152.367 68.8839 151.947 68.5805 151.401C68.2859 150.846 68.1385 150.201 68.1385 149.464C68.1385 148.736 68.2902 148.099 68.5935 147.553C68.8969 146.998 69.3129 146.578 69.8415 146.292C70.3789 145.997 70.9769 145.85 71.6355 145.85C72.2942 145.85 72.8879 145.997 73.4165 146.292C73.9452 146.578 74.3569 146.994 74.6515 147.54C74.9549 148.086 75.1065 148.727 75.1065 149.464C75.1065 150.201 74.9549 150.846 74.6515 151.401C74.3482 151.947 73.9279 152.367 73.3905 152.662C72.8619 152.957 72.2682 153.104 71.6095 153.104ZM71.6095 152.584C72.1209 152.584 72.5975 152.471 73.0395 152.246C73.4902 152.012 73.8499 151.661 74.1185 151.193C74.3872 150.725 74.5215 150.149 74.5215 149.464C74.5215 148.788 74.3872 148.216 74.1185 147.748C73.8499 147.28 73.4945 146.933 73.0525 146.708C72.6105 146.474 72.1339 146.357 71.6225 146.357C71.1112 146.357 70.6345 146.474 70.1925 146.708C69.7592 146.933 69.4082 147.28 69.1395 147.748C68.8709 148.216 68.7365 148.788 68.7365 149.464C68.7365 150.149 68.8665 150.725 69.1265 151.193C69.3952 151.661 69.7462 152.012 70.1795 152.246C70.6215 152.471 71.0982 152.584 71.6095 152.584ZM85.2274 145.798C86.0334 145.798 86.6921 146.058 87.2034 146.578C87.7148 147.089 87.9704 147.852 87.9704 148.866V153H87.3984V148.905C87.3984 148.064 87.1948 147.423 86.7874 146.981C86.3888 146.53 85.8384 146.305 85.1364 146.305C84.4084 146.305 83.8234 146.556 83.3814 147.059C82.9394 147.562 82.7184 148.29 82.7184 149.243V153H82.1464V148.905C82.1464 148.064 81.9428 147.423 81.5354 146.981C81.1368 146.53 80.5864 146.305 79.8844 146.305C79.1564 146.305 78.5714 146.556 78.1294 147.059C77.6874 147.562 77.4664 148.29 77.4664 149.243V153H76.8814V145.941H77.4664V147.475C77.6658 146.92 77.9864 146.504 78.4284 146.227C78.8791 145.941 79.3948 145.798 79.9754 145.798C80.6168 145.798 81.1671 145.967 81.6264 146.305C82.0944 146.634 82.4151 147.124 82.5884 147.774C82.7531 147.124 83.0738 146.634 83.5504 146.305C84.0271 145.967 84.5861 145.798 85.2274 145.798ZM96.4035 148.996C96.4035 149.308 96.3948 149.542 96.3775 149.698H90.2805C90.2978 150.331 90.4365 150.864 90.6965 151.297C90.9565 151.73 91.2988 152.055 91.7235 152.272C92.1481 152.489 92.6118 152.597 93.1145 152.597C93.8078 152.597 94.3885 152.428 94.8565 152.09C95.3245 151.743 95.6191 151.275 95.7405 150.686H96.3515C96.2128 151.405 95.8575 151.99 95.2855 152.441C94.7135 152.883 93.9898 153.104 93.1145 153.104C92.4558 153.104 91.8665 152.957 91.3465 152.662C90.8265 152.367 90.4191 151.947 90.1245 151.401C89.8298 150.846 89.6825 150.201 89.6825 149.464C89.6825 148.727 89.8255 148.086 90.1115 147.54C90.4061 146.994 90.8135 146.578 91.3335 146.292C91.8535 145.997 92.4471 145.85 93.1145 145.85C93.7905 145.85 94.3755 145.997 94.8695 146.292C95.3721 146.578 95.7535 146.964 96.0135 147.449C96.2735 147.926 96.4035 148.441 96.4035 148.996ZM95.8185 149.217C95.8445 148.593 95.7318 148.064 95.4805 147.631C95.2378 147.198 94.9041 146.877 94.4795 146.669C94.0548 146.452 93.5955 146.344 93.1015 146.344C92.6075 146.344 92.1481 146.452 91.7235 146.669C91.3075 146.877 90.9651 147.198 90.6965 147.631C90.4365 148.064 90.2978 148.593 90.2805 149.217H95.8185ZM98.7565 147.397C98.9298 146.877 99.2375 146.483 99.6795 146.214C100.121 145.937 100.685 145.798 101.369 145.798V146.409H101.174C100.481 146.409 99.9048 146.608 99.4455 147.007C98.9861 147.397 98.7565 148.038 98.7565 148.931V153H98.1715V145.941H98.7565V147.397Z" fill="#737373"/>
</svg>
