<svg width="13" height="13" viewBox="0 0 13 13" fill="none" xmlns="http://www.w3.org/2000/svg">
<path d="M4.87524 5.41667C4.73158 5.41667 4.59381 5.47373 4.49223 5.57532C4.39064 5.6769 4.33358 5.81467 4.33358 5.95833V8.125H5.41691V6.5H7.04191V7.85417L8.93774 5.95833L7.04191 4.0625V5.41667H4.87524ZM6.8832 0.75454L12.2457 6.11704C12.3472 6.21862 12.4043 6.35637 12.4043 6.5C12.4043 6.64363 12.3472 6.78138 12.2457 6.88296L6.8832 12.2455C6.78162 12.347 6.64387 12.404 6.50024 12.404C6.35661 12.404 6.21886 12.347 6.11728 12.2455L0.754784 6.88296C0.653237 6.78138 0.596191 6.64363 0.596191 6.5C0.596191 6.35637 0.653237 6.21862 0.754784 6.11704L6.11728 0.75454C6.21886 0.652993 6.35661 0.595947 6.50024 0.595947C6.64387 0.595947 6.78162 0.652993 6.8832 0.75454Z" fill="black"/>
</svg>
