<svg width="58" height="90" viewBox="0 0 58 90" fill="none" xmlns="http://www.w3.org/2000/svg">
<rect width="58" height="58" rx="10" fill="#F8F8F8"/>
<path d="M23.4677 22.5883C22.7197 23.5985 22.2497 25.0098 22.2497 26.4997C22.2497 27.0447 22.3427 27.65 22.4672 28.2119H20.0022C19.895 27.6473 19.8384 27.0743 19.833 26.4997C19.833 24.5313 20.4468 22.6089 21.5247 21.1504C22.6061 19.6883 24.2193 18.625 26.1768 18.625C26.9283 18.625 27.6268 18.8908 28.2043 19.205C28.7904 19.5228 29.3329 19.9373 29.7933 20.3408C30.1316 20.6369 30.4422 20.9414 30.708 21.2193C30.9738 20.9414 31.2832 20.6369 31.6227 20.3396C32.0831 19.9373 32.6256 19.5228 33.2117 19.2038C33.7893 18.8908 34.4877 18.625 35.2393 18.625C37.1968 18.625 38.8099 19.6883 39.8913 21.1504C40.9692 22.6089 41.583 24.5313 41.583 26.4997C41.583 28.578 41.0248 30.1948 40.6405 30.9053C39.3524 33.8778 36.9793 36.2087 35.0048 37.7674C34.1704 38.4246 33.299 39.0334 32.3948 39.5908C32.0311 39.8133 31.6612 40.0257 31.2856 40.2276L31.2675 40.2372L31.2614 40.2409H31.259L30.708 40.5236L30.157 40.2421L30.1546 40.2409L30.1485 40.2372L30.1304 40.2276C30.0311 40.1764 29.9328 40.1232 29.8356 40.0681C29.5609 39.9146 29.2893 39.7555 29.0212 39.5908C28.117 39.033 27.2456 38.4238 26.4112 37.7662C24.9298 36.5965 23.2212 34.9919 21.9174 33.0054H24.9261C25.8199 34.0596 26.8196 35.0192 27.9095 35.8691C28.7986 36.5696 29.7335 37.2099 30.708 37.7855C30.8313 37.713 30.9718 37.6285 31.1297 37.5318C31.746 37.1548 32.5918 36.5941 33.5065 35.8715C35.3589 34.4095 37.3901 32.3613 38.4425 29.8988L38.4703 29.8347L38.5054 29.7743C38.6673 29.4891 39.1663 28.2542 39.1663 26.5009C39.1663 25.011 38.6951 23.6009 37.9483 22.5895C37.204 21.5818 36.2506 21.0417 35.2393 21.0417C35.0447 21.0417 34.7535 21.1166 34.3668 21.3268C33.9898 21.5323 33.5947 21.8259 33.2141 22.1582C32.6669 22.6452 32.1609 23.1767 31.7013 23.7471C31.5824 23.8966 31.4314 24.0174 31.2594 24.1004C31.0875 24.1834 30.899 24.2265 30.708 24.2265C30.5171 24.2265 30.3286 24.1834 30.1566 24.1004C29.9846 24.0174 29.8336 23.8966 29.7148 23.7471C29.2551 23.1767 28.7491 22.6452 28.2019 22.1582C27.8485 21.8406 27.462 21.5619 27.0492 21.3268C26.6625 21.1166 26.3725 21.0417 26.1768 21.0417C25.1654 21.0417 24.212 21.5818 23.4677 22.5883Z" fill="#686868"/>
<path d="M20.2803 29.4202H24.5868L27.3007 24.9688L29.1651 29.5544L30.0617 28.2312H34.3332V30.6093H31.3546L28.6262 34.6354L26.8657 30.3035L25.9546 31.7983H17.4165V29.4202H20.2803Z" fill="#686868"/>
<path d="M18.429 66.727V67.393H16.719V73H15.9V67.393H14.181V66.727H18.429ZM19.1311 70.516C19.1311 70.012 19.2331 69.571 19.4371 69.193C19.6411 68.809 19.9201 68.512 20.2741 68.302C20.6341 68.092 21.0331 67.987 21.4711 67.987C21.9031 67.987 22.2781 68.08 22.5961 68.266C22.9141 68.452 23.1511 68.686 23.3071 68.968V68.068H24.1351V73H23.3071V72.082C23.1451 72.37 22.9021 72.61 22.5781 72.802C22.2601 72.988 21.8881 73.081 21.4621 73.081C21.0241 73.081 20.6281 72.973 20.2741 72.757C19.9201 72.541 19.6411 72.238 19.4371 71.848C19.2331 71.458 19.1311 71.014 19.1311 70.516ZM23.3071 70.525C23.3071 70.153 23.2321 69.829 23.0821 69.553C22.9321 69.277 22.7281 69.067 22.4701 68.923C22.2181 68.773 21.9391 68.698 21.6331 68.698C21.3271 68.698 21.0481 68.77 20.7961 68.914C20.5441 69.058 20.3431 69.268 20.1931 69.544C20.0431 69.82 19.9681 70.144 19.9681 70.516C19.9681 70.894 20.0431 71.224 20.1931 71.506C20.3431 71.782 20.5441 71.995 20.7961 72.145C21.0481 72.289 21.3271 72.361 21.6331 72.361C21.9391 72.361 22.2181 72.289 22.4701 72.145C22.7281 71.995 22.9321 71.782 23.0821 71.506C23.2321 71.224 23.3071 70.897 23.3071 70.525ZM26.3382 68.869C26.4822 68.587 26.6862 68.368 26.9502 68.212C27.2202 68.056 27.5472 67.978 27.9312 67.978V68.824H27.7152C26.7972 68.824 26.3382 69.322 26.3382 70.318V73H25.5192V68.068H26.3382V68.869ZM30.9106 67.987C31.3366 67.987 31.7086 68.08 32.0266 68.266C32.3506 68.452 32.5906 68.686 32.7466 68.968V68.068H33.5746V73.108C33.5746 73.558 33.4786 73.957 33.2866 74.305C33.0946 74.659 32.8186 74.935 32.4586 75.133C32.1046 75.331 31.6906 75.43 31.2166 75.43C30.5686 75.43 30.0286 75.277 29.5966 74.971C29.1646 74.665 28.9096 74.248 28.8316 73.72H29.6416C29.7316 74.02 29.9176 74.26 30.1996 74.44C30.4816 74.626 30.8206 74.719 31.2166 74.719C31.6666 74.719 32.0326 74.578 32.3146 74.296C32.6026 74.014 32.7466 73.618 32.7466 73.108V72.073C32.5846 72.361 32.3446 72.601 32.0266 72.793C31.7086 72.985 31.3366 73.081 30.9106 73.081C30.4726 73.081 30.0736 72.973 29.7136 72.757C29.3596 72.541 29.0806 72.238 28.8766 71.848C28.6726 71.458 28.5706 71.014 28.5706 70.516C28.5706 70.012 28.6726 69.571 28.8766 69.193C29.0806 68.809 29.3596 68.512 29.7136 68.302C30.0736 68.092 30.4726 67.987 30.9106 67.987ZM32.7466 70.525C32.7466 70.153 32.6716 69.829 32.5216 69.553C32.3716 69.277 32.1676 69.067 31.9096 68.923C31.6576 68.773 31.3786 68.698 31.0726 68.698C30.7666 68.698 30.4876 68.77 30.2356 68.914C29.9836 69.058 29.7826 69.268 29.6326 69.544C29.4826 69.82 29.4076 70.144 29.4076 70.516C29.4076 70.894 29.4826 71.224 29.6326 71.506C29.7826 71.782 29.9836 71.995 30.2356 72.145C30.4876 72.289 30.7666 72.361 31.0726 72.361C31.3786 72.361 31.6576 72.289 31.9096 72.145C32.1676 71.995 32.3716 71.782 32.5216 71.506C32.6716 71.224 32.7466 70.897 32.7466 70.525ZM39.4586 70.345C39.4586 70.501 39.4496 70.666 39.4316 70.84H35.4896C35.5196 71.326 35.6846 71.707 35.9846 71.983C36.2906 72.253 36.6596 72.388 37.0916 72.388C37.4456 72.388 37.7396 72.307 37.9736 72.145C38.2136 71.977 38.3816 71.755 38.4776 71.479H39.3596C39.2276 71.953 38.9636 72.34 38.5676 72.64C38.1716 72.934 37.6796 73.081 37.0916 73.081C36.6236 73.081 36.2036 72.976 35.8316 72.766C35.4656 72.556 35.1776 72.259 34.9676 71.875C34.7576 71.485 34.6526 71.035 34.6526 70.525C34.6526 70.015 34.7546 69.568 34.9586 69.184C35.1626 68.8 35.4476 68.506 35.8136 68.302C36.1856 68.092 36.6116 67.987 37.0916 67.987C37.5596 67.987 37.9736 68.089 38.3336 68.293C38.6936 68.497 38.9696 68.779 39.1616 69.139C39.3596 69.493 39.4586 69.895 39.4586 70.345ZM38.6126 70.174C38.6126 69.862 38.5436 69.595 38.4056 69.373C38.2676 69.145 38.0786 68.974 37.8386 68.86C37.6046 68.74 37.3436 68.68 37.0556 68.68C36.6416 68.68 36.2876 68.812 35.9936 69.076C35.7056 69.34 35.5406 69.706 35.4986 70.174H38.6126ZM41.5387 68.743V71.65C41.5387 71.89 41.5897 72.061 41.6917 72.163C41.7937 72.259 41.9707 72.307 42.2227 72.307H42.8257V73H42.0877C41.6317 73 41.2897 72.895 41.0617 72.685C40.8337 72.475 40.7197 72.13 40.7197 71.65V68.743H40.0807V68.068H40.7197V66.826H41.5387V68.068H42.8257V68.743H41.5387ZM14.5883 87.063C14.1743 87.063 13.8023 86.991 13.4723 86.847C13.1483 86.697 12.8933 86.493 12.7073 86.235C12.5213 85.971 12.4253 85.668 12.4193 85.326H13.2923C13.3223 85.62 13.4423 85.869 13.6523 86.073C13.8683 86.271 14.1803 86.37 14.5883 86.37C14.9783 86.37 15.2843 86.274 15.5063 86.082C15.7343 85.884 15.8483 85.632 15.8483 85.326C15.8483 85.086 15.7823 84.891 15.6503 84.741C15.5183 84.591 15.3533 84.477 15.1553 84.399C14.9573 84.321 14.6903 84.237 14.3543 84.147C13.9403 84.039 13.6073 83.931 13.3553 83.823C13.1093 83.715 12.8963 83.547 12.7163 83.319C12.5423 83.085 12.4553 82.773 12.4553 82.383C12.4553 82.041 12.5423 81.738 12.7163 81.474C12.8903 81.21 13.1333 81.006 13.4453 80.862C13.7633 80.718 14.1263 80.646 14.5343 80.646C15.1223 80.646 15.6023 80.793 15.9743 81.087C16.3523 81.381 16.5653 81.771 16.6133 82.257H15.7133C15.6833 82.017 15.5573 81.807 15.3353 81.627C15.1133 81.441 14.8193 81.348 14.4533 81.348C14.1113 81.348 13.8323 81.438 13.6163 81.618C13.4003 81.792 13.2923 82.038 13.2923 82.356C13.2923 82.584 13.3553 82.77 13.4813 82.914C13.6133 83.058 13.7723 83.169 13.9583 83.247C14.1503 83.319 14.4173 83.403 14.7593 83.499C15.1733 83.613 15.5063 83.727 15.7583 83.841C16.0103 83.949 16.2263 84.12 16.4062 84.354C16.5863 84.582 16.6763 84.894 16.6763 85.29C16.6763 85.596 16.5953 85.884 16.4333 86.154C16.2713 86.424 16.0313 86.643 15.7133 86.811C15.3953 86.979 15.0203 87.063 14.5883 87.063ZM22.1295 82.068L19.1595 89.322H18.3135L19.2855 86.946L17.2965 82.068H18.2055L19.7535 86.064L21.2835 82.068H22.1295ZM24.6988 87.081C24.3208 87.081 23.9818 87.018 23.6818 86.892C23.3818 86.76 23.1448 86.58 22.9708 86.352C22.7968 86.118 22.7008 85.851 22.6828 85.551H23.5288C23.5528 85.797 23.6668 85.998 23.8708 86.154C24.0808 86.31 24.3538 86.388 24.6898 86.388C25.0018 86.388 25.2478 86.319 25.4278 86.181C25.6078 86.043 25.6978 85.869 25.6978 85.659C25.6978 85.443 25.6018 85.284 25.4098 85.182C25.2178 85.074 24.9208 84.969 24.5188 84.867C24.1528 84.771 23.8528 84.675 23.6188 84.579C23.3908 84.477 23.1928 84.33 23.0248 84.138C22.8628 83.94 22.7818 83.682 22.7818 83.364C22.7818 83.112 22.8568 82.881 23.0068 82.671C23.1568 82.461 23.3698 82.296 23.6458 82.176C23.9218 82.05 24.2368 81.987 24.5908 81.987C25.1368 81.987 25.5778 82.125 25.9138 82.401C26.2498 82.677 26.4298 83.055 26.4538 83.535H25.6348C25.6168 83.277 25.5118 83.07 25.3198 82.914C25.1338 82.758 24.8818 82.68 24.5638 82.68C24.2698 82.68 24.0358 82.743 23.8618 82.869C23.6878 82.995 23.6008 83.16 23.6008 83.364C23.6008 83.526 23.6518 83.661 23.7538 83.769C23.8618 83.871 23.9938 83.955 24.1498 84.021C24.3118 84.081 24.5338 84.15 24.8158 84.228C25.1698 84.324 25.4578 84.42 25.6798 84.516C25.9018 84.606 26.0908 84.744 26.2468 84.93C26.4088 85.116 26.4928 85.359 26.4988 85.659C26.4988 85.929 26.4238 86.172 26.2738 86.388C26.1238 86.604 25.9108 86.775 25.6348 86.901C25.3648 87.021 25.0528 87.081 24.6988 87.081ZM28.6539 82.743V85.65C28.6539 85.89 28.7049 86.061 28.8069 86.163C28.9089 86.259 29.0859 86.307 29.3379 86.307H29.9409V87H29.2029C28.7469 87 28.4049 86.895 28.1769 86.685C27.9489 86.475 27.8349 86.13 27.8349 85.65V82.743H27.1959V82.068H27.8349V80.826H28.6539V82.068H29.9409V82.743H28.6539ZM35.4332 84.345C35.4332 84.501 35.4242 84.666 35.4062 84.84H31.4642C31.4942 85.326 31.6592 85.707 31.9592 85.983C32.2652 86.253 32.6342 86.388 33.0662 86.388C33.4202 86.388 33.7142 86.307 33.9482 86.145C34.1882 85.977 34.3562 85.755 34.4522 85.479H35.3342C35.2022 85.953 34.9382 86.34 34.5422 86.64C34.1462 86.934 33.6542 87.081 33.0662 87.081C32.5982 87.081 32.1782 86.976 31.8062 86.766C31.4402 86.556 31.1522 86.259 30.9422 85.875C30.7322 85.485 30.6272 85.035 30.6272 84.525C30.6272 84.015 30.7292 83.568 30.9332 83.184C31.1372 82.8 31.4222 82.506 31.7882 82.302C32.1602 82.092 32.5862 81.987 33.0662 81.987C33.5342 81.987 33.9482 82.089 34.3082 82.293C34.6682 82.497 34.9442 82.779 35.1362 83.139C35.3342 83.493 35.4332 83.895 35.4332 84.345ZM34.5872 84.174C34.5872 83.862 34.5182 83.595 34.3802 83.373C34.2422 83.145 34.0532 82.974 33.8132 82.86C33.5792 82.74 33.3182 82.68 33.0302 82.68C32.6162 82.68 32.2622 82.812 31.9682 83.076C31.6802 83.34 31.5152 83.706 31.4732 84.174H34.5872ZM42.4453 81.978C42.8293 81.978 43.1713 82.059 43.4713 82.221C43.7713 82.377 44.0083 82.614 44.1823 82.932C44.3563 83.25 44.4433 83.637 44.4433 84.093V87H43.6333V84.21C43.6333 83.718 43.5103 83.343 43.2643 83.085C43.0243 82.821 42.6973 82.689 42.2833 82.689C41.8573 82.689 41.5183 82.827 41.2663 83.103C41.0143 83.373 40.8883 83.766 40.8883 84.282V87H40.0783V84.21C40.0783 83.718 39.9553 83.343 39.7093 83.085C39.4693 82.821 39.1423 82.689 38.7283 82.689C38.3023 82.689 37.9633 82.827 37.7113 83.103C37.4593 83.373 37.3333 83.766 37.3333 84.282V87H36.5143V82.068H37.3333V82.779C37.4953 82.521 37.7113 82.323 37.9813 82.185C38.2573 82.047 38.5603 81.978 38.8903 81.978C39.3043 81.978 39.6703 82.071 39.9883 82.257C40.3063 82.443 40.5433 82.716 40.6993 83.076C40.8373 82.728 41.0653 82.458 41.3833 82.266C41.7013 82.074 42.0553 81.978 42.4453 81.978Z" fill="#090909"/>
</svg>
