<svg width="58" height="86" viewBox="0 0 58 86" fill="none" xmlns="http://www.w3.org/2000/svg">
<rect width="58" height="58" rx="10" fill="#F8F8F8"/>
<path d="M27.6668 15.6667C30.257 15.6663 32.7589 16.6084 34.7055 18.3172C36.6521 20.0261 37.9103 22.3849 38.2454 24.9533L41.2454 29.672C41.4428 29.9827 41.4028 30.4453 40.9454 30.6427L38.3334 31.76V35.6667C38.3334 36.3739 38.0525 37.0522 37.5524 37.5523C37.0523 38.0524 36.374 38.3333 35.6668 38.3333H33.0014L33.0001 42.3333H21.0001V37.408C21.0001 35.8347 20.4188 34.3453 19.3401 33.0013C18.0837 31.4326 17.2961 29.5408 17.068 27.544C16.8398 25.5471 17.1805 23.5265 18.0508 21.7148C18.921 19.9031 20.2853 18.3742 21.9866 17.3041C23.6879 16.2341 25.6569 15.6665 27.6668 15.6667ZM27.6668 18.3333C26.1595 18.3333 24.683 18.759 23.4071 19.5615C22.1313 20.3639 21.1081 21.5105 20.4554 22.8691C19.8027 24.2277 19.5471 25.743 19.718 27.2405C19.8889 28.738 20.4794 30.1567 21.4214 31.3333C22.8801 33.152 23.6668 35.2227 23.6668 37.408V39.6667H30.3334L30.3361 35.6667H35.6668V30.0027L37.7334 29.1173L35.6761 25.884L35.6001 25.2947C35.348 23.3691 34.404 21.601 32.9443 20.3201C31.4846 19.0392 29.6088 18.3331 27.6668 18.3333ZM27.6668 22.3333C28.0204 22.3333 28.3595 22.4738 28.6096 22.7238C28.8596 22.9739 29.0001 23.313 29.0001 23.6667V25H30.3334C30.6871 25 31.0262 25.1405 31.2762 25.3905C31.5263 25.6406 31.6668 25.9797 31.6668 26.3333C31.6668 26.6869 31.5263 27.0261 31.2762 27.2761C31.0262 27.5262 30.6871 27.6667 30.3334 27.6667H29.0001V29C29.0001 29.3536 28.8596 29.6927 28.6096 29.9428C28.3595 30.1928 28.0204 30.3333 27.6668 30.3333C27.3131 30.3333 26.974 30.1928 26.724 29.9428C26.4739 29.6927 26.3334 29.3536 26.3334 29V27.6653L25.0001 27.6667C24.6465 27.6667 24.3073 27.5262 24.0573 27.2761C23.8072 27.0261 23.6668 26.6869 23.6668 26.3333C23.6668 25.9797 23.8072 25.6406 24.0573 25.3905C24.3073 25.1405 24.6465 25 25.0001 25L26.3334 24.9987V23.6667C26.3334 23.313 26.4739 22.9739 26.724 22.7238C26.974 22.4738 27.3131 22.3333 27.6668 22.3333Z" fill="#686868"/>
<path d="M6.04082 66.727V67.393H4.33082V73H3.51182V67.393H1.79282V66.727H6.04082ZM9.49696 67.978C9.86896 67.978 10.205 68.059 10.505 68.221C10.805 68.377 11.039 68.614 11.207 68.932C11.381 69.25 11.468 69.637 11.468 70.093V73H10.658V70.21C10.658 69.718 10.535 69.343 10.289 69.085C10.043 68.821 9.70696 68.689 9.28096 68.689C8.84896 68.689 8.50396 68.824 8.24596 69.094C7.99396 69.364 7.86796 69.757 7.86796 70.273V73H7.04896V66.34H7.86796V68.77C8.02996 68.518 8.25196 68.323 8.53396 68.185C8.82196 68.047 9.14296 67.978 9.49696 67.978ZM17.3058 70.345C17.3058 70.501 17.2968 70.666 17.2788 70.84H13.3368C13.3668 71.326 13.5318 71.707 13.8318 71.983C14.1378 72.253 14.5068 72.388 14.9388 72.388C15.2928 72.388 15.5868 72.307 15.8208 72.145C16.0608 71.977 16.2288 71.755 16.3248 71.479H17.2068C17.0748 71.953 16.8108 72.34 16.4148 72.64C16.0188 72.934 15.5268 73.081 14.9388 73.081C14.4708 73.081 14.0508 72.976 13.6788 72.766C13.3128 72.556 13.0248 72.259 12.8148 71.875C12.6048 71.485 12.4998 71.035 12.4998 70.525C12.4998 70.015 12.6018 69.568 12.8058 69.184C13.0098 68.8 13.2948 68.506 13.6608 68.302C14.0328 68.092 14.4588 67.987 14.9388 67.987C15.4068 67.987 15.8208 68.089 16.1808 68.293C16.5408 68.497 16.8168 68.779 17.0088 69.139C17.2068 69.493 17.3058 69.895 17.3058 70.345ZM16.4598 70.174C16.4598 69.862 16.3908 69.595 16.2528 69.373C16.1148 69.145 15.9258 68.974 15.6858 68.86C15.4518 68.74 15.1908 68.68 14.9028 68.68C14.4888 68.68 14.1348 68.812 13.8408 69.076C13.5528 69.34 13.3878 69.706 13.3458 70.174H16.4598ZM19.2058 68.869C19.3498 68.587 19.5538 68.368 19.8178 68.212C20.0878 68.056 20.4148 67.978 20.7988 67.978V68.824H20.5828C19.6648 68.824 19.2058 69.322 19.2058 70.318V73H18.3868V68.068H19.2058V68.869ZM21.4383 70.516C21.4383 70.012 21.5403 69.571 21.7443 69.193C21.9483 68.809 22.2273 68.512 22.5813 68.302C22.9413 68.092 23.3403 67.987 23.7783 67.987C24.2103 67.987 24.5853 68.08 24.9033 68.266C25.2213 68.452 25.4583 68.686 25.6143 68.968V68.068H26.4423V73H25.6143V72.082C25.4523 72.37 25.2093 72.61 24.8853 72.802C24.5673 72.988 24.1953 73.081 23.7693 73.081C23.3313 73.081 22.9353 72.973 22.5813 72.757C22.2273 72.541 21.9483 72.238 21.7443 71.848C21.5403 71.458 21.4383 71.014 21.4383 70.516ZM25.6143 70.525C25.6143 70.153 25.5393 69.829 25.3893 69.553C25.2393 69.277 25.0353 69.067 24.7773 68.923C24.5253 68.773 24.2463 68.698 23.9403 68.698C23.6343 68.698 23.3553 68.77 23.1033 68.914C22.8513 69.058 22.6503 69.268 22.5003 69.544C22.3503 69.82 22.2753 70.144 22.2753 70.516C22.2753 70.894 22.3503 71.224 22.5003 71.506C22.6503 71.782 22.8513 71.995 23.1033 72.145C23.3553 72.289 23.6343 72.361 23.9403 72.361C24.2463 72.361 24.5253 72.289 24.7773 72.145C25.0353 71.995 25.2393 71.782 25.3893 71.506C25.5393 71.224 25.6143 70.897 25.6143 70.525ZM28.6453 68.977C28.8073 68.695 29.0473 68.461 29.3653 68.275C29.6893 68.083 30.0643 67.987 30.4903 67.987C30.9283 67.987 31.3243 68.092 31.6783 68.302C32.0383 68.512 32.3203 68.809 32.5243 69.193C32.7283 69.571 32.8303 70.012 32.8303 70.516C32.8303 71.014 32.7283 71.458 32.5243 71.848C32.3203 72.238 32.0383 72.541 31.6783 72.757C31.3243 72.973 30.9283 73.081 30.4903 73.081C30.0703 73.081 29.6983 72.988 29.3743 72.802C29.0563 72.61 28.8133 72.373 28.6453 72.091V75.34H27.8263V68.068H28.6453V68.977ZM31.9933 70.516C31.9933 70.144 31.9183 69.82 31.7683 69.544C31.6183 69.268 31.4143 69.058 31.1563 68.914C30.9043 68.77 30.6253 68.698 30.3193 68.698C30.0193 68.698 29.7403 68.773 29.4823 68.923C29.2303 69.067 29.0263 69.28 28.8703 69.562C28.7203 69.838 28.6453 70.159 28.6453 70.525C28.6453 70.897 28.7203 71.224 28.8703 71.506C29.0263 71.782 29.2303 71.995 29.4823 72.145C29.7403 72.289 30.0193 72.361 30.3193 72.361C30.6253 72.361 30.9043 72.289 31.1563 72.145C31.4143 71.995 31.6183 71.782 31.7683 71.506C31.9183 71.224 31.9933 70.894 31.9933 70.516ZM38.4083 70.345C38.4083 70.501 38.3993 70.666 38.3813 70.84H34.4393C34.4693 71.326 34.6343 71.707 34.9343 71.983C35.2403 72.253 35.6093 72.388 36.0413 72.388C36.3953 72.388 36.6893 72.307 36.9233 72.145C37.1633 71.977 37.3313 71.755 37.4273 71.479H38.3093C38.1773 71.953 37.9133 72.34 37.5173 72.64C37.1213 72.934 36.6293 73.081 36.0413 73.081C35.5733 73.081 35.1533 72.976 34.7813 72.766C34.4153 72.556 34.1273 72.259 33.9173 71.875C33.7073 71.485 33.6023 71.035 33.6023 70.525C33.6023 70.015 33.7043 69.568 33.9083 69.184C34.1123 68.8 34.3973 68.506 34.7633 68.302C35.1353 68.092 35.5613 67.987 36.0413 67.987C36.5093 67.987 36.9233 68.089 37.2833 68.293C37.6433 68.497 37.9193 68.779 38.1113 69.139C38.3093 69.493 38.4083 69.895 38.4083 70.345ZM37.5623 70.174C37.5623 69.862 37.4933 69.595 37.3553 69.373C37.2173 69.145 37.0283 68.974 36.7883 68.86C36.5543 68.74 36.2933 68.68 36.0053 68.68C35.5913 68.68 35.2373 68.812 34.9433 69.076C34.6553 69.34 34.4903 69.706 34.4483 70.174H37.5623ZM43.8634 68.068V73H43.0444V72.271C42.8884 72.523 42.6694 72.721 42.3874 72.865C42.1114 73.003 41.8054 73.072 41.4694 73.072C41.0854 73.072 40.7404 72.994 40.4344 72.838C40.1284 72.676 39.8854 72.436 39.7054 72.118C39.5314 71.8 39.4444 71.413 39.4444 70.957V68.068H40.2544V70.849C40.2544 71.335 40.3774 71.71 40.6234 71.974C40.8694 72.232 41.2054 72.361 41.6314 72.361C42.0694 72.361 42.4144 72.226 42.6664 71.956C42.9184 71.686 43.0444 71.293 43.0444 70.777V68.068H43.8634ZM46.2452 68.743V71.65C46.2452 71.89 46.2962 72.061 46.3982 72.163C46.5002 72.259 46.6772 72.307 46.9292 72.307H47.5322V73H46.7942C46.3382 73 45.9962 72.895 45.7682 72.685C45.5402 72.475 45.4262 72.13 45.4262 71.65V68.743H44.7872V68.068H45.4262V66.826H46.2452V68.068H47.5322V68.743H46.2452ZM48.9475 67.267C48.7915 67.267 48.6595 67.213 48.5515 67.105C48.4435 66.997 48.3895 66.865 48.3895 66.709C48.3895 66.553 48.4435 66.421 48.5515 66.313C48.6595 66.205 48.7915 66.151 48.9475 66.151C49.0975 66.151 49.2235 66.205 49.3255 66.313C49.4335 66.421 49.4875 66.553 49.4875 66.709C49.4875 66.865 49.4335 66.997 49.3255 67.105C49.2235 67.213 49.0975 67.267 48.9475 67.267ZM49.3435 68.068V73H48.5245V68.068H49.3435ZM50.4334 70.525C50.4334 70.015 50.5354 69.571 50.7394 69.193C50.9434 68.809 51.2254 68.512 51.5854 68.302C51.9514 68.092 52.3684 67.987 52.8364 67.987C53.4424 67.987 53.9404 68.134 54.3304 68.428C54.7264 68.722 54.9874 69.13 55.1134 69.652H54.2314C54.1474 69.352 53.9824 69.115 53.7364 68.941C53.4964 68.767 53.1964 68.68 52.8364 68.68C52.3684 68.68 51.9904 68.842 51.7024 69.166C51.4144 69.484 51.2704 69.937 51.2704 70.525C51.2704 71.119 51.4144 71.578 51.7024 71.902C51.9904 72.226 52.3684 72.388 52.8364 72.388C53.1964 72.388 53.4964 72.304 53.7364 72.136C53.9764 71.968 54.1414 71.728 54.2314 71.416H55.1134C54.9814 71.92 54.7174 72.325 54.3214 72.631C53.9254 72.931 53.4304 73.081 52.8364 73.081C52.3684 73.081 51.9514 72.976 51.5854 72.766C51.2254 72.556 50.9434 72.259 50.7394 71.875C50.5354 71.491 50.4334 71.041 50.4334 70.525Z" fill="#090909"/>
</svg>
