<svg width="58" height="90" viewBox="0 0 58 90" fill="none" xmlns="http://www.w3.org/2000/svg">
<rect width="58" height="58" rx="10" fill="#F8F8F8"/>
<path fill-rule="evenodd" clip-rule="evenodd" d="M21.0218 18.3929H29.363C30.7335 18.3929 32.0479 18.9373 33.017 19.9064C33.9862 20.8755 34.5306 22.19 34.5306 23.5605C34.5306 24.931 33.9862 26.2454 33.017 27.2146C32.0479 28.1837 30.7335 28.7281 29.363 28.7281H28.3541L32.0847 32.2261L36.1453 28.1671C36.2532 28.0513 36.3833 27.9585 36.5278 27.8941C36.6724 27.8296 36.8285 27.795 36.9867 27.7922C37.145 27.7894 37.3022 27.8185 37.4489 27.8778C37.5957 27.9371 37.729 28.0253 37.8409 28.1372C37.9528 28.2491 38.041 28.3824 38.1003 28.5292C38.1596 28.676 38.1887 28.8331 38.1859 28.9914C38.1831 29.1496 38.1485 29.3057 38.0841 29.4503C38.0196 29.5948 37.9268 29.725 37.811 29.8329L33.8054 33.84L37.7843 37.569C38.0069 37.7841 38.136 38.0781 38.1437 38.3876C38.1513 38.6971 38.0369 38.9971 37.8251 39.2229C37.6134 39.4487 37.3212 39.5821 37.0119 39.5943C36.7026 39.6066 36.4009 39.4966 36.172 39.2881L32.1381 35.5057L28.3824 39.2614C28.159 39.4696 27.8635 39.5829 27.5582 39.5776C27.2528 39.5722 26.9615 39.4485 26.7456 39.2325C26.5296 39.0166 26.4059 38.7253 26.4006 38.42C26.3952 38.1146 26.5085 37.8191 26.7167 37.5957L30.4174 33.8934L24.908 28.7281H22.2004V36.9781C22.2004 37.2907 22.0762 37.5905 21.8552 37.8115C21.6342 38.0325 21.3344 38.1567 21.0218 38.1567C20.7093 38.1567 20.4095 38.0325 20.1885 37.8115C19.9674 37.5905 19.8433 37.2907 19.8433 36.9781V19.5714C19.8433 19.2588 19.9674 18.9591 20.1885 18.738C20.4095 18.517 20.7093 18.3929 21.0218 18.3929ZM29.363 26.371H22.2004V20.75H29.363C30.1084 20.75 30.8232 21.0461 31.3503 21.5732C31.8774 22.1002 32.1735 22.8151 32.1735 23.5605C32.1735 24.3059 31.8774 25.0207 31.3503 25.5478C30.8232 26.0749 30.1084 26.371 29.363 26.371Z" fill="#686868"/>
<path d="M6.89677 68.563C6.89677 69.085 6.71677 69.52 6.35677 69.868C6.00277 70.21 5.45977 70.381 4.72777 70.381H3.52177V73H2.70277V66.727H4.72777C5.43577 66.727 5.97277 66.898 6.33877 67.24C6.71077 67.582 6.89677 68.023 6.89677 68.563ZM4.72777 69.706C5.18377 69.706 5.51977 69.607 5.73577 69.409C5.95177 69.211 6.05977 68.929 6.05977 68.563C6.05977 67.789 5.61577 67.402 4.72777 67.402H3.52177V69.706H4.72777ZM8.73368 68.869C8.87768 68.587 9.08168 68.368 9.34568 68.212C9.61568 68.056 9.94268 67.978 10.3267 67.978V68.824H10.1107C9.19268 68.824 8.73368 69.322 8.73368 70.318V73H7.91468V68.068H8.73368V68.869ZM15.7721 70.345C15.7721 70.501 15.7631 70.666 15.7451 70.84H11.8031C11.8331 71.326 11.9981 71.707 12.2981 71.983C12.6041 72.253 12.9731 72.388 13.4051 72.388C13.7591 72.388 14.0531 72.307 14.2871 72.145C14.5271 71.977 14.6951 71.755 14.7911 71.479H15.6731C15.5411 71.953 15.2771 72.34 14.8811 72.64C14.4851 72.934 13.9931 73.081 13.4051 73.081C12.9371 73.081 12.5171 72.976 12.1451 72.766C11.7791 72.556 11.4911 72.259 11.2811 71.875C11.0711 71.485 10.9661 71.035 10.9661 70.525C10.9661 70.015 11.0681 69.568 11.2721 69.184C11.4761 68.8 11.7611 68.506 12.1271 68.302C12.4991 68.092 12.9251 67.987 13.4051 67.987C13.8731 67.987 14.2871 68.089 14.6471 68.293C15.0071 68.497 15.2831 68.779 15.4751 69.139C15.6731 69.493 15.7721 69.895 15.7721 70.345ZM14.9261 70.174C14.9261 69.862 14.8571 69.595 14.7191 69.373C14.5811 69.145 14.3921 68.974 14.1521 68.86C13.9181 68.74 13.6571 68.68 13.3691 68.68C12.9551 68.68 12.6011 68.812 12.3071 69.076C12.0191 69.34 11.8541 69.706 11.8121 70.174H14.9261ZM18.5992 73.081C18.2212 73.081 17.8822 73.018 17.5822 72.892C17.2822 72.76 17.0452 72.58 16.8712 72.352C16.6972 72.118 16.6012 71.851 16.5832 71.551H17.4292C17.4532 71.797 17.5672 71.998 17.7712 72.154C17.9812 72.31 18.2542 72.388 18.5902 72.388C18.9022 72.388 19.1482 72.319 19.3282 72.181C19.5082 72.043 19.5982 71.869 19.5982 71.659C19.5982 71.443 19.5022 71.284 19.3102 71.182C19.1182 71.074 18.8212 70.969 18.4192 70.867C18.0532 70.771 17.7532 70.675 17.5192 70.579C17.2912 70.477 17.0932 70.33 16.9252 70.138C16.7632 69.94 16.6822 69.682 16.6822 69.364C16.6822 69.112 16.7572 68.881 16.9072 68.671C17.0572 68.461 17.2702 68.296 17.5462 68.176C17.8222 68.05 18.1372 67.987 18.4912 67.987C19.0372 67.987 19.4782 68.125 19.8142 68.401C20.1502 68.677 20.3302 69.055 20.3542 69.535H19.5352C19.5172 69.277 19.4122 69.07 19.2202 68.914C19.0342 68.758 18.7822 68.68 18.4642 68.68C18.1702 68.68 17.9362 68.743 17.7622 68.869C17.5882 68.995 17.5012 69.16 17.5012 69.364C17.5012 69.526 17.5522 69.661 17.6542 69.769C17.7622 69.871 17.8942 69.955 18.0502 70.021C18.2122 70.081 18.4342 70.15 18.7162 70.228C19.0702 70.324 19.3582 70.42 19.5802 70.516C19.8022 70.606 19.9912 70.744 20.1472 70.93C20.3092 71.116 20.3932 71.359 20.3992 71.659C20.3992 71.929 20.3242 72.172 20.1742 72.388C20.0242 72.604 19.8112 72.775 19.5352 72.901C19.2652 73.021 18.9532 73.081 18.5992 73.081ZM21.2493 70.525C21.2493 70.015 21.3513 69.571 21.5553 69.193C21.7593 68.809 22.0413 68.512 22.4013 68.302C22.7673 68.092 23.1843 67.987 23.6523 67.987C24.2583 67.987 24.7563 68.134 25.1463 68.428C25.5423 68.722 25.8033 69.13 25.9293 69.652H25.0473C24.9633 69.352 24.7983 69.115 24.5523 68.941C24.3123 68.767 24.0123 68.68 23.6523 68.68C23.1843 68.68 22.8063 68.842 22.5183 69.166C22.2303 69.484 22.0863 69.937 22.0863 70.525C22.0863 71.119 22.2303 71.578 22.5183 71.902C22.8063 72.226 23.1843 72.388 23.6523 72.388C24.0123 72.388 24.3123 72.304 24.5523 72.136C24.7923 71.968 24.9573 71.728 25.0473 71.416H25.9293C25.7973 71.92 25.5333 72.325 25.1373 72.631C24.7413 72.931 24.2463 73.081 23.6523 73.081C23.1843 73.081 22.7673 72.976 22.4013 72.766C22.0413 72.556 21.7593 72.259 21.5553 71.875C21.3513 71.491 21.2493 71.041 21.2493 70.525ZM27.8411 68.869C27.9851 68.587 28.1891 68.368 28.4531 68.212C28.7231 68.056 29.0501 67.978 29.4341 67.978V68.824H29.2181C28.3001 68.824 27.8411 69.322 27.8411 70.318V73H27.0221V68.068H27.8411V68.869ZM30.8025 67.267C30.6465 67.267 30.5145 67.213 30.4065 67.105C30.2985 66.997 30.2445 66.865 30.2445 66.709C30.2445 66.553 30.2985 66.421 30.4065 66.313C30.5145 66.205 30.6465 66.151 30.8025 66.151C30.9525 66.151 31.0785 66.205 31.1805 66.313C31.2885 66.421 31.3425 66.553 31.3425 66.709C31.3425 66.865 31.2885 66.997 31.1805 67.105C31.0785 67.213 30.9525 67.267 30.8025 67.267ZM31.1985 68.068V73H30.3795V68.068H31.1985ZM33.4134 68.977C33.5754 68.695 33.8154 68.461 34.1334 68.275C34.4574 68.083 34.8324 67.987 35.2584 67.987C35.6964 67.987 36.0924 68.092 36.4464 68.302C36.8064 68.512 37.0884 68.809 37.2924 69.193C37.4964 69.571 37.5984 70.012 37.5984 70.516C37.5984 71.014 37.4964 71.458 37.2924 71.848C37.0884 72.238 36.8064 72.541 36.4464 72.757C36.0924 72.973 35.6964 73.081 35.2584 73.081C34.8384 73.081 34.4664 72.988 34.1424 72.802C33.8244 72.61 33.5814 72.373 33.4134 72.091V75.34H32.5944V68.068H33.4134V68.977ZM36.7614 70.516C36.7614 70.144 36.6864 69.82 36.5364 69.544C36.3864 69.268 36.1824 69.058 35.9244 68.914C35.6724 68.77 35.3934 68.698 35.0874 68.698C34.7874 68.698 34.5084 68.773 34.2504 68.923C33.9984 69.067 33.7944 69.28 33.6384 69.562C33.4884 69.838 33.4134 70.159 33.4134 70.525C33.4134 70.897 33.4884 71.224 33.6384 71.506C33.7944 71.782 33.9984 71.995 34.2504 72.145C34.5084 72.289 34.7874 72.361 35.0874 72.361C35.3934 72.361 35.6724 72.289 35.9244 72.145C36.1824 71.995 36.3864 71.782 36.5364 71.506C36.6864 71.224 36.7614 70.894 36.7614 70.516ZM39.6754 68.743V71.65C39.6754 71.89 39.7264 72.061 39.8284 72.163C39.9304 72.259 40.1074 72.307 40.3594 72.307H40.9624V73H40.2244C39.7684 73 39.4264 72.895 39.1984 72.685C38.9704 72.475 38.8564 72.13 38.8564 71.65V68.743H38.2174V68.068H38.8564V66.826H39.6754V68.068H40.9624V68.743H39.6754ZM42.3777 67.267C42.2217 67.267 42.0897 67.213 41.9817 67.105C41.8737 66.997 41.8197 66.865 41.8197 66.709C41.8197 66.553 41.8737 66.421 41.9817 66.313C42.0897 66.205 42.2217 66.151 42.3777 66.151C42.5277 66.151 42.6537 66.205 42.7557 66.313C42.8637 66.421 42.9177 66.553 42.9177 66.709C42.9177 66.865 42.8637 66.997 42.7557 67.105C42.6537 67.213 42.5277 67.267 42.3777 67.267ZM42.7737 68.068V73H41.9547V68.068H42.7737ZM46.3206 73.081C45.8586 73.081 45.4386 72.976 45.0606 72.766C44.6886 72.556 44.3946 72.259 44.1786 71.875C43.9686 71.485 43.8636 71.035 43.8636 70.525C43.8636 70.021 43.9716 69.577 44.1876 69.193C44.4096 68.803 44.7096 68.506 45.0876 68.302C45.4656 68.092 45.8886 67.987 46.3566 67.987C46.8246 67.987 47.2476 68.092 47.6256 68.302C48.0036 68.506 48.3006 68.8 48.5166 69.184C48.7386 69.568 48.8496 70.015 48.8496 70.525C48.8496 71.035 48.7356 71.485 48.5076 71.875C48.2856 72.259 47.9826 72.556 47.5986 72.766C47.2146 72.976 46.7886 73.081 46.3206 73.081ZM46.3206 72.361C46.6146 72.361 46.8906 72.292 47.1486 72.154C47.4066 72.016 47.6136 71.809 47.7696 71.533C47.9316 71.257 48.0126 70.921 48.0126 70.525C48.0126 70.129 47.9346 69.793 47.7786 69.517C47.6226 69.241 47.4186 69.037 47.1666 68.905C46.9146 68.767 46.6416 68.698 46.3476 68.698C46.0476 68.698 45.7716 68.767 45.5196 68.905C45.2736 69.037 45.0756 69.241 44.9256 69.517C44.7756 69.793 44.7006 70.129 44.7006 70.525C44.7006 70.927 44.7726 71.266 44.9166 71.542C45.0666 71.818 45.2646 72.025 45.5106 72.163C45.7566 72.295 46.0266 72.361 46.3206 72.361ZM52.3294 67.978C52.9294 67.978 53.4154 68.161 53.7874 68.527C54.1594 68.887 54.3454 69.409 54.3454 70.093V73H53.5354V70.21C53.5354 69.718 53.4124 69.343 53.1664 69.085C52.9204 68.821 52.5844 68.689 52.1584 68.689C51.7264 68.689 51.3814 68.824 51.1234 69.094C50.8714 69.364 50.7454 69.757 50.7454 70.273V73H49.9264V68.068H50.7454V68.77C50.9074 68.518 51.1264 68.323 51.4024 68.185C51.6844 68.047 51.9934 67.978 52.3294 67.978ZM18.0151 80.727C18.6991 80.727 19.2901 80.856 19.7881 81.114C20.2921 81.366 20.6761 81.729 20.9401 82.203C21.2101 82.677 21.3451 83.235 21.3451 83.877C21.3451 84.519 21.2101 85.077 20.9401 85.551C20.6761 86.019 20.2921 86.379 19.7881 86.631C19.2901 86.877 18.6991 87 18.0151 87H16.0621V80.727H18.0151ZM18.0151 86.325C18.8251 86.325 19.4431 86.112 19.8691 85.686C20.2951 85.254 20.5081 84.651 20.5081 83.877C20.5081 83.097 20.2921 82.488 19.8601 82.05C19.4341 81.612 18.8191 81.393 18.0151 81.393H16.8811V86.325H18.0151ZM23.2444 82.869C23.3884 82.587 23.5924 82.368 23.8564 82.212C24.1264 82.056 24.4534 81.978 24.8374 81.978V82.824H24.6214C23.7034 82.824 23.2444 83.322 23.2444 84.318V87H22.4254V82.068H23.2444V82.869ZM30.1568 82.068V87H29.3378V86.271C29.1818 86.523 28.9628 86.721 28.6808 86.865C28.4048 87.003 28.0988 87.072 27.7628 87.072C27.3788 87.072 27.0338 86.994 26.7278 86.838C26.4218 86.676 26.1788 86.436 25.9988 86.118C25.8248 85.8 25.7378 85.413 25.7378 84.957V82.068H26.5478V84.849C26.5478 85.335 26.6708 85.71 26.9168 85.974C27.1628 86.232 27.4988 86.361 27.9248 86.361C28.3628 86.361 28.7078 86.226 28.9598 85.956C29.2118 85.686 29.3378 85.293 29.3378 84.777V82.068H30.1568ZM33.5737 81.987C33.9997 81.987 34.3717 82.08 34.6897 82.266C35.0137 82.452 35.2537 82.686 35.4097 82.968V82.068H36.2377V87.108C36.2377 87.558 36.1417 87.957 35.9497 88.305C35.7577 88.659 35.4817 88.935 35.1217 89.133C34.7677 89.331 34.3537 89.43 33.8797 89.43C33.2317 89.43 32.6917 89.277 32.2597 88.971C31.8277 88.665 31.5727 88.248 31.4947 87.72H32.3047C32.3947 88.02 32.5807 88.26 32.8627 88.44C33.1447 88.626 33.4837 88.719 33.8797 88.719C34.3297 88.719 34.6957 88.578 34.9777 88.296C35.2657 88.014 35.4097 87.618 35.4097 87.108V86.073C35.2477 86.361 35.0077 86.601 34.6897 86.793C34.3717 86.985 33.9997 87.081 33.5737 87.081C33.1357 87.081 32.7367 86.973 32.3767 86.757C32.0227 86.541 31.7437 86.238 31.5397 85.848C31.3357 85.458 31.2337 85.014 31.2337 84.516C31.2337 84.012 31.3357 83.571 31.5397 83.193C31.7437 82.809 32.0227 82.512 32.3767 82.302C32.7367 82.092 33.1357 81.987 33.5737 81.987ZM35.4097 84.525C35.4097 84.153 35.3347 83.829 35.1847 83.553C35.0347 83.277 34.8307 83.067 34.5727 82.923C34.3207 82.773 34.0417 82.698 33.7357 82.698C33.4297 82.698 33.1507 82.77 32.8987 82.914C32.6467 83.058 32.4457 83.268 32.2957 83.544C32.1457 83.82 32.0707 84.144 32.0707 84.516C32.0707 84.894 32.1457 85.224 32.2957 85.506C32.4457 85.782 32.6467 85.995 32.8987 86.145C33.1507 86.289 33.4297 86.361 33.7357 86.361C34.0417 86.361 34.3207 86.289 34.5727 86.145C34.8307 85.995 35.0347 85.782 35.1847 85.506C35.3347 85.224 35.4097 84.897 35.4097 84.525ZM39.3677 87.081C38.9897 87.081 38.6507 87.018 38.3507 86.892C38.0507 86.76 37.8137 86.58 37.6397 86.352C37.4657 86.118 37.3697 85.851 37.3517 85.551H38.1977C38.2217 85.797 38.3357 85.998 38.5397 86.154C38.7497 86.31 39.0227 86.388 39.3587 86.388C39.6707 86.388 39.9167 86.319 40.0967 86.181C40.2767 86.043 40.3667 85.869 40.3667 85.659C40.3667 85.443 40.2707 85.284 40.0787 85.182C39.8867 85.074 39.5897 84.969 39.1877 84.867C38.8217 84.771 38.5217 84.675 38.2877 84.579C38.0597 84.477 37.8617 84.33 37.6937 84.138C37.5317 83.94 37.4507 83.682 37.4507 83.364C37.4507 83.112 37.5257 82.881 37.6757 82.671C37.8257 82.461 38.0387 82.296 38.3147 82.176C38.5907 82.05 38.9057 81.987 39.2597 81.987C39.8057 81.987 40.2467 82.125 40.5827 82.401C40.9187 82.677 41.0987 83.055 41.1227 83.535H40.3037C40.2857 83.277 40.1807 83.07 39.9887 82.914C39.8027 82.758 39.5507 82.68 39.2327 82.68C38.9387 82.68 38.7047 82.743 38.5307 82.869C38.3567 82.995 38.2697 83.16 38.2697 83.364C38.2697 83.526 38.3207 83.661 38.4227 83.769C38.5307 83.871 38.6627 83.955 38.8187 84.021C38.9807 84.081 39.2027 84.15 39.4847 84.228C39.8387 84.324 40.1267 84.42 40.3487 84.516C40.5707 84.606 40.7597 84.744 40.9157 84.93C41.0777 85.116 41.1617 85.359 41.1677 85.659C41.1677 85.929 41.0927 86.172 40.9427 86.388C40.7927 86.604 40.5797 86.775 40.3037 86.901C40.0337 87.021 39.7217 87.081 39.3677 87.081Z" fill="#090909"/>
</svg>
