<svg width="58" height="88" viewBox="0 0 58 88" fill="none" xmlns="http://www.w3.org/2000/svg">
<rect width="58" height="58" rx="10" fill="#F8F8F8"/>
<path d="M34.25 18.375C33 17.125 31.375 16.5 29.875 16.5C28.375 16.5 26.625 17.125 25.5 18.375L18.25 25.375C15.75 27.875 15.75 31.75 18.25 34.25C20.75 36.75 24.625 36.75 27.125 34.25L34.25 27.125C36.625 24.75 36.625 20.75 34.25 18.375ZM32.5 25.375L29 28.875L24.5 24.5L19 30C19 29 19.25 27.875 20.125 27.125L27.25 20C27.875 19.375 28.875 19 29.75 19C30.625 19 31.625 19.375 32.375 20C33.875 21.625 33.875 23.875 32.5 25.375ZM38.5 22.875C38.5 23.875 38.25 24.75 38 25.75C39.25 27.25 39.25 29.5 37.875 30.875L34.375 34.375L32.5 32.5L29 36C27.375 37.625 25.125 38.5 23 38.5C23.25 38.875 23.5 39.25 23.875 39.625C26.375 42.125 30.25 42.125 32.75 39.625L39.875 32.5C42.375 30 42.375 26.125 39.875 23.625C39.25 23.375 38.875 23.125 38.5 22.875Z" fill="#686868"/>
<path d="M5.41141 69.859C5.41141 69.247 5.54941 68.698 5.82541 68.212C6.10141 67.72 6.47641 67.336 6.95041 67.06C7.43041 66.784 7.96141 66.646 8.54341 66.646C9.22741 66.646 9.82441 66.811 10.3344 67.141C10.8444 67.471 11.2164 67.939 11.4504 68.545H10.4694C10.2954 68.167 10.0434 67.876 9.71341 67.672C9.38941 67.468 8.99941 67.366 8.54341 67.366C8.10541 67.366 7.71241 67.468 7.36441 67.672C7.01641 67.876 6.74341 68.167 6.54541 68.545C6.34741 68.917 6.24841 69.355 6.24841 69.859C6.24841 70.357 6.34741 70.795 6.54541 71.173C6.74341 71.545 7.01641 71.833 7.36441 72.037C7.71241 72.241 8.10541 72.343 8.54341 72.343C8.99941 72.343 9.38941 72.244 9.71341 72.046C10.0434 71.842 10.2954 71.551 10.4694 71.173H11.4504C11.2164 71.773 10.8444 72.238 10.3344 72.568C9.82441 72.892 9.22741 73.054 8.54341 73.054C7.96141 73.054 7.43041 72.919 6.95041 72.649C6.47641 72.373 6.10141 71.992 5.82541 71.506C5.54941 71.02 5.41141 70.471 5.41141 69.859ZM14.8206 73.081C14.3586 73.081 13.9386 72.976 13.5606 72.766C13.1886 72.556 12.8946 72.259 12.6786 71.875C12.4686 71.485 12.3636 71.035 12.3636 70.525C12.3636 70.021 12.4716 69.577 12.6876 69.193C12.9096 68.803 13.2096 68.506 13.5876 68.302C13.9656 68.092 14.3886 67.987 14.8566 67.987C15.3246 67.987 15.7476 68.092 16.1256 68.302C16.5036 68.506 16.8006 68.8 17.0166 69.184C17.2386 69.568 17.3496 70.015 17.3496 70.525C17.3496 71.035 17.2356 71.485 17.0076 71.875C16.7856 72.259 16.4826 72.556 16.0986 72.766C15.7146 72.976 15.2886 73.081 14.8206 73.081ZM14.8206 72.361C15.1146 72.361 15.3906 72.292 15.6486 72.154C15.9066 72.016 16.1136 71.809 16.2696 71.533C16.4316 71.257 16.5126 70.921 16.5126 70.525C16.5126 70.129 16.4346 69.793 16.2786 69.517C16.1226 69.241 15.9186 69.037 15.6666 68.905C15.4146 68.767 15.1416 68.698 14.8476 68.698C14.5476 68.698 14.2716 68.767 14.0196 68.905C13.7736 69.037 13.5756 69.241 13.4256 69.517C13.2756 69.793 13.2006 70.129 13.2006 70.525C13.2006 70.927 13.2726 71.266 13.4166 71.542C13.5666 71.818 13.7646 72.025 14.0106 72.163C14.2566 72.295 14.5266 72.361 14.8206 72.361ZM20.8294 67.978C21.4294 67.978 21.9154 68.161 22.2874 68.527C22.6594 68.887 22.8454 69.409 22.8454 70.093V73H22.0354V70.21C22.0354 69.718 21.9124 69.343 21.6664 69.085C21.4204 68.821 21.0844 68.689 20.6584 68.689C20.2264 68.689 19.8814 68.824 19.6234 69.094C19.3714 69.364 19.2454 69.757 19.2454 70.273V73H18.4264V68.068H19.2454V68.77C19.4074 68.518 19.6264 68.323 19.9024 68.185C20.1844 68.047 20.4934 67.978 20.8294 67.978ZM25.1822 68.743V71.65C25.1822 71.89 25.2332 72.061 25.3352 72.163C25.4372 72.259 25.6142 72.307 25.8662 72.307H26.4692V73H25.7312C25.2752 73 24.9332 72.895 24.7052 72.685C24.4772 72.475 24.3632 72.13 24.3632 71.65V68.743H23.7242V68.068H24.3632V66.826H25.1822V68.068H26.4692V68.743H25.1822ZM28.2806 68.869C28.4246 68.587 28.6286 68.368 28.8926 68.212C29.1626 68.056 29.4896 67.978 29.8736 67.978V68.824H29.6576C28.7396 68.824 28.2806 69.322 28.2806 70.318V73H27.4616V68.068H28.2806V68.869ZM32.97 73.081C32.508 73.081 32.088 72.976 31.71 72.766C31.338 72.556 31.044 72.259 30.828 71.875C30.618 71.485 30.513 71.035 30.513 70.525C30.513 70.021 30.621 69.577 30.837 69.193C31.059 68.803 31.359 68.506 31.737 68.302C32.115 68.092 32.538 67.987 33.006 67.987C33.474 67.987 33.897 68.092 34.275 68.302C34.653 68.506 34.95 68.8 35.166 69.184C35.388 69.568 35.499 70.015 35.499 70.525C35.499 71.035 35.385 71.485 35.157 71.875C34.935 72.259 34.632 72.556 34.248 72.766C33.864 72.976 33.438 73.081 32.97 73.081ZM32.97 72.361C33.264 72.361 33.54 72.292 33.798 72.154C34.056 72.016 34.263 71.809 34.419 71.533C34.581 71.257 34.662 70.921 34.662 70.525C34.662 70.129 34.584 69.793 34.428 69.517C34.272 69.241 34.068 69.037 33.816 68.905C33.564 68.767 33.291 68.698 32.997 68.698C32.697 68.698 32.421 68.767 32.169 68.905C31.923 69.037 31.725 69.241 31.575 69.517C31.425 69.793 31.35 70.129 31.35 70.525C31.35 70.927 31.422 71.266 31.566 71.542C31.716 71.818 31.914 72.025 32.16 72.163C32.406 72.295 32.676 72.361 32.97 72.361ZM37.3948 66.34V73H36.5758V66.34H37.3948ZM39.6097 66.34V73H38.7907V66.34H39.6097ZM45.5055 70.345C45.5055 70.501 45.4965 70.666 45.4785 70.84H41.5365C41.5665 71.326 41.7315 71.707 42.0315 71.983C42.3375 72.253 42.7065 72.388 43.1385 72.388C43.4925 72.388 43.7865 72.307 44.0205 72.145C44.2605 71.977 44.4285 71.755 44.5245 71.479H45.4065C45.2745 71.953 45.0105 72.34 44.6145 72.64C44.2185 72.934 43.7265 73.081 43.1385 73.081C42.6705 73.081 42.2505 72.976 41.8785 72.766C41.5125 72.556 41.2245 72.259 41.0145 71.875C40.8045 71.485 40.6995 71.035 40.6995 70.525C40.6995 70.015 40.8015 69.568 41.0055 69.184C41.2095 68.8 41.4945 68.506 41.8605 68.302C42.2325 68.092 42.6585 67.987 43.1385 67.987C43.6065 67.987 44.0205 68.089 44.3805 68.293C44.7405 68.497 45.0165 68.779 45.2085 69.139C45.4065 69.493 45.5055 69.895 45.5055 70.345ZM44.6595 70.174C44.6595 69.862 44.5905 69.595 44.4525 69.373C44.3145 69.145 44.1255 68.974 43.8855 68.86C43.6515 68.74 43.3905 68.68 43.1025 68.68C42.6885 68.68 42.3345 68.812 42.0405 69.076C41.7525 69.34 41.5875 69.706 41.5455 70.174H44.6595ZM46.2806 70.516C46.2806 70.012 46.3826 69.571 46.5866 69.193C46.7906 68.809 47.0696 68.512 47.4236 68.302C47.7836 68.092 48.1856 67.987 48.6296 67.987C49.0136 67.987 49.3706 68.077 49.7006 68.257C50.0306 68.431 50.2826 68.662 50.4566 68.95V66.34H51.2846V73H50.4566V72.073C50.2946 72.367 50.0546 72.61 49.7366 72.802C49.4186 72.988 49.0466 73.081 48.6206 73.081C48.1826 73.081 47.7836 72.973 47.4236 72.757C47.0696 72.541 46.7906 72.238 46.5866 71.848C46.3826 71.458 46.2806 71.014 46.2806 70.516ZM50.4566 70.525C50.4566 70.153 50.3816 69.829 50.2316 69.553C50.0816 69.277 49.8776 69.067 49.6196 68.923C49.3676 68.773 49.0886 68.698 48.7826 68.698C48.4766 68.698 48.1976 68.77 47.9456 68.914C47.6936 69.058 47.4926 69.268 47.3426 69.544C47.1926 69.82 47.1176 70.144 47.1176 70.516C47.1176 70.894 47.1926 71.224 47.3426 71.506C47.4926 71.782 47.6936 71.995 47.9456 72.145C48.1976 72.289 48.4766 72.361 48.7826 72.361C49.0886 72.361 49.3676 72.289 49.6196 72.145C49.8776 71.995 50.0816 71.782 50.2316 71.506C50.3816 71.224 50.4566 70.897 50.4566 70.525ZM4.83679 87.063C4.42279 87.063 4.05079 86.991 3.72079 86.847C3.39679 86.697 3.14179 86.493 2.95579 86.235C2.76979 85.971 2.67379 85.668 2.66779 85.326H3.54079C3.57079 85.62 3.69079 85.869 3.90079 86.073C4.11679 86.271 4.42879 86.37 4.83679 86.37C5.22679 86.37 5.53279 86.274 5.75479 86.082C5.98279 85.884 6.09679 85.632 6.09679 85.326C6.09679 85.086 6.03079 84.891 5.89879 84.741C5.76679 84.591 5.60179 84.477 5.40379 84.399C5.20579 84.321 4.93879 84.237 4.60279 84.147C4.18879 84.039 3.85579 83.931 3.60379 83.823C3.35779 83.715 3.14479 83.547 2.96479 83.319C2.79079 83.085 2.70379 82.773 2.70379 82.383C2.70379 82.041 2.79079 81.738 2.96479 81.474C3.13879 81.21 3.38179 81.006 3.69379 80.862C4.01179 80.718 4.37479 80.646 4.78279 80.646C5.37079 80.646 5.85079 80.793 6.22279 81.087C6.60079 81.381 6.81379 81.771 6.86179 82.257H5.96179C5.93179 82.017 5.80579 81.807 5.58379 81.627C5.36179 81.441 5.06779 81.348 4.70179 81.348C4.35979 81.348 4.08079 81.438 3.86479 81.618C3.64879 81.792 3.54079 82.038 3.54079 82.356C3.54079 82.584 3.60379 82.77 3.72979 82.914C3.86179 83.058 4.02079 83.169 4.20679 83.247C4.39879 83.319 4.66579 83.403 5.00779 83.499C5.42179 83.613 5.75479 83.727 6.00679 83.841C6.25879 83.949 6.47479 84.12 6.65479 84.354C6.83479 84.582 6.92479 84.894 6.92479 85.29C6.92479 85.596 6.84379 85.884 6.68179 86.154C6.51979 86.424 6.27979 86.643 5.96179 86.811C5.64379 86.979 5.26879 87.063 4.83679 87.063ZM12.504 82.068V87H11.685V86.271C11.529 86.523 11.31 86.721 11.028 86.865C10.752 87.003 10.446 87.072 10.11 87.072C9.72601 87.072 9.38101 86.994 9.07501 86.838C8.76901 86.676 8.52601 86.436 8.34601 86.118C8.17201 85.8 8.08501 85.413 8.08501 84.957V82.068H8.89501V84.849C8.89501 85.335 9.01801 85.71 9.26401 85.974C9.51001 86.232 9.84601 86.361 10.272 86.361C10.71 86.361 11.055 86.226 11.307 85.956C11.559 85.686 11.685 85.293 11.685 84.777V82.068H12.504ZM14.7058 82.986C14.8738 82.692 15.1198 82.452 15.4438 82.266C15.7678 82.08 16.1368 81.987 16.5508 81.987C16.9948 81.987 17.3938 82.092 17.7478 82.302C18.1018 82.512 18.3808 82.809 18.5848 83.193C18.7888 83.571 18.8908 84.012 18.8908 84.516C18.8908 85.014 18.7888 85.458 18.5848 85.848C18.3808 86.238 18.0988 86.541 17.7388 86.757C17.3848 86.973 16.9888 87.081 16.5508 87.081C16.1248 87.081 15.7498 86.988 15.4258 86.802C15.1078 86.616 14.8678 86.379 14.7058 86.091V87H13.8868V80.34H14.7058V82.986ZM18.0538 84.516C18.0538 84.144 17.9788 83.82 17.8288 83.544C17.6788 83.268 17.4748 83.058 17.2168 82.914C16.9648 82.77 16.6858 82.698 16.3798 82.698C16.0798 82.698 15.8008 82.773 15.5428 82.923C15.2908 83.067 15.0868 83.28 14.9308 83.562C14.7808 83.838 14.7058 84.159 14.7058 84.525C14.7058 84.897 14.7808 85.224 14.9308 85.506C15.0868 85.782 15.2908 85.995 15.5428 86.145C15.8008 86.289 16.0798 86.361 16.3798 86.361C16.6858 86.361 16.9648 86.289 17.2168 86.145C17.4748 85.995 17.6788 85.782 17.8288 85.506C17.9788 85.224 18.0538 84.894 18.0538 84.516ZM21.7149 87.081C21.3369 87.081 20.9979 87.018 20.6979 86.892C20.3979 86.76 20.1609 86.58 19.9869 86.352C19.8129 86.118 19.7169 85.851 19.6989 85.551H20.5449C20.5689 85.797 20.6829 85.998 20.8869 86.154C21.0969 86.31 21.3699 86.388 21.7059 86.388C22.0179 86.388 22.2639 86.319 22.4439 86.181C22.6239 86.043 22.7139 85.869 22.7139 85.659C22.7139 85.443 22.6179 85.284 22.4259 85.182C22.2339 85.074 21.9369 84.969 21.5349 84.867C21.1689 84.771 20.8689 84.675 20.6349 84.579C20.4069 84.477 20.2089 84.33 20.0409 84.138C19.8789 83.94 19.7979 83.682 19.7979 83.364C19.7979 83.112 19.8729 82.881 20.0229 82.671C20.1729 82.461 20.3859 82.296 20.6619 82.176C20.9379 82.05 21.2529 81.987 21.6069 81.987C22.1529 81.987 22.5939 82.125 22.9299 82.401C23.2659 82.677 23.4459 83.055 23.4699 83.535H22.6509C22.6329 83.277 22.5279 83.07 22.3359 82.914C22.1499 82.758 21.8979 82.68 21.5799 82.68C21.2859 82.68 21.0519 82.743 20.8779 82.869C20.7039 82.995 20.6169 83.16 20.6169 83.364C20.6169 83.526 20.6679 83.661 20.7699 83.769C20.8779 83.871 21.0099 83.955 21.1659 84.021C21.3279 84.081 21.5499 84.15 21.8319 84.228C22.1859 84.324 22.4739 84.42 22.6959 84.516C22.9179 84.606 23.1069 84.744 23.2629 84.93C23.4249 85.116 23.5089 85.359 23.5149 85.659C23.5149 85.929 23.4399 86.172 23.2899 86.388C23.1399 86.604 22.9269 86.775 22.6509 86.901C22.3809 87.021 22.0689 87.081 21.7149 87.081ZM25.67 82.743V85.65C25.67 85.89 25.721 86.061 25.823 86.163C25.925 86.259 26.102 86.307 26.354 86.307H26.957V87H26.219C25.763 87 25.421 86.895 25.193 86.685C24.965 86.475 24.851 86.13 24.851 85.65V82.743H24.212V82.068H24.851V80.826H25.67V82.068H26.957V82.743H25.67ZM27.6433 84.516C27.6433 84.012 27.7453 83.571 27.9493 83.193C28.1533 82.809 28.4323 82.512 28.7863 82.302C29.1463 82.092 29.5453 81.987 29.9833 81.987C30.4153 81.987 30.7903 82.08 31.1083 82.266C31.4263 82.452 31.6633 82.686 31.8193 82.968V82.068H32.6473V87H31.8193V86.082C31.6573 86.37 31.4143 86.61 31.0903 86.802C30.7723 86.988 30.4003 87.081 29.9743 87.081C29.5363 87.081 29.1403 86.973 28.7863 86.757C28.4323 86.541 28.1533 86.238 27.9493 85.848C27.7453 85.458 27.6433 85.014 27.6433 84.516ZM31.8193 84.525C31.8193 84.153 31.7443 83.829 31.5943 83.553C31.4443 83.277 31.2403 83.067 30.9823 82.923C30.7303 82.773 30.4513 82.698 30.1453 82.698C29.8393 82.698 29.5603 82.77 29.3083 82.914C29.0563 83.058 28.8553 83.268 28.7053 83.544C28.5553 83.82 28.4803 84.144 28.4803 84.516C28.4803 84.894 28.5553 85.224 28.7053 85.506C28.8553 85.782 29.0563 85.995 29.3083 86.145C29.5603 86.289 29.8393 86.361 30.1453 86.361C30.4513 86.361 30.7303 86.289 30.9823 86.145C31.2403 85.995 31.4443 85.782 31.5943 85.506C31.7443 85.224 31.8193 84.897 31.8193 84.525ZM36.4344 81.978C37.0344 81.978 37.5204 82.161 37.8924 82.527C38.2644 82.887 38.4504 83.409 38.4504 84.093V87H37.6404V84.21C37.6404 83.718 37.5174 83.343 37.2714 83.085C37.0254 82.821 36.6894 82.689 36.2634 82.689C35.8314 82.689 35.4864 82.824 35.2284 83.094C34.9764 83.364 34.8504 83.757 34.8504 84.273V87H34.0314V82.068H34.8504V82.77C35.0124 82.518 35.2314 82.323 35.5074 82.185C35.7894 82.047 36.0984 81.978 36.4344 81.978ZM39.4822 84.525C39.4822 84.015 39.5842 83.571 39.7882 83.193C39.9922 82.809 40.2742 82.512 40.6342 82.302C41.0002 82.092 41.4172 81.987 41.8852 81.987C42.4912 81.987 42.9892 82.134 43.3792 82.428C43.7752 82.722 44.0362 83.13 44.1622 83.652H43.2802C43.1962 83.352 43.0312 83.115 42.7852 82.941C42.5452 82.767 42.2452 82.68 41.8852 82.68C41.4172 82.68 41.0392 82.842 40.7512 83.166C40.4632 83.484 40.3192 83.937 40.3192 84.525C40.3192 85.119 40.4632 85.578 40.7512 85.902C41.0392 86.226 41.4172 86.388 41.8852 86.388C42.2452 86.388 42.5452 86.304 42.7852 86.136C43.0252 85.968 43.1902 85.728 43.2802 85.416H44.1622C44.0302 85.92 43.7662 86.325 43.3702 86.631C42.9742 86.931 42.4792 87.081 41.8852 87.081C41.4172 87.081 41.0002 86.976 40.6342 86.766C40.2742 86.556 39.9922 86.259 39.7882 85.875C39.5842 85.491 39.4822 85.041 39.4822 84.525ZM49.755 84.345C49.755 84.501 49.746 84.666 49.728 84.84H45.786C45.816 85.326 45.981 85.707 46.281 85.983C46.587 86.253 46.956 86.388 47.388 86.388C47.742 86.388 48.036 86.307 48.27 86.145C48.51 85.977 48.678 85.755 48.774 85.479H49.656C49.524 85.953 49.26 86.34 48.864 86.64C48.468 86.934 47.976 87.081 47.388 87.081C46.92 87.081 46.5 86.976 46.128 86.766C45.762 86.556 45.474 86.259 45.264 85.875C45.054 85.485 44.949 85.035 44.949 84.525C44.949 84.015 45.051 83.568 45.255 83.184C45.459 82.8 45.744 82.506 46.11 82.302C46.482 82.092 46.908 81.987 47.388 81.987C47.856 81.987 48.27 82.089 48.63 82.293C48.99 82.497 49.266 82.779 49.458 83.139C49.656 83.493 49.755 83.895 49.755 84.345ZM48.909 84.174C48.909 83.862 48.84 83.595 48.702 83.373C48.564 83.145 48.375 82.974 48.135 82.86C47.901 82.74 47.64 82.68 47.352 82.68C46.938 82.68 46.584 82.812 46.29 83.076C46.002 83.34 45.837 83.706 45.795 84.174H48.909ZM52.5821 87.081C52.2041 87.081 51.8651 87.018 51.5651 86.892C51.2651 86.76 51.0281 86.58 50.8541 86.352C50.6801 86.118 50.5841 85.851 50.5661 85.551H51.4121C51.4361 85.797 51.5501 85.998 51.7541 86.154C51.9641 86.31 52.2371 86.388 52.5731 86.388C52.8851 86.388 53.1311 86.319 53.3111 86.181C53.4911 86.043 53.5811 85.869 53.5811 85.659C53.5811 85.443 53.4851 85.284 53.2931 85.182C53.1011 85.074 52.8041 84.969 52.4021 84.867C52.0361 84.771 51.7361 84.675 51.5021 84.579C51.2741 84.477 51.0761 84.33 50.9081 84.138C50.7461 83.94 50.6651 83.682 50.6651 83.364C50.6651 83.112 50.7401 82.881 50.8901 82.671C51.0401 82.461 51.2531 82.296 51.5291 82.176C51.8051 82.05 52.1201 81.987 52.4741 81.987C53.0201 81.987 53.4611 82.125 53.7971 82.401C54.1331 82.677 54.3131 83.055 54.3371 83.535H53.5181C53.5001 83.277 53.3951 83.07 53.2031 82.914C53.0171 82.758 52.7651 82.68 52.4471 82.68C52.1531 82.68 51.9191 82.743 51.7451 82.869C51.5711 82.995 51.4841 83.16 51.4841 83.364C51.4841 83.526 51.5351 83.661 51.6371 83.769C51.7451 83.871 51.8771 83.955 52.0331 84.021C52.1951 84.081 52.4171 84.15 52.6991 84.228C53.0531 84.324 53.3411 84.42 53.5631 84.516C53.7851 84.606 53.9741 84.744 54.1301 84.93C54.2921 85.116 54.3761 85.359 54.3821 85.659C54.3821 85.929 54.3071 86.172 54.1571 86.388C54.0071 86.604 53.7941 86.775 53.5181 86.901C53.2481 87.021 52.9361 87.081 52.5821 87.081Z" fill="#090909"/>
</svg>
