<svg width="58" height="88" viewBox="0 0 58 88" fill="none" xmlns="http://www.w3.org/2000/svg">
<rect width="58" height="58" rx="10" fill="#F8F8F8"/>
<g clip-path="url(#clip0_733_316)">
<path d="M40.8125 31.2891H42V36.0469H40.8125V31.2891ZM39.625 28.9063H40.8125V31.2891H39.625V28.9063ZM39.625 34.8594H38.4297V33.6719H37.2422V32.4766H36.0547V31.2891H34.8594V30.1016H33.6719V28.9063H32.4766V27.7188H31.2891V26.5234H28.9062V27.7188H27.7188V28.9063H30.1016V30.1016H31.2891V31.2891H32.4766V32.4766H33.6719V33.6719H34.8594V34.8594H36.0547V36.0469H37.2422V37.2422H38.4297V39.625H39.625V38.4297H40.8125V36.0469H39.625V34.8594ZM38.4297 27.7188H39.625V28.9063H38.4297V27.7188Z" fill="#686868"/>
<path d="M33.6719 39.625V38.4297H31.2891V37.2422H30.1016V36.0469H28.9062V33.6719H27.7188V28.9062H26.5312V31.2891H25.3359V36.0469H26.5312V38.4297H27.7188V39.625H28.9062V40.8125H31.2891V42H36.0547V40.8125H38.4297V39.625H33.6719ZM36.0547 26.5234H38.4297V27.7188H36.0547V26.5234ZM31.2891 25.3359H36.0547V26.5234H31.2891V25.3359ZM19.3828 40.8125H27.7188V42H19.3828V40.8125ZM22.9531 30.1016H24.1484V37.2422H22.9531V30.1016ZM20.5781 34.8594H21.7656V36.0469H20.5781V34.8594ZM21.7656 22.9531H30.1016V24.1484H31.2891V22.9531H32.4766V21.7656H33.6719V18.1953H32.4766V17H19.3828V18.1953H18.1953V21.7656H19.3828V22.9531H20.5781V25.3359H21.7656V22.9531ZM30.1016 18.1953H31.2891V21.7656H30.1016V18.1953ZM27.7188 18.1953H28.9062V21.7656H27.7188V18.1953ZM25.3359 18.1953H26.5312V21.7656H25.3359V18.1953ZM22.9531 18.1953H24.1484V21.7656H22.9531V18.1953ZM20.5781 18.1953H21.7656V21.7656H20.5781V18.1953ZM19.3828 25.3359H20.5781V26.5234H19.3828V25.3359ZM18.1953 39.625H19.3828V40.8125H18.1953V39.625Z" fill="#686868"/>
<path d="M18.1953 38.4297H22.9531V37.2422H18.1953V34.8594H20.5781V33.6719H18.1953V32.4766H20.5781V31.2891H18.1953V30.1016H22.9531V28.9063H18.1953V27.7188H17V39.625H18.1953V38.4297ZM18.1953 26.5234H19.3828V27.7188H18.1953V26.5234Z" fill="#686868"/>
</g>
<path d="M9.24257 73.063C8.66057 73.063 8.12957 72.928 7.64957 72.658C7.16957 72.382 6.78857 72.001 6.50657 71.515C6.23057 71.023 6.09257 70.471 6.09257 69.859C6.09257 69.247 6.23057 68.698 6.50657 68.212C6.78857 67.72 7.16957 67.339 7.64957 67.069C8.12957 66.793 8.66057 66.655 9.24257 66.655C9.83057 66.655 10.3646 66.793 10.8446 67.069C11.3246 67.339 11.7026 67.717 11.9786 68.203C12.2546 68.689 12.3926 69.241 12.3926 69.859C12.3926 70.477 12.2546 71.029 11.9786 71.515C11.7026 72.001 11.3246 72.382 10.8446 72.658C10.3646 72.928 9.83057 73.063 9.24257 73.063ZM9.24257 72.352C9.68057 72.352 10.0736 72.25 10.4216 72.046C10.7756 71.842 11.0516 71.551 11.2496 71.173C11.4536 70.795 11.5556 70.357 11.5556 69.859C11.5556 69.355 11.4536 68.917 11.2496 68.545C11.0516 68.167 10.7786 67.876 10.4306 67.672C10.0826 67.468 9.68657 67.366 9.24257 67.366C8.79857 67.366 8.40257 67.468 8.05457 67.672C7.70657 67.876 7.43057 68.167 7.22657 68.545C7.02857 68.917 6.92957 69.355 6.92957 69.859C6.92957 70.357 7.02857 70.795 7.22657 71.173C7.43057 71.551 7.70657 71.842 8.05457 72.046C8.40857 72.25 8.80457 72.352 9.24257 72.352ZM15.3098 72.244L16.8398 68.068H17.7128L15.7778 73H14.8238L12.8888 68.068H13.7708L15.3098 72.244ZM23.0187 70.345C23.0187 70.501 23.0097 70.666 22.9917 70.84H19.0497C19.0797 71.326 19.2447 71.707 19.5447 71.983C19.8507 72.253 20.2197 72.388 20.6517 72.388C21.0057 72.388 21.2997 72.307 21.5337 72.145C21.7737 71.977 21.9417 71.755 22.0377 71.479H22.9197C22.7877 71.953 22.5237 72.34 22.1277 72.64C21.7317 72.934 21.2397 73.081 20.6517 73.081C20.1837 73.081 19.7637 72.976 19.3917 72.766C19.0257 72.556 18.7377 72.259 18.5277 71.875C18.3177 71.485 18.2127 71.035 18.2127 70.525C18.2127 70.015 18.3147 69.568 18.5187 69.184C18.7227 68.8 19.0077 68.506 19.3737 68.302C19.7457 68.092 20.1717 67.987 20.6517 67.987C21.1197 67.987 21.5337 68.089 21.8937 68.293C22.2537 68.497 22.5297 68.779 22.7217 69.139C22.9197 69.493 23.0187 69.895 23.0187 70.345ZM22.1727 70.174C22.1727 69.862 22.1037 69.595 21.9657 69.373C21.8277 69.145 21.6387 68.974 21.3987 68.86C21.1647 68.74 20.9037 68.68 20.6157 68.68C20.2017 68.68 19.8477 68.812 19.5537 69.076C19.2657 69.34 19.1007 69.706 19.0587 70.174H22.1727ZM24.9187 68.869C25.0627 68.587 25.2667 68.368 25.5307 68.212C25.8007 68.056 26.1277 67.978 26.5117 67.978V68.824H26.2957C25.3777 68.824 24.9187 69.322 24.9187 70.318V73H24.0997V68.068H24.9187V68.869ZM30.8772 69.355V70.048H27.2862V69.355H30.8772ZM33.4132 68.743V71.65C33.4132 71.89 33.4642 72.061 33.5662 72.163C33.6682 72.259 33.8452 72.307 34.0972 72.307H34.7002V73H33.9622C33.5062 73 33.1642 72.895 32.9362 72.685C32.7082 72.475 32.5942 72.13 32.5942 71.65V68.743H31.9552V68.068H32.5942V66.826H33.4132V68.068H34.7002V68.743H33.4132ZM38.1405 67.978C38.5125 67.978 38.8485 68.059 39.1485 68.221C39.4485 68.377 39.6825 68.614 39.8505 68.932C40.0245 69.25 40.1115 69.637 40.1115 70.093V73H39.3015V70.21C39.3015 69.718 39.1785 69.343 38.9325 69.085C38.6865 68.821 38.3505 68.689 37.9245 68.689C37.4925 68.689 37.1475 68.824 36.8895 69.094C36.6375 69.364 36.5115 69.757 36.5115 70.273V73H35.6925V66.34H36.5115V68.77C36.6735 68.518 36.8955 68.323 37.1775 68.185C37.4655 68.047 37.7865 67.978 38.1405 67.978ZM45.9493 70.345C45.9493 70.501 45.9403 70.666 45.9223 70.84H41.9803C42.0103 71.326 42.1753 71.707 42.4753 71.983C42.7813 72.253 43.1503 72.388 43.5823 72.388C43.9363 72.388 44.2303 72.307 44.4643 72.145C44.7043 71.977 44.8723 71.755 44.9683 71.479H45.8503C45.7183 71.953 45.4543 72.34 45.0583 72.64C44.6623 72.934 44.1703 73.081 43.5823 73.081C43.1143 73.081 42.6943 72.976 42.3223 72.766C41.9563 72.556 41.6683 72.259 41.4583 71.875C41.2483 71.485 41.1433 71.035 41.1433 70.525C41.1433 70.015 41.2453 69.568 41.4493 69.184C41.6533 68.8 41.9383 68.506 42.3043 68.302C42.6763 68.092 43.1023 67.987 43.5823 67.987C44.0503 67.987 44.4643 68.089 44.8243 68.293C45.1843 68.497 45.4603 68.779 45.6523 69.139C45.8503 69.493 45.9493 69.895 45.9493 70.345ZM45.1033 70.174C45.1033 69.862 45.0343 69.595 44.8963 69.373C44.7583 69.145 44.5693 68.974 44.3293 68.86C44.0953 68.74 43.8343 68.68 43.5463 68.68C43.1323 68.68 42.7783 68.812 42.4843 69.076C42.1963 69.34 42.0313 69.706 41.9893 70.174H45.1033ZM50.4504 69.355V70.048H46.8594V69.355H50.4504ZM10.6673 83.859C10.6673 83.247 10.8053 82.698 11.0813 82.212C11.3573 81.72 11.7323 81.336 12.2063 81.06C12.6863 80.784 13.2173 80.646 13.7993 80.646C14.4833 80.646 15.0803 80.811 15.5903 81.141C16.1003 81.471 16.4723 81.939 16.7063 82.545H15.7253C15.5513 82.167 15.2993 81.876 14.9693 81.672C14.6453 81.468 14.2553 81.366 13.7993 81.366C13.3613 81.366 12.9683 81.468 12.6203 81.672C12.2723 81.876 11.9993 82.167 11.8013 82.545C11.6033 82.917 11.5043 83.355 11.5043 83.859C11.5043 84.357 11.6033 84.795 11.8013 85.173C11.9993 85.545 12.2723 85.833 12.6203 86.037C12.9683 86.241 13.3613 86.343 13.7993 86.343C14.2553 86.343 14.6453 86.244 14.9693 86.046C15.2993 85.842 15.5513 85.551 15.7253 85.173H16.7063C16.4723 85.773 16.1003 86.238 15.5903 86.568C15.0803 86.892 14.4833 87.054 13.7993 87.054C13.2173 87.054 12.6863 86.919 12.2063 86.649C11.7323 86.373 11.3573 85.992 11.0813 85.506C10.8053 85.02 10.6673 84.471 10.6673 83.859ZM20.0764 87.081C19.6144 87.081 19.1944 86.976 18.8164 86.766C18.4444 86.556 18.1504 86.259 17.9344 85.875C17.7244 85.485 17.6194 85.035 17.6194 84.525C17.6194 84.021 17.7274 83.577 17.9434 83.193C18.1654 82.803 18.4654 82.506 18.8434 82.302C19.2214 82.092 19.6444 81.987 20.1124 81.987C20.5804 81.987 21.0034 82.092 21.3814 82.302C21.7594 82.506 22.0564 82.8 22.2724 83.184C22.4944 83.568 22.6054 84.015 22.6054 84.525C22.6054 85.035 22.4914 85.485 22.2634 85.875C22.0414 86.259 21.7384 86.556 21.3544 86.766C20.9704 86.976 20.5444 87.081 20.0764 87.081ZM20.0764 86.361C20.3704 86.361 20.6464 86.292 20.9044 86.154C21.1624 86.016 21.3694 85.809 21.5254 85.533C21.6874 85.257 21.7684 84.921 21.7684 84.525C21.7684 84.129 21.6904 83.793 21.5344 83.517C21.3784 83.241 21.1744 83.037 20.9224 82.905C20.6704 82.767 20.3974 82.698 20.1034 82.698C19.8034 82.698 19.5274 82.767 19.2754 82.905C19.0294 83.037 18.8314 83.241 18.6814 83.517C18.5314 83.793 18.4564 84.129 18.4564 84.525C18.4564 84.927 18.5284 85.266 18.6724 85.542C18.8224 85.818 19.0204 86.025 19.2664 86.163C19.5124 86.295 19.7824 86.361 20.0764 86.361ZM28.0563 82.068V87H27.2373V86.271C27.0813 86.523 26.8623 86.721 26.5803 86.865C26.3043 87.003 25.9983 87.072 25.6623 87.072C25.2783 87.072 24.9333 86.994 24.6273 86.838C24.3213 86.676 24.0783 86.436 23.8983 86.118C23.7243 85.8 23.6373 85.413 23.6373 84.957V82.068H24.4473V84.849C24.4473 85.335 24.5703 85.71 24.8163 85.974C25.0623 86.232 25.3983 86.361 25.8243 86.361C26.2623 86.361 26.6073 86.226 26.8593 85.956C27.1113 85.686 27.2373 85.293 27.2373 84.777V82.068H28.0563ZM31.8421 81.978C32.4421 81.978 32.9281 82.161 33.3001 82.527C33.6721 82.887 33.8581 83.409 33.8581 84.093V87H33.0481V84.21C33.0481 83.718 32.9251 83.343 32.6791 83.085C32.4331 82.821 32.0971 82.689 31.6711 82.689C31.2391 82.689 30.8941 82.824 30.6361 83.094C30.3841 83.364 30.2581 83.757 30.2581 84.273V87H29.4391V82.068H30.2581V82.77C30.4201 82.518 30.6391 82.323 30.9151 82.185C31.1971 82.047 31.5061 81.978 31.8421 81.978ZM36.1949 82.743V85.65C36.1949 85.89 36.2459 86.061 36.3479 86.163C36.4499 86.259 36.6269 86.307 36.8789 86.307H37.4819V87H36.7439C36.2879 87 35.9459 86.895 35.7179 86.685C35.4899 86.475 35.3759 86.13 35.3759 85.65V82.743H34.7369V82.068H35.3759V80.826H36.1949V82.068H37.4819V82.743H36.1949ZM42.9743 84.345C42.9743 84.501 42.9653 84.666 42.9473 84.84H39.0053C39.0353 85.326 39.2003 85.707 39.5003 85.983C39.8063 86.253 40.1753 86.388 40.6073 86.388C40.9613 86.388 41.2553 86.307 41.4893 86.145C41.7293 85.977 41.8973 85.755 41.9933 85.479H42.8753C42.7433 85.953 42.4793 86.34 42.0833 86.64C41.6873 86.934 41.1953 87.081 40.6073 87.081C40.1393 87.081 39.7193 86.976 39.3473 86.766C38.9813 86.556 38.6933 86.259 38.4833 85.875C38.2733 85.485 38.1683 85.035 38.1683 84.525C38.1683 84.015 38.2703 83.568 38.4743 83.184C38.6783 82.8 38.9633 82.506 39.3293 82.302C39.7013 82.092 40.1273 81.987 40.6073 81.987C41.0753 81.987 41.4893 82.089 41.8493 82.293C42.2093 82.497 42.4853 82.779 42.6773 83.139C42.8753 83.493 42.9743 83.895 42.9743 84.345ZM42.1283 84.174C42.1283 83.862 42.0593 83.595 41.9213 83.373C41.7833 83.145 41.5943 82.974 41.3543 82.86C41.1203 82.74 40.8593 82.68 40.5713 82.68C40.1573 82.68 39.8033 82.812 39.5093 83.076C39.2213 83.34 39.0563 83.706 39.0143 84.174H42.1283ZM44.8743 82.869C45.0183 82.587 45.2223 82.368 45.4863 82.212C45.7563 82.056 46.0833 81.978 46.4673 81.978V82.824H46.2513C45.3333 82.824 44.8743 83.322 44.8743 84.318V87H44.0553V82.068H44.8743V82.869Z" fill="#090909"/>
<defs>
<clipPath id="clip0_733_316">
<rect width="25" height="25" fill="white" transform="translate(17 17)"/>
</clipPath>
</defs>
</svg>
