<svg width="58" height="86" viewBox="0 0 58 86" fill="none" xmlns="http://www.w3.org/2000/svg">
<rect width="58" height="58" rx="10" fill="#F8F8F8"/>
<path d="M25.6665 34C25.6665 36.2093 27.3332 37 28.9998 37C30.6665 37 32.3332 36.2093 32.3332 34C32.3332 31.7907 28.9998 29 28.9998 29C28.9998 29 25.6665 31.7907 25.6665 34ZM25.0905 15.6667H32.9092C34.1358 15.6667 34.7518 15.6667 35.1332 16.0573C35.8438 16.7853 35.8438 19.8813 35.1332 20.6093C34.7505 21 34.1372 21 32.9092 21H25.0905C23.8638 21 23.2492 21 22.8665 20.6093C22.1558 19.8813 22.1558 16.7853 22.8665 16.0573C23.2478 15.6667 23.8625 15.6667 25.0905 15.6667Z" stroke="#686868" stroke-width="2" stroke-linecap="round" stroke-linejoin="round"/>
<path d="M23.6667 21C23.8177 21.2843 23.9538 21.5763 24.0747 21.8747C24.2759 22.4274 24.3528 23.0177 24.2998 23.6036C24.2468 24.1894 24.0652 24.7564 23.768 25.264C23.5959 25.5356 23.4099 25.7982 23.2107 26.0507L22.6733 26.7693C22.0733 27.5693 21.7733 27.9693 21.556 28.408C21.3363 28.8508 21.1793 29.322 21.0893 29.808C21 30.2867 21 30.7867 21 31.7893V34.3333C21 38.104 21 39.9907 22.172 41.1613C23.3427 42.3333 25.2293 42.3333 29 42.3333C32.7707 42.3333 34.6573 42.3333 35.828 41.1613C37 39.9907 37 38.104 37 34.3333V31.7893C37 30.7893 37 30.288 36.9107 29.8067C36.8207 29.3206 36.6637 28.8495 36.444 28.4067C36.2267 27.9693 35.9267 27.5693 35.3267 26.7693L34.7893 26.052C34.5897 25.7996 34.4032 25.537 34.2307 25.2653C33.9333 24.7575 33.7516 24.1903 33.6986 23.6043C33.6456 23.0182 33.7226 22.4276 33.924 21.8747C34.004 21.66 34.1133 21.44 34.3333 21" stroke="#686868" stroke-width="2" stroke-linecap="round" stroke-linejoin="round"/>
<path d="M18.4071 73.063C17.9931 73.063 17.6211 72.991 17.2911 72.847C16.9671 72.697 16.7121 72.493 16.5261 72.235C16.3401 71.971 16.2441 71.668 16.2381 71.326H17.1111C17.1411 71.62 17.2611 71.869 17.4711 72.073C17.6871 72.271 17.9991 72.37 18.4071 72.37C18.7971 72.37 19.1031 72.274 19.3251 72.082C19.5531 71.884 19.6671 71.632 19.6671 71.326C19.6671 71.086 19.6011 70.891 19.4691 70.741C19.3371 70.591 19.1721 70.477 18.9741 70.399C18.7761 70.321 18.5091 70.237 18.1731 70.147C17.7591 70.039 17.4261 69.931 17.1741 69.823C16.9281 69.715 16.7151 69.547 16.5351 69.319C16.3611 69.085 16.2741 68.773 16.2741 68.383C16.2741 68.041 16.3611 67.738 16.5351 67.474C16.7091 67.21 16.9521 67.006 17.2641 66.862C17.5821 66.718 17.9451 66.646 18.3531 66.646C18.9411 66.646 19.4211 66.793 19.7931 67.087C20.1711 67.381 20.3841 67.771 20.4321 68.257H19.5321C19.5021 68.017 19.3761 67.807 19.1541 67.627C18.9321 67.441 18.6381 67.348 18.2721 67.348C17.9301 67.348 17.6511 67.438 17.4351 67.618C17.2191 67.792 17.1111 68.038 17.1111 68.356C17.1111 68.584 17.1741 68.77 17.3001 68.914C17.4321 69.058 17.5911 69.169 17.7771 69.247C17.9691 69.319 18.2361 69.403 18.5781 69.499C18.9921 69.613 19.3251 69.727 19.5771 69.841C19.8291 69.949 20.0451 70.12 20.2251 70.354C20.4051 70.582 20.4951 70.894 20.4951 71.29C20.4951 71.596 20.4141 71.884 20.2521 72.154C20.0901 72.424 19.8501 72.643 19.5321 72.811C19.2141 72.979 18.8391 73.063 18.4071 73.063ZM25.9483 68.068L22.9783 75.322H22.1323L23.1043 72.946L21.1153 68.068H22.0243L23.5723 72.064L25.1023 68.068H25.9483ZM27.5906 68.869C27.7346 68.587 27.9386 68.368 28.2026 68.212C28.4726 68.056 28.7996 67.978 29.1836 67.978V68.824H28.9676C28.0496 68.824 27.5906 69.322 27.5906 70.318V73H26.7716V68.068H27.5906V68.869ZM34.503 68.068V73H33.684V72.271C33.528 72.523 33.309 72.721 33.027 72.865C32.751 73.003 32.445 73.072 32.109 73.072C31.725 73.072 31.38 72.994 31.074 72.838C30.768 72.676 30.525 72.436 30.345 72.118C30.171 71.8 30.084 71.413 30.084 70.957V68.068H30.894V70.849C30.894 71.335 31.017 71.71 31.263 71.974C31.509 72.232 31.845 72.361 32.271 72.361C32.709 72.361 33.054 72.226 33.306 71.956C33.558 71.686 33.684 71.293 33.684 70.777V68.068H34.503ZM36.7049 68.977C36.8669 68.695 37.1069 68.461 37.4249 68.275C37.7489 68.083 38.1239 67.987 38.5499 67.987C38.9879 67.987 39.3839 68.092 39.7379 68.302C40.0979 68.512 40.3799 68.809 40.5839 69.193C40.7879 69.571 40.8899 70.012 40.8899 70.516C40.8899 71.014 40.7879 71.458 40.5839 71.848C40.3799 72.238 40.0979 72.541 39.7379 72.757C39.3839 72.973 38.9879 73.081 38.5499 73.081C38.1299 73.081 37.7579 72.988 37.4339 72.802C37.1159 72.61 36.8729 72.373 36.7049 72.091V75.34H35.8859V68.068H36.7049V68.977ZM40.0529 70.516C40.0529 70.144 39.9779 69.82 39.8279 69.544C39.6779 69.268 39.4739 69.058 39.2159 68.914C38.9639 68.77 38.6849 68.698 38.3789 68.698C38.0789 68.698 37.7999 68.773 37.5419 68.923C37.2899 69.067 37.0859 69.28 36.9299 69.562C36.7799 69.838 36.7049 70.159 36.7049 70.525C36.7049 70.897 36.7799 71.224 36.9299 71.506C37.0859 71.782 37.2899 71.995 37.5419 72.145C37.7999 72.289 38.0789 72.361 38.3789 72.361C38.6849 72.361 38.9639 72.289 39.2159 72.145C39.4739 71.995 39.6779 71.782 39.8279 71.506C39.9779 71.224 40.0529 70.894 40.0529 70.516Z" fill="#090909"/>
</svg>
