<svg width="103" height="27" viewBox="0 0 103 27" fill="none" xmlns="http://www.w3.org/2000/svg">
<rect x="0.5" y="0.5" width="102" height="26" rx="13" stroke="#36A5FF"/>
<path d="M25.2083 7.125C25.3889 7.1252 25.5625 7.19433 25.6938 7.31827C25.8251 7.4422 25.9041 7.61159 25.9147 7.79182C25.9252 7.97205 25.8666 8.14952 25.7507 8.28796C25.6349 8.42641 25.4705 8.51538 25.2912 8.53671L25.2083 8.54167H19.5417V18.4583H29.4583V12.7917C29.4585 12.6111 29.5277 12.4375 29.6516 12.3062C29.7755 12.1749 29.9449 12.0959 30.1252 12.0853C30.3054 12.0748 30.4829 12.1334 30.6213 12.2493C30.7597 12.3651 30.8487 12.5295 30.87 12.7088L30.875 12.7917V18.4583C30.8751 18.8157 30.7401 19.16 30.4971 19.4221C30.2541 19.6841 29.921 19.8447 29.5646 19.8715L29.4583 19.875H19.5417C19.1843 19.8751 18.84 19.7401 18.5779 19.4971C18.3159 19.2541 18.1553 18.921 18.1285 18.5646L18.125 18.4583V8.54167C18.1249 8.18426 18.2599 7.84002 18.5029 7.57795C18.7459 7.31588 19.079 7.15535 19.4354 7.12854L19.5417 7.125H25.2083ZM29.6305 7.36796C29.7579 7.24092 29.929 7.16716 30.1089 7.16167C30.2887 7.15618 30.464 7.21936 30.5989 7.33838C30.7339 7.45741 30.8185 7.62335 30.8356 7.8025C30.8527 7.98166 30.8009 8.16059 30.6908 8.30296L30.632 8.37025L23.6195 15.382C23.4921 15.5091 23.321 15.5828 23.1411 15.5883C22.9613 15.5938 22.786 15.5306 22.6511 15.4116C22.5161 15.2926 22.4315 15.1267 22.4144 14.9475C22.3973 14.7683 22.4491 14.5894 22.5592 14.447L22.618 14.3805L29.6305 7.36796Z" fill="black"/>
<path d="M37.68 10.77V13.1H40.22V13.85H37.68V16.25H40.52V17H36.77V10.02H40.52V10.77H37.68ZM41.557 14.24C41.557 13.68 41.6703 13.19 41.897 12.77C42.1236 12.3433 42.4336 12.0133 42.827 11.78C43.227 11.5467 43.6736 11.43 44.167 11.43C44.5936 11.43 44.9903 11.53 45.357 11.73C45.7236 11.9233 46.0036 12.18 46.197 12.5V9.6H47.117V17H46.197V15.97C46.017 16.2967 45.7503 16.5667 45.397 16.78C45.0436 16.9867 44.6303 17.09 44.157 17.09C43.6703 17.09 43.227 16.97 42.827 16.73C42.4336 16.49 42.1236 16.1533 41.897 15.72C41.6703 15.2867 41.557 14.7933 41.557 14.24ZM46.197 14.25C46.197 13.8367 46.1136 13.4767 45.947 13.17C45.7803 12.8633 45.5536 12.63 45.267 12.47C44.987 12.3033 44.677 12.22 44.337 12.22C43.997 12.22 43.687 12.3 43.407 12.46C43.127 12.62 42.9036 12.8533 42.737 13.16C42.5703 13.4667 42.487 13.8267 42.487 14.24C42.487 14.66 42.5703 15.0267 42.737 15.34C42.9036 15.6467 43.127 15.8833 43.407 16.05C43.687 16.21 43.997 16.29 44.337 16.29C44.677 16.29 44.987 16.21 45.267 16.05C45.5536 15.8833 45.7803 15.6467 45.947 15.34C46.1136 15.0267 46.197 14.6633 46.197 14.25ZM49.1248 10.63C48.9514 10.63 48.8048 10.57 48.6848 10.45C48.5648 10.33 48.5048 10.1833 48.5048 10.01C48.5048 9.83667 48.5648 9.69 48.6848 9.57C48.8048 9.45 48.9514 9.39 49.1248 9.39C49.2914 9.39 49.4314 9.45 49.5448 9.57C49.6648 9.69 49.7248 9.83667 49.7248 10.01C49.7248 10.1833 49.6648 10.33 49.5448 10.45C49.4314 10.57 49.2914 10.63 49.1248 10.63ZM49.5648 11.52V17H48.6548V11.52H49.5648ZM52.2257 12.27V15.5C52.2257 15.7667 52.2824 15.9567 52.3957 16.07C52.509 16.1767 52.7057 16.23 52.9857 16.23H53.6557V17H52.8357C52.329 17 51.949 16.8833 51.6957 16.65C51.4424 16.4167 51.3157 16.0333 51.3157 15.5V12.27H50.6057V11.52H51.3157V10.14H52.2257V11.52H53.6557V12.27H52.2257ZM62.0843 12.07C62.0843 12.65 61.8843 13.1333 61.4843 13.52C61.091 13.9 60.4876 14.09 59.6743 14.09H58.3343V17H57.4243V10.03H59.6743C60.461 10.03 61.0576 10.22 61.4643 10.6C61.8776 10.98 62.0843 11.47 62.0843 12.07ZM59.6743 13.34C60.181 13.34 60.5543 13.23 60.7943 13.01C61.0343 12.79 61.1543 12.4767 61.1543 12.07C61.1543 11.21 60.661 10.78 59.6743 10.78H58.3343V13.34H59.6743ZM64.1253 12.41C64.2853 12.0967 64.512 11.8533 64.8053 11.68C65.1053 11.5067 65.4686 11.42 65.8953 11.42V12.36H65.6553C64.6353 12.36 64.1253 12.9133 64.1253 14.02V17H63.2153V11.52H64.1253V12.41ZM69.3358 17.09C68.8224 17.09 68.3558 16.9733 67.9358 16.74C67.5224 16.5067 67.1958 16.1767 66.9558 15.75C66.7224 15.3167 66.6058 14.8167 66.6058 14.25C66.6058 13.69 66.7258 13.1967 66.9658 12.77C67.2124 12.3367 67.5458 12.0067 67.9658 11.78C68.3858 11.5467 68.8558 11.43 69.3758 11.43C69.8958 11.43 70.3658 11.5467 70.7858 11.78C71.2058 12.0067 71.5358 12.3333 71.7758 12.76C72.0224 13.1867 72.1458 13.6833 72.1458 14.25C72.1458 14.8167 72.0191 15.3167 71.7658 15.75C71.5191 16.1767 71.1824 16.5067 70.7558 16.74C70.3291 16.9733 69.8558 17.09 69.3358 17.09ZM69.3358 16.29C69.6624 16.29 69.9691 16.2133 70.2558 16.06C70.5424 15.9067 70.7724 15.6767 70.9458 15.37C71.1258 15.0633 71.2158 14.69 71.2158 14.25C71.2158 13.81 71.1291 13.4367 70.9558 13.13C70.7824 12.8233 70.5558 12.5967 70.2758 12.45C69.9958 12.2967 69.6924 12.22 69.3658 12.22C69.0324 12.22 68.7258 12.2967 68.4458 12.45C68.1724 12.5967 67.9524 12.8233 67.7858 13.13C67.6191 13.4367 67.5358 13.81 67.5358 14.25C67.5358 14.6967 67.6158 15.0733 67.7758 15.38C67.9424 15.6867 68.1624 15.9167 68.4358 16.07C68.7091 16.2167 69.0091 16.29 69.3358 16.29ZM75.5723 12.27H74.4223V17H73.5123V12.27H72.8023V11.52H73.5123V11.13C73.5123 10.5167 73.6689 10.07 73.9823 9.79C74.3023 9.50333 74.8123 9.36 75.5123 9.36V10.12C75.1123 10.12 74.8289 10.2 74.6623 10.36C74.5023 10.5133 74.4223 10.77 74.4223 11.13V11.52H75.5723V12.27ZM77.1033 10.63C76.9299 10.63 76.7833 10.57 76.6633 10.45C76.5433 10.33 76.4833 10.1833 76.4833 10.01C76.4833 9.83667 76.5433 9.69 76.6633 9.57C76.7833 9.45 76.9299 9.39 77.1033 9.39C77.2699 9.39 77.4099 9.45 77.5233 9.57C77.6433 9.69 77.7033 9.83667 77.7033 10.01C77.7033 10.1833 77.6433 10.33 77.5233 10.45C77.4099 10.57 77.2699 10.63 77.1033 10.63ZM77.5433 11.52V17H76.6333V11.52H77.5433ZM80.0042 9.6V17H79.0942V9.6H80.0042ZM86.5552 14.05C86.5552 14.2233 86.5452 14.4067 86.5252 14.6H82.1452C82.1785 15.14 82.3618 15.5633 82.6952 15.87C83.0352 16.17 83.4452 16.32 83.9252 16.32C84.3185 16.32 84.6452 16.23 84.9052 16.05C85.1718 15.8633 85.3585 15.6167 85.4652 15.31H86.4452C86.2985 15.8367 86.0052 16.2667 85.5652 16.6C85.1252 16.9267 84.5785 17.09 83.9252 17.09C83.4052 17.09 82.9385 16.9733 82.5252 16.74C82.1185 16.5067 81.7985 16.1767 81.5652 15.75C81.3318 15.3167 81.2152 14.8167 81.2152 14.25C81.2152 13.6833 81.3285 13.1867 81.5552 12.76C81.7818 12.3333 82.0985 12.0067 82.5052 11.78C82.9185 11.5467 83.3918 11.43 83.9252 11.43C84.4452 11.43 84.9052 11.5433 85.3052 11.77C85.7052 11.9967 86.0118 12.31 86.2252 12.71C86.4452 13.1033 86.5552 13.55 86.5552 14.05ZM85.6152 13.86C85.6152 13.5133 85.5385 13.2167 85.3852 12.97C85.2318 12.7167 85.0218 12.5267 84.7552 12.4C84.4952 12.2667 84.2052 12.2 83.8852 12.2C83.4252 12.2 83.0318 12.3467 82.7052 12.64C82.3852 12.9333 82.2018 13.34 82.1552 13.86H85.6152Z" fill="black"/>
</svg>
