<svg width="359" height="49" viewBox="0 0 359 49" fill="none" xmlns="http://www.w3.org/2000/svg">
<rect x="1" y="1" width="357" height="47" rx="23.5" stroke="#36A5FF" stroke-width="2"/>
<path d="M158.328 29L155.906 24.912H154.1V29H153.12V19.214H156.06C157.152 19.214 157.978 19.4753 158.538 19.998C159.107 20.5207 159.392 21.2067 159.392 22.056C159.392 22.7653 159.187 23.372 158.776 23.876C158.375 24.3707 157.777 24.6927 156.984 24.842L159.504 29H158.328ZM154.1 24.114H156.074C156.839 24.114 157.413 23.9273 157.796 23.554C158.188 23.1807 158.384 22.6813 158.384 22.056C158.384 21.412 158.197 20.9173 157.824 20.572C157.451 20.2173 156.863 20.04 156.06 20.04H154.1V24.114ZM168.253 24.786C168.253 25.122 168.243 25.3787 168.225 25.556H161.883C161.911 26.1347 162.051 26.6293 162.303 27.04C162.555 27.4507 162.886 27.7633 163.297 27.978C163.707 28.1833 164.155 28.286 164.641 28.286C165.275 28.286 165.807 28.132 166.237 27.824C166.675 27.516 166.965 27.1007 167.105 26.578H168.141C167.954 27.3247 167.553 27.936 166.937 28.412C166.33 28.8787 165.565 29.112 164.641 29.112C163.922 29.112 163.278 28.9533 162.709 28.636C162.139 28.3093 161.691 27.852 161.365 27.264C161.047 26.6667 160.889 25.9713 160.889 25.178C160.889 24.3847 161.047 23.6893 161.365 23.092C161.682 22.4947 162.125 22.0373 162.695 21.72C163.264 21.4027 163.913 21.244 164.641 21.244C165.369 21.244 166.003 21.4027 166.545 21.72C167.095 22.0373 167.515 22.4667 167.805 23.008C168.103 23.54 168.253 24.1327 168.253 24.786ZM167.259 24.758C167.268 24.1887 167.151 23.7033 166.909 23.302C166.675 22.9007 166.353 22.5973 165.943 22.392C165.532 22.1867 165.084 22.084 164.599 22.084C163.871 22.084 163.25 22.3173 162.737 22.784C162.223 23.2507 161.939 23.9087 161.883 24.758H167.259ZM173.252 21.244C173.97 21.244 174.596 21.412 175.128 21.748C175.66 22.084 176.042 22.5087 176.276 23.022V21.356H177.256V29.196C177.256 29.896 177.102 30.5167 176.794 31.058C176.495 31.5993 176.075 32.0147 175.534 32.304C174.992 32.6027 174.376 32.752 173.686 32.752C172.706 32.752 171.889 32.5187 171.236 32.052C170.592 31.5853 170.19 30.9507 170.032 30.148H170.998C171.166 30.68 171.483 31.1047 171.95 31.422C172.426 31.7393 173.004 31.898 173.686 31.898C174.18 31.898 174.624 31.7907 175.016 31.576C175.408 31.3707 175.716 31.0627 175.94 30.652C176.164 30.2413 176.276 29.756 176.276 29.196V27.306C176.033 27.8287 175.646 28.2627 175.114 28.608C174.591 28.944 173.97 29.112 173.252 29.112C172.552 29.112 171.922 28.9487 171.362 28.622C170.811 28.2953 170.377 27.8333 170.06 27.236C169.752 26.6387 169.598 25.948 169.598 25.164C169.598 24.38 169.752 23.694 170.06 23.106C170.377 22.5087 170.811 22.0513 171.362 21.734C171.922 21.4073 172.552 21.244 173.252 21.244ZM176.276 25.178C176.276 24.562 176.15 24.0207 175.898 23.554C175.646 23.0873 175.3 22.728 174.862 22.476C174.432 22.224 173.956 22.098 173.434 22.098C172.892 22.098 172.407 22.2193 171.978 22.462C171.548 22.7047 171.208 23.0593 170.956 23.526C170.713 23.9833 170.592 24.5293 170.592 25.164C170.592 25.7893 170.713 26.34 170.956 26.816C171.208 27.2827 171.548 27.642 171.978 27.894C172.407 28.1367 172.892 28.258 173.434 28.258C173.956 28.258 174.432 28.132 174.862 27.88C175.3 27.628 175.646 27.2687 175.898 26.802C176.15 26.3353 176.276 25.794 176.276 25.178ZM179.983 19.914C179.787 19.914 179.619 19.844 179.479 19.704C179.339 19.564 179.269 19.3913 179.269 19.186C179.269 18.9807 179.339 18.8127 179.479 18.682C179.619 18.542 179.787 18.472 179.983 18.472C180.179 18.472 180.347 18.542 180.487 18.682C180.627 18.8127 180.697 18.9807 180.697 19.186C180.697 19.3913 180.627 19.564 180.487 19.704C180.347 19.844 180.179 19.914 179.983 19.914ZM180.473 21.356V29H179.493V21.356H180.473ZM185.324 29.112C184.447 29.112 183.728 28.9113 183.168 28.51C182.618 28.0993 182.31 27.544 182.244 26.844H183.252C183.299 27.2733 183.5 27.6233 183.854 27.894C184.218 28.1553 184.704 28.286 185.31 28.286C185.842 28.286 186.258 28.16 186.556 27.908C186.864 27.656 187.018 27.3433 187.018 26.97C187.018 26.7087 186.934 26.494 186.766 26.326C186.598 26.158 186.384 26.0273 186.122 25.934C185.87 25.8313 185.525 25.724 185.086 25.612C184.517 25.4627 184.055 25.3133 183.7 25.164C183.346 25.0147 183.042 24.7953 182.79 24.506C182.548 24.2073 182.426 23.8107 182.426 23.316C182.426 22.9427 182.538 22.5973 182.762 22.28C182.986 21.9627 183.304 21.7107 183.714 21.524C184.125 21.3373 184.592 21.244 185.114 21.244C185.936 21.244 186.598 21.454 187.102 21.874C187.606 22.2847 187.877 22.854 187.914 23.582H186.934C186.906 23.134 186.729 22.7747 186.402 22.504C186.085 22.224 185.646 22.084 185.086 22.084C184.592 22.084 184.19 22.2007 183.882 22.434C183.574 22.6673 183.42 22.9567 183.42 23.302C183.42 23.6007 183.509 23.848 183.686 24.044C183.873 24.2307 184.102 24.38 184.372 24.492C184.643 24.5947 185.007 24.7113 185.464 24.842C186.015 24.9913 186.454 25.136 186.78 25.276C187.107 25.416 187.387 25.6213 187.62 25.892C187.854 26.1627 187.975 26.522 187.984 26.97C187.984 27.3807 187.872 27.7493 187.648 28.076C187.424 28.3933 187.112 28.6453 186.71 28.832C186.309 29.0187 185.847 29.112 185.324 29.112ZM191.103 22.182V26.928C191.103 27.3947 191.192 27.7167 191.369 27.894C191.546 28.0713 191.859 28.16 192.307 28.16H193.203V29H192.153C191.462 29 190.949 28.8413 190.613 28.524C190.277 28.1973 190.109 27.6653 190.109 26.928V22.182H189.045V21.356H190.109V19.438H191.103V21.356H193.203V22.182H191.103ZM201.735 24.786C201.735 25.122 201.726 25.3787 201.707 25.556H195.365C195.393 26.1347 195.533 26.6293 195.785 27.04C196.037 27.4507 196.369 27.7633 196.779 27.978C197.19 28.1833 197.638 28.286 198.123 28.286C198.758 28.286 199.29 28.132 199.719 27.824C200.158 27.516 200.447 27.1007 200.587 26.578H201.623C201.437 27.3247 201.035 27.936 200.419 28.412C199.813 28.8787 199.047 29.112 198.123 29.112C197.405 29.112 196.761 28.9533 196.191 28.636C195.622 28.3093 195.174 27.852 194.847 27.264C194.53 26.6667 194.371 25.9713 194.371 25.178C194.371 24.3847 194.53 23.6893 194.847 23.092C195.165 22.4947 195.608 22.0373 196.177 21.72C196.747 21.4027 197.395 21.244 198.123 21.244C198.851 21.244 199.486 21.4027 200.027 21.72C200.578 22.0373 200.998 22.4667 201.287 23.008C201.586 23.54 201.735 24.1327 201.735 24.786ZM200.741 24.758C200.751 24.1887 200.634 23.7033 200.391 23.302C200.158 22.9007 199.836 22.5973 199.425 22.392C199.015 22.1867 198.567 22.084 198.081 22.084C197.353 22.084 196.733 22.3173 196.219 22.784C195.706 23.2507 195.421 23.9087 195.365 24.758H200.741ZM204.508 22.714C204.723 22.238 205.05 21.8693 205.488 21.608C205.936 21.3467 206.482 21.216 207.126 21.216V22.238H206.86C206.151 22.238 205.582 22.4293 205.152 22.812C204.723 23.1947 204.508 23.834 204.508 24.73V29H203.528V21.356H204.508V22.714Z" fill="black"/>
</svg>
