<svg width="16" height="18" viewBox="0 0 16 18" fill="none" xmlns="http://www.w3.org/2000/svg">
<path d="M1.38004 6.00487L0.919293 5.79263L0.919001 5.79327L1.38004 6.00487ZM3.22754 4.0549L2.89744 3.66972L2.89735 3.6698L3.22754 4.0549ZM4.24209 3.18542L3.91215 2.80011L3.91199 2.80024L4.24209 3.18542ZM12.1657 3.18441L12.4958 2.79923L12.4958 2.79918L12.1657 3.18441ZM13.1803 4.05388L13.5107 3.66894L13.5104 3.6687L13.1803 4.05388ZM15.0268 6.00385L14.5657 6.21545L14.566 6.21609L15.0268 6.00385ZM10.233 17.0371C10.233 17.3173 10.4601 17.5444 10.7403 17.5444C11.0205 17.5444 11.2476 17.3173 11.2476 17.0371H10.7403H10.233ZM5.16027 17.0371C5.16027 17.3173 5.38738 17.5444 5.66755 17.5444C5.94771 17.5444 6.17482 17.3173 6.17482 17.0371H5.66755H5.16027ZM1.10205 8.6772H1.60933C1.60933 7.2531 1.62014 6.69785 1.84108 6.21646L1.38004 6.00487L0.919001 5.79327C0.583964 6.52326 0.594774 7.34577 0.594774 8.6772H1.10205ZM1.38004 6.00487L1.84078 6.2171C2.06254 5.7357 2.4764 5.36715 3.55773 4.44L3.22754 4.0549L2.89735 3.6698C1.88667 4.53637 1.25554 5.06266 0.919294 5.79263L1.38004 6.00487ZM3.22754 4.0549L3.55764 4.44008L4.57219 3.5706L4.24209 3.18542L3.91199 2.80024L2.89744 3.66972L3.22754 4.0549ZM4.24209 3.18542L4.57204 3.57074C5.5283 2.75189 6.2094 2.16896 6.79004 1.78503C7.35875 1.40899 7.77821 1.26082 8.20392 1.26082V0.75354V0.246264C7.50348 0.246264 6.88809 0.503911 6.23046 0.938751C5.58476 1.3657 4.84802 1.99872 3.91215 2.80011L4.24209 3.18542ZM8.20392 0.75354V1.26082C8.62982 1.26082 9.04961 1.40889 9.61834 1.78463C10.199 2.16824 10.8801 2.7509 11.8357 3.56963L12.1657 3.18441L12.4958 2.79918C11.5603 1.99767 10.8235 1.3649 10.1776 0.938137C9.51974 0.503509 8.90417 0.246264 8.20392 0.246264V0.75354ZM12.1657 3.18441L11.8356 3.56959L12.8502 4.43906L13.1803 4.05388L13.5104 3.6687L12.4958 2.79923L12.1657 3.18441ZM13.1803 4.05388L12.8499 4.43882C13.9308 5.36653 14.345 5.73455 14.5657 6.21545L15.0268 6.00385L15.4878 5.79225C15.1526 5.06178 14.5197 4.53496 13.5107 3.66894L13.1803 4.05388ZM15.0268 6.00385L14.566 6.21609C14.7876 6.69715 14.7985 7.25196 14.7985 8.67618H15.3058H15.8131C15.8131 7.34488 15.8239 6.52193 15.4875 5.79162L15.0268 6.00385ZM15.3058 8.67618H14.7985V12.9789H15.3058H15.8131V8.67618H15.3058ZM15.3058 12.9789H14.7985C14.7985 13.95 14.7974 14.627 14.7287 15.1377C14.662 15.6338 14.5399 15.8965 14.3526 16.0839L14.7113 16.4426L15.07 16.8013C15.4771 16.3941 15.6523 15.8818 15.7342 15.273C15.8141 14.6789 15.8131 13.9213 15.8131 12.9789H15.3058ZM14.7113 16.4426L14.3526 16.0839C14.1652 16.2713 13.9024 16.3933 13.4064 16.46C12.8956 16.5288 12.2187 16.5298 11.2476 16.5298V17.0371V17.5444C12.1899 17.5444 12.9475 17.5455 13.5416 17.4655C14.1504 17.3836 14.6628 17.2084 15.07 16.8013L14.7113 16.4426ZM11.2476 17.0371V16.5298H5.16026V17.0371V17.5444H11.2476V17.0371ZM5.16026 17.0371V16.5298C4.18918 16.5298 3.5122 16.5288 3.00146 16.46C2.50541 16.3933 2.24265 16.2713 2.05528 16.0839L1.69658 16.4426L1.33788 16.8013C1.74503 17.2084 2.2574 17.3836 2.86619 17.4655C3.4603 17.5455 4.21789 17.5444 5.16026 17.5444V17.0371ZM1.69658 16.4426L2.05528 16.0839C1.8679 15.8965 1.74585 15.6338 1.67911 15.1377C1.61041 14.627 1.60933 13.95 1.60933 12.9789H1.10205H0.594774C0.594774 13.9213 0.593696 14.6789 0.673619 15.273C0.755519 15.8818 0.930728 16.3941 1.33788 16.8013L1.69658 16.4426ZM1.10205 12.9789H1.60933V8.6772H1.10205H0.594774V12.9789H1.10205ZM10.7403 17.0371H11.2476V11.9643H10.7403H10.233V17.0371H10.7403ZM10.7403 11.9643H11.2476C11.2476 11.5607 11.0872 11.1736 10.8019 10.8882L10.4432 11.2469L10.0845 11.6056C10.1796 11.7008 10.233 11.8298 10.233 11.9643H10.7403ZM10.4432 11.2469L10.8019 10.8882C10.5165 10.6029 10.1294 10.4425 9.72576 10.4425V10.9498V11.4571C9.86029 11.4571 9.98932 11.5105 10.0845 11.6056L10.4432 11.2469ZM9.72576 10.9498V10.4425H6.6821V10.9498V11.4571H9.72576V10.9498ZM6.6821 10.9498V10.4425C6.27848 10.4425 5.8914 10.6028 5.606 10.8882L5.9647 11.2469L6.3234 11.6056C6.41853 11.5105 6.54756 11.4571 6.6821 11.4571V10.9498ZM5.9647 11.2469L5.606 10.8882C5.3206 11.1736 5.16027 11.5607 5.16027 11.9643H5.66755H6.17482C6.17482 11.8298 6.22827 11.7008 6.3234 11.6056L5.9647 11.2469ZM5.66755 11.9643H5.16027V17.0371H5.66755H6.17482V11.9643H5.66755Z" fill="black"/>
</svg>
