<svg width="12" height="14" viewBox="0 0 12 14" fill="none" xmlns="http://www.w3.org/2000/svg">
<path fill-rule="evenodd" clip-rule="evenodd" d="M6.1645 12.9793C6.93125 12.2836 7.64086 11.5274 8.2865 10.718C9.6465 9.00934 10.4738 7.32468 10.5298 5.82668C10.552 5.21787 10.4512 4.61085 10.2335 4.04186C10.0158 3.47288 9.6857 2.95361 9.26283 2.51507C8.83997 2.07653 8.33305 1.72772 7.77236 1.48948C7.21167 1.25124 6.60871 1.12845 5.9995 1.12845C5.3903 1.12845 4.78734 1.25124 4.22665 1.48948C3.66596 1.72772 3.15904 2.07653 2.73617 2.51507C2.31331 2.95361 1.98317 3.47288 1.76548 4.04186C1.54779 4.61085 1.44701 5.21787 1.46917 5.82668C1.52584 7.32468 2.35384 9.00934 3.71317 10.718C4.35881 11.5274 5.06843 12.2836 5.83517 12.9793C5.90895 13.046 5.96384 13.0945 5.99984 13.1247L6.1645 12.9793ZM5.50784 13.756C5.50784 13.756 0.666504 9.67868 0.666504 5.66668C0.666504 4.25219 1.22841 2.89563 2.2286 1.89544C3.2288 0.895247 4.58535 0.333344 5.99984 0.333344C7.41433 0.333344 8.77088 0.895247 9.77107 1.89544C10.7713 2.89563 11.3332 4.25219 11.3332 5.66668C11.3332 9.67868 6.49184 13.756 6.49184 13.756C6.2225 14.004 5.77917 14.0013 5.50784 13.756ZM5.99984 7.53334C6.49491 7.53334 6.9697 7.33668 7.31977 6.98661C7.66984 6.63654 7.8665 6.16175 7.8665 5.66668C7.8665 5.17161 7.66984 4.69681 7.31977 4.34674C6.9697 3.99668 6.49491 3.80001 5.99984 3.80001C5.50477 3.80001 5.02997 3.99668 4.6799 4.34674C4.32984 4.69681 4.13317 5.17161 4.13317 5.66668C4.13317 6.16175 4.32984 6.63654 4.6799 6.98661C5.02997 7.33668 5.50477 7.53334 5.99984 7.53334ZM5.99984 8.33334C5.29259 8.33334 4.61432 8.05239 4.11422 7.5523C3.61412 7.0522 3.33317 6.37392 3.33317 5.66668C3.33317 4.95943 3.61412 4.28116 4.11422 3.78106C4.61432 3.28096 5.29259 3.00001 5.99984 3.00001C6.70708 3.00001 7.38536 3.28096 7.88546 3.78106C8.38555 4.28116 8.6665 4.95943 8.6665 5.66668C8.6665 6.37392 8.38555 7.0522 7.88546 7.5523C7.38536 8.05239 6.70708 8.33334 5.99984 8.33334Z" fill="#7D7D7D"/>
</svg>
