<svg width="12" height="14" viewBox="0 0 12 14" fill="none" xmlns="http://www.w3.org/2000/svg">
<path fill-rule="evenodd" clip-rule="evenodd" d="M6.1645 12.9793C6.93125 12.2836 7.64086 11.5274 8.2865 10.718C9.6465 9.00931 10.4738 7.32465 10.5298 5.82665C10.552 5.21784 10.4512 4.61082 10.2335 4.04183C10.0158 3.47285 9.6857 2.95358 9.26283 2.51504C8.83997 2.0765 8.33305 1.72769 7.77236 1.48945C7.21167 1.25121 6.60871 1.12842 5.9995 1.12842C5.3903 1.12842 4.78734 1.25121 4.22665 1.48945C3.66596 1.72769 3.15904 2.0765 2.73617 2.51504C2.31331 2.95358 1.98317 3.47285 1.76548 4.04183C1.54779 4.61082 1.44701 5.21784 1.46917 5.82665C1.52584 7.32465 2.35384 9.00931 3.71317 10.718C4.35881 11.5274 5.06843 12.2836 5.83517 12.9793C5.90895 13.046 5.96384 13.0944 5.99984 13.1246L6.1645 12.9793ZM5.50784 13.756C5.50784 13.756 0.666504 9.67865 0.666504 5.66665C0.666504 4.25216 1.22841 2.8956 2.2286 1.89541C3.2288 0.895216 4.58535 0.333313 5.99984 0.333313C7.41433 0.333313 8.77088 0.895216 9.77107 1.89541C10.7713 2.8956 11.3332 4.25216 11.3332 5.66665C11.3332 9.67865 6.49184 13.756 6.49184 13.756C6.2225 14.004 5.77917 14.0013 5.50784 13.756ZM5.99984 7.53331C6.49491 7.53331 6.9697 7.33665 7.31977 6.98658C7.66984 6.63651 7.8665 6.16172 7.8665 5.66665C7.8665 5.17158 7.66984 4.69678 7.31977 4.34671C6.9697 3.99665 6.49491 3.79998 5.99984 3.79998C5.50477 3.79998 5.02997 3.99665 4.6799 4.34671C4.32984 4.69678 4.13317 5.17158 4.13317 5.66665C4.13317 6.16172 4.32984 6.63651 4.6799 6.98658C5.02997 7.33665 5.50477 7.53331 5.99984 7.53331ZM5.99984 8.33331C5.29259 8.33331 4.61432 8.05236 4.11422 7.55226C3.61412 7.05217 3.33317 6.37389 3.33317 5.66665C3.33317 4.9594 3.61412 4.28113 4.11422 3.78103C4.61432 3.28093 5.29259 2.99998 5.99984 2.99998C6.70708 2.99998 7.38536 3.28093 7.88546 3.78103C8.38555 4.28113 8.6665 4.9594 8.6665 5.66665C8.6665 6.37389 8.38555 7.05217 7.88546 7.55226C7.38536 8.05236 6.70708 8.33331 5.99984 8.33331Z" fill="#848484"/>
</svg>
