<svg width="169" height="169" viewBox="0 0 169 169" fill="none" xmlns="http://www.w3.org/2000/svg">
<rect x="0.5" y="0.5" width="168" height="168" rx="6.5" fill="#F7F7F7"/>
<rect x="0.5" y="0.5" width="168" height="168" rx="6.5" stroke="#36A5FF"/>
<path d="M12.75 71.525V89H11V71.525H12.75ZM16.9379 71.525H18.9629L16.7629 76.925H15.4879L16.9379 71.525ZM37.8945 75.1C39.4945 75.1 40.7945 75.6083 41.7945 76.625C42.8112 77.625 43.3195 79.0833 43.3195 81V89H41.5945V81.2C41.5945 79.7167 41.2362 78.5833 40.5195 77.8C39.8029 77.0167 38.8279 76.625 37.5945 76.625C36.3112 76.625 35.2862 77.05 34.5195 77.9C33.7529 78.75 33.3695 79.9833 33.3695 81.6V89H31.6445V81.2C31.6445 79.7167 31.2862 78.5833 30.5695 77.8C29.8529 77.0167 28.8695 76.625 27.6195 76.625C26.3362 76.625 25.3112 77.05 24.5445 77.9C23.7779 78.75 23.3945 79.9833 23.3945 81.6V89H21.6445V75.35H23.3945V77.7C23.8279 76.85 24.4445 76.2083 25.2445 75.775C26.0445 75.325 26.9362 75.1 27.9195 75.1C29.1029 75.1 30.1362 75.3833 31.0195 75.95C31.9195 76.5167 32.5695 77.35 32.9695 78.45C33.3362 77.3667 33.9612 76.5417 34.8445 75.975C35.7445 75.3917 36.7612 75.1 37.8945 75.1ZM53.2664 82.15C53.2664 80.75 53.5414 79.525 54.0914 78.475C54.6581 77.4083 55.4331 76.5917 56.4164 76.025C57.4164 75.4417 58.5414 75.15 59.7914 75.15C61.0914 75.15 62.2081 75.45 63.1414 76.05C64.0914 76.65 64.7747 77.4167 65.1914 78.35V75.35H66.9414V89H65.1914V85.975C64.7581 86.9083 64.0664 87.6833 63.1164 88.3C62.1831 88.9 61.0664 89.2 59.7664 89.2C58.5331 89.2 57.4164 88.9083 56.4164 88.325C55.4331 87.7417 54.6581 86.9167 54.0914 85.85C53.5414 84.7833 53.2664 83.55 53.2664 82.15ZM65.1914 82.175C65.1914 81.075 64.9664 80.1083 64.5164 79.275C64.0664 78.4417 63.4497 77.8 62.6664 77.35C61.8997 76.9 61.0497 76.675 60.1164 76.675C59.1497 76.675 58.2831 76.8917 57.5164 77.325C56.7497 77.7583 56.1414 78.3917 55.6914 79.225C55.2581 80.0417 55.0414 81.0167 55.0414 82.15C55.0414 83.2667 55.2581 84.25 55.6914 85.1C56.1414 85.9333 56.7497 86.575 57.5164 87.025C58.2831 87.4583 59.1497 87.675 60.1164 87.675C61.0497 87.675 61.8997 87.45 62.6664 87C63.4497 86.55 64.0664 85.9083 64.5164 85.075C64.9664 84.2417 65.1914 83.275 65.1914 82.175ZM12.725 105.35C13.1583 104.433 13.8417 103.675 14.775 103.075C15.725 102.458 16.85 102.15 18.15 102.15C19.3833 102.15 20.4917 102.442 21.475 103.025C22.475 103.592 23.25 104.408 23.8 105.475C24.3667 106.525 24.65 107.75 24.65 109.15C24.65 110.55 24.3667 111.783 23.8 112.85C23.25 113.917 22.475 114.742 21.475 115.325C20.4917 115.908 19.3833 116.2 18.15 116.2C16.8667 116.2 15.75 115.9 14.8 115.3C13.85 114.683 13.1583 113.917 12.725 113V122.45H11V102.35H12.725V105.35ZM22.875 109.15C22.875 108.017 22.65 107.042 22.2 106.225C21.7667 105.392 21.1667 104.758 20.4 104.325C19.6333 103.892 18.7667 103.675 17.8 103.675C16.8667 103.675 16.0083 103.9 15.225 104.35C14.4583 104.8 13.85 105.442 13.4 106.275C12.95 107.108 12.725 108.075 12.725 109.175C12.725 110.275 12.95 111.242 13.4 112.075C13.85 112.908 14.4583 113.55 15.225 114C16.0083 114.45 16.8667 114.675 17.8 114.675C18.7667 114.675 19.6333 114.458 20.4 114.025C21.1667 113.575 21.7667 112.933 22.2 112.1C22.65 111.25 22.875 110.267 22.875 109.15ZM34.3701 102.1C35.4035 102.1 36.3285 102.317 37.1451 102.75C37.9785 103.183 38.6285 103.85 39.0951 104.75C39.5785 105.633 39.8201 106.717 39.8201 108V116H38.0951V108.2C38.0951 106.717 37.7201 105.583 36.9701 104.8C36.2368 104.017 35.2285 103.625 33.9451 103.625C32.6285 103.625 31.5785 104.042 30.7951 104.875C30.0118 105.708 29.6201 106.933 29.6201 108.55V116H27.8701V97.5H29.6201V104.675C30.0535 103.858 30.6868 103.225 31.5201 102.775C32.3701 102.325 33.3201 102.1 34.3701 102.1ZM42.8904 109.15C42.8904 107.75 43.1654 106.525 43.7154 105.475C44.2821 104.408 45.0571 103.592 46.0404 103.025C47.0404 102.442 48.1654 102.15 49.4154 102.15C50.7154 102.15 51.8321 102.45 52.7654 103.05C53.7154 103.65 54.3988 104.417 54.8154 105.35V102.35H56.5654V116H54.8154V112.975C54.3821 113.908 53.6904 114.683 52.7404 115.3C51.8071 115.9 50.6904 116.2 49.3904 116.2C48.1571 116.2 47.0404 115.908 46.0404 115.325C45.0571 114.742 44.2821 113.917 43.7154 112.85C43.1654 111.783 42.8904 110.55 42.8904 109.15ZM54.8154 109.175C54.8154 108.075 54.5904 107.108 54.1404 106.275C53.6904 105.442 53.0738 104.8 52.2904 104.35C51.5238 103.9 50.6738 103.675 49.7404 103.675C48.7738 103.675 47.9071 103.892 47.1404 104.325C46.3738 104.758 45.7654 105.392 45.3154 106.225C44.8821 107.042 44.6654 108.017 44.6654 109.15C44.6654 110.267 44.8821 111.25 45.3154 112.1C45.7654 112.933 46.3738 113.575 47.1404 114.025C47.9071 114.458 48.7738 114.675 49.7404 114.675C50.6738 114.675 51.5238 114.45 52.2904 114C53.0738 113.55 53.6904 112.908 54.1404 112.075C54.5904 111.242 54.8154 110.275 54.8154 109.175ZM62.3105 104.775C62.6939 103.925 63.2772 103.267 64.0605 102.8C64.8605 102.333 65.8355 102.1 66.9855 102.1V103.925H66.5105C65.2439 103.925 64.2272 104.267 63.4605 104.95C62.6939 105.633 62.3105 106.775 62.3105 108.375V116H60.5605V102.35H62.3105V104.775ZM85.8682 102.1C87.4682 102.1 88.7682 102.608 89.7682 103.625C90.7848 104.625 91.2932 106.083 91.2932 108V116H89.5682V108.2C89.5682 106.717 89.2098 105.583 88.4932 104.8C87.7765 104.017 86.8015 103.625 85.5682 103.625C84.2848 103.625 83.2598 104.05 82.4932 104.9C81.7265 105.75 81.3432 106.983 81.3432 108.6V116H79.6182V108.2C79.6182 106.717 79.2598 105.583 78.5432 104.8C77.8265 104.017 76.8432 103.625 75.5932 103.625C74.3098 103.625 73.2848 104.05 72.5182 104.9C71.7515 105.75 71.3682 106.983 71.3682 108.6V116H69.6182V102.35H71.3682V104.7C71.8015 103.85 72.4182 103.208 73.2182 102.775C74.0182 102.325 74.9098 102.1 75.8932 102.1C77.0765 102.1 78.1098 102.383 78.9932 102.95C79.8932 103.517 80.5432 104.35 80.9432 105.45C81.3098 104.367 81.9348 103.542 82.8182 102.975C83.7182 102.392 84.7348 102.1 85.8682 102.1ZM94.3797 109.15C94.3797 107.75 94.6547 106.525 95.2047 105.475C95.7714 104.408 96.5464 103.592 97.5297 103.025C98.5297 102.442 99.6547 102.15 100.905 102.15C102.205 102.15 103.321 102.45 104.255 103.05C105.205 103.65 105.888 104.417 106.305 105.35V102.35H108.055V116H106.305V112.975C105.871 113.908 105.18 114.683 104.23 115.3C103.296 115.9 102.18 116.2 100.88 116.2C99.6464 116.2 98.5297 115.908 97.5297 115.325C96.5464 114.742 95.7714 113.917 95.2047 112.85C94.6547 111.783 94.3797 110.55 94.3797 109.15ZM106.305 109.175C106.305 108.075 106.08 107.108 105.63 106.275C105.18 105.442 104.563 104.8 103.78 104.35C103.013 103.9 102.163 103.675 101.23 103.675C100.263 103.675 99.3964 103.892 98.6297 104.325C97.863 104.758 97.2547 105.392 96.8047 106.225C96.3714 107.042 96.1547 108.017 96.1547 109.15C96.1547 110.267 96.3714 111.25 96.8047 112.1C97.2547 112.933 97.863 113.575 98.6297 114.025C99.3964 114.458 100.263 114.675 101.23 114.675C102.163 114.675 103.013 114.45 103.78 114C104.563 113.55 105.18 112.908 105.63 112.075C106.08 111.242 106.305 110.275 106.305 109.175ZM111.25 109.175C111.25 107.758 111.533 106.525 112.1 105.475C112.666 104.408 113.45 103.592 114.45 103.025C115.45 102.442 116.591 102.15 117.875 102.15C119.558 102.15 120.941 102.567 122.025 103.4C123.125 104.233 123.833 105.367 124.15 106.8H122.275C122.041 105.817 121.533 105.05 120.75 104.5C119.983 103.933 119.025 103.65 117.875 103.65C116.958 103.65 116.133 103.858 115.4 104.275C114.666 104.692 114.083 105.317 113.65 106.15C113.233 106.967 113.025 107.975 113.025 109.175C113.025 110.375 113.233 111.392 113.65 112.225C114.083 113.058 114.666 113.683 115.4 114.1C116.133 114.517 116.958 114.725 117.875 114.725C119.025 114.725 119.983 114.45 120.75 113.9C121.533 113.333 122.041 112.55 122.275 111.55H124.15C123.833 112.95 123.125 114.075 122.025 114.925C120.925 115.775 119.541 116.2 117.875 116.2C116.591 116.2 115.45 115.917 114.45 115.35C113.45 114.767 112.666 113.95 112.1 112.9C111.533 111.833 111.25 110.592 111.25 109.175ZM138.632 102.35L130.532 122.425H128.707L131.357 115.925L125.757 102.35H127.682L132.332 114L136.832 102.35H138.632Z" fill="black"/>
<path d="M12.705 139.091C12.1157 139.091 11.6 138.987 11.158 138.779C10.716 138.571 10.3693 138.289 10.118 137.934C9.87533 137.579 9.73667 137.184 9.702 136.751H10.313C10.3823 137.228 10.6033 137.652 10.976 138.025C11.3573 138.398 11.9337 138.584 12.705 138.584C13.1557 138.584 13.5457 138.502 13.875 138.337C14.213 138.172 14.473 137.947 14.655 137.661C14.837 137.375 14.928 137.059 14.928 136.712C14.928 136.27 14.8197 135.919 14.603 135.659C14.395 135.399 14.1307 135.204 13.81 135.074C13.498 134.944 13.0733 134.805 12.536 134.658C11.9467 134.502 11.47 134.346 11.106 134.19C10.7507 134.034 10.4473 133.796 10.196 133.475C9.95333 133.146 9.832 132.699 9.832 132.136C9.832 131.703 9.94467 131.308 10.17 130.953C10.404 130.589 10.7333 130.303 11.158 130.095C11.5827 129.887 12.0723 129.783 12.627 129.783C13.433 129.783 14.083 129.982 14.577 130.381C15.071 130.78 15.3657 131.269 15.461 131.85H14.837C14.785 131.616 14.668 131.378 14.486 131.135C14.3127 130.892 14.0613 130.693 13.732 130.537C13.4113 130.372 13.0257 130.29 12.575 130.29C11.9683 130.29 11.457 130.459 11.041 130.797C10.625 131.126 10.417 131.568 10.417 132.123C10.417 132.565 10.5253 132.92 10.742 133.189C10.9587 133.449 11.223 133.648 11.535 133.787C11.8557 133.917 12.2847 134.051 12.822 134.19C13.42 134.355 13.8923 134.515 14.239 134.671C14.5943 134.818 14.8933 135.057 15.136 135.386C15.3873 135.707 15.513 136.144 15.513 136.699C15.513 137.106 15.4047 137.492 15.188 137.856C14.9713 138.22 14.6507 138.519 14.226 138.753C13.81 138.978 13.303 139.091 12.705 139.091ZM17.5632 130.368C17.4246 130.368 17.3076 130.325 17.2122 130.238C17.1169 130.143 17.0692 130.017 17.0692 129.861C17.0692 129.714 17.1169 129.592 17.2122 129.497C17.3076 129.402 17.4246 129.354 17.5632 129.354C17.7019 129.354 17.8189 129.402 17.9142 129.497C18.0096 129.592 18.0572 129.714 18.0572 129.861C18.0572 130.017 18.0096 130.143 17.9142 130.238C17.8189 130.325 17.7019 130.368 17.5632 130.368ZM17.8492 131.941V139H17.2642V131.941H17.8492ZM23.0357 131.85C23.7811 131.85 24.4137 132.032 24.9337 132.396C25.4537 132.751 25.8177 133.211 26.0257 133.774V131.941H26.6107V139.221C26.6107 139.871 26.4677 140.439 26.1817 140.924C25.8957 141.418 25.5101 141.795 25.0247 142.055C24.5394 142.324 23.9977 142.458 23.3997 142.458C22.5157 142.458 21.7834 142.246 21.2027 141.821C20.6221 141.396 20.2407 140.824 20.0587 140.105H20.6437C20.8171 140.668 21.1421 141.115 21.6187 141.444C22.0954 141.782 22.6891 141.951 23.3997 141.951C23.8937 141.951 24.3401 141.838 24.7387 141.613C25.1374 141.396 25.4494 141.08 25.6747 140.664C25.9087 140.257 26.0257 139.776 26.0257 139.221V137.154C25.8177 137.717 25.4494 138.185 24.9207 138.558C24.4007 138.922 23.7724 139.104 23.0357 139.104C22.3771 139.104 21.7877 138.957 21.2677 138.662C20.7564 138.359 20.3534 137.934 20.0587 137.388C19.7727 136.833 19.6297 136.192 19.6297 135.464C19.6297 134.736 19.7727 134.099 20.0587 133.553C20.3534 133.007 20.7564 132.587 21.2677 132.292C21.7877 131.997 22.3771 131.85 23.0357 131.85ZM26.0257 135.464C26.0257 134.849 25.8957 134.307 25.6357 133.839C25.3844 133.362 25.0377 132.998 24.5957 132.747C24.1537 132.487 23.6597 132.357 23.1137 132.357C22.5417 132.357 22.0391 132.483 21.6057 132.734C21.1724 132.977 20.8344 133.332 20.5917 133.8C20.3491 134.268 20.2277 134.823 20.2277 135.464C20.2277 136.105 20.3491 136.66 20.5917 137.128C20.8344 137.596 21.1724 137.956 21.6057 138.207C22.0477 138.458 22.5504 138.584 23.1137 138.584C23.6597 138.584 24.1537 138.458 24.5957 138.207C25.0464 137.947 25.3974 137.583 25.6487 137.115C25.9001 136.638 26.0257 136.088 26.0257 135.464ZM31.9258 131.798C32.7665 131.798 33.4511 132.058 33.9798 132.578C34.5085 133.089 34.7728 133.852 34.7728 134.866V139H34.2008V134.905C34.2008 134.064 33.9885 133.423 33.5638 132.981C33.1391 132.53 32.5628 132.305 31.8348 132.305C31.0721 132.305 30.4611 132.548 30.0018 133.033C29.5511 133.518 29.3258 134.238 29.3258 135.191V139H28.7408V131.941H29.3258V133.436C29.5251 132.907 29.8545 132.504 30.3138 132.227C30.7818 131.941 31.3191 131.798 31.9258 131.798ZM41.0424 129.874V135.581C41.0424 136.612 41.2764 137.371 41.7444 137.856C42.2124 138.333 42.8494 138.571 43.6554 138.571C44.4527 138.571 45.081 138.333 45.5404 137.856C45.9997 137.379 46.2294 136.621 46.2294 135.581V129.874H46.8144V135.568C46.8144 136.755 46.5284 137.639 45.9564 138.22C45.3844 138.801 44.6174 139.091 43.6554 139.091C42.6934 139.091 41.9177 138.801 41.3284 138.22C40.7477 137.631 40.4574 136.747 40.4574 135.568V129.874H41.0424ZM49.4733 133.8C49.6726 133.228 50.0323 132.76 50.5523 132.396C51.0809 132.032 51.7179 131.85 52.4633 131.85C53.1219 131.85 53.7069 131.997 54.2183 132.292C54.7383 132.587 55.1413 133.007 55.4273 133.553C55.7219 134.099 55.8693 134.736 55.8693 135.464C55.8693 136.192 55.7219 136.833 55.4273 137.388C55.1413 137.934 54.7383 138.359 54.2183 138.662C53.7069 138.957 53.1219 139.104 52.4633 139.104C51.7266 139.104 51.0939 138.922 50.5653 138.558C50.0453 138.185 49.6813 137.717 49.4733 137.154V142.328H48.8883V131.941H49.4733V133.8ZM55.2713 135.464C55.2713 134.823 55.1499 134.268 54.9073 133.8C54.6646 133.332 54.3223 132.977 53.8803 132.734C53.4469 132.483 52.9443 132.357 52.3723 132.357C51.8263 132.357 51.3323 132.487 50.8903 132.747C50.4483 132.998 50.1016 133.362 49.8503 133.839C49.5989 134.307 49.4733 134.849 49.4733 135.464C49.4733 136.088 49.5989 136.638 49.8503 137.115C50.1016 137.583 50.4483 137.947 50.8903 138.207C51.3323 138.458 51.8263 138.584 52.3723 138.584C52.9443 138.584 53.4469 138.458 53.8803 138.207C54.3223 137.956 54.6646 137.596 54.9073 137.128C55.1499 136.66 55.2713 136.105 55.2713 135.464ZM64.4113 139.104C63.7526 139.104 63.1589 138.957 62.6303 138.662C62.1016 138.367 61.6856 137.947 61.3823 137.401C61.0876 136.846 60.9403 136.201 60.9403 135.464C60.9403 134.736 61.0919 134.099 61.3953 133.553C61.6986 132.998 62.1146 132.578 62.6433 132.292C63.1806 131.997 63.7786 131.85 64.4373 131.85C65.0959 131.85 65.6896 131.997 66.2183 132.292C66.7469 132.578 67.1586 132.994 67.4533 133.54C67.7566 134.086 67.9083 134.727 67.9083 135.464C67.9083 136.201 67.7566 136.846 67.4533 137.401C67.1499 137.947 66.7296 138.367 66.1923 138.662C65.6636 138.957 65.0699 139.104 64.4113 139.104ZM64.4113 138.584C64.9226 138.584 65.3993 138.471 65.8413 138.246C66.2919 138.012 66.6516 137.661 66.9203 137.193C67.1889 136.725 67.3233 136.149 67.3233 135.464C67.3233 134.788 67.1889 134.216 66.9203 133.748C66.6516 133.28 66.2963 132.933 65.8543 132.708C65.4123 132.474 64.9356 132.357 64.4243 132.357C63.9129 132.357 63.4363 132.474 62.9943 132.708C62.5609 132.933 62.2099 133.28 61.9413 133.748C61.6726 134.216 61.5383 134.788 61.5383 135.464C61.5383 136.149 61.6683 136.725 61.9283 137.193C62.1969 137.661 62.5479 138.012 62.9813 138.246C63.4233 138.471 63.8999 138.584 64.4113 138.584ZM70.2682 133.397C70.4415 132.877 70.7492 132.483 71.1912 132.214C71.6332 131.937 72.1965 131.798 72.8812 131.798V132.409H72.6862C71.9929 132.409 71.4165 132.608 70.9572 133.007C70.4979 133.397 70.2682 134.038 70.2682 134.931V139H69.6832V131.941H70.2682V133.397ZM78.4821 138.506H81.8751V139H77.8971V129.874H78.4821V138.506ZM86.3107 139.104C85.652 139.104 85.0584 138.957 84.5297 138.662C84.001 138.367 83.585 137.947 83.2817 137.401C82.987 136.846 82.8397 136.201 82.8397 135.464C82.8397 134.736 82.9914 134.099 83.2947 133.553C83.598 132.998 84.014 132.578 84.5427 132.292C85.08 131.997 85.678 131.85 86.3367 131.85C86.9954 131.85 87.589 131.997 88.1177 132.292C88.6464 132.578 89.058 132.994 89.3527 133.54C89.656 134.086 89.8077 134.727 89.8077 135.464C89.8077 136.201 89.656 136.846 89.3527 137.401C89.0494 137.947 88.629 138.367 88.0917 138.662C87.563 138.957 86.9694 139.104 86.3107 139.104ZM86.3107 138.584C86.822 138.584 87.2987 138.471 87.7407 138.246C88.1914 138.012 88.551 137.661 88.8197 137.193C89.0884 136.725 89.2227 136.149 89.2227 135.464C89.2227 134.788 89.0884 134.216 88.8197 133.748C88.551 133.28 88.1957 132.933 87.7537 132.708C87.3117 132.474 86.835 132.357 86.3237 132.357C85.8124 132.357 85.3357 132.474 84.8937 132.708C84.4604 132.933 84.1094 133.28 83.8407 133.748C83.572 134.216 83.4377 134.788 83.4377 135.464C83.4377 136.149 83.5677 136.725 83.8277 137.193C84.0964 137.661 84.4474 138.012 84.8807 138.246C85.3227 138.471 85.7994 138.584 86.3107 138.584ZM94.6246 131.85C95.3699 131.85 96.0026 132.032 96.5226 132.396C97.0426 132.751 97.4066 133.211 97.6146 133.774V131.941H98.1996V139.221C98.1996 139.871 98.0566 140.439 97.7706 140.924C97.4846 141.418 97.0989 141.795 96.6136 142.055C96.1283 142.324 95.5866 142.458 94.9886 142.458C94.1046 142.458 93.3723 142.246 92.7916 141.821C92.2109 141.396 91.8296 140.824 91.6476 140.105H92.2326C92.4059 140.668 92.7309 141.115 93.2076 141.444C93.6843 141.782 94.2779 141.951 94.9886 141.951C95.4826 141.951 95.9289 141.838 96.3276 141.613C96.7263 141.396 97.0383 141.08 97.2636 140.664C97.4976 140.257 97.6146 139.776 97.6146 139.221V137.154C97.4066 137.717 97.0383 138.185 96.5096 138.558C95.9896 138.922 95.3613 139.104 94.6246 139.104C93.9659 139.104 93.3766 138.957 92.8566 138.662C92.3453 138.359 91.9423 137.934 91.6476 137.388C91.3616 136.833 91.2186 136.192 91.2186 135.464C91.2186 134.736 91.3616 134.099 91.6476 133.553C91.9423 133.007 92.3453 132.587 92.8566 132.292C93.3766 131.997 93.9659 131.85 94.6246 131.85ZM97.6146 135.464C97.6146 134.849 97.4846 134.307 97.2246 133.839C96.9733 133.362 96.6266 132.998 96.1846 132.747C95.7426 132.487 95.2486 132.357 94.7026 132.357C94.1306 132.357 93.6279 132.483 93.1946 132.734C92.7613 132.977 92.4233 133.332 92.1806 133.8C91.9379 134.268 91.8166 134.823 91.8166 135.464C91.8166 136.105 91.9379 136.66 92.1806 137.128C92.4233 137.596 92.7613 137.956 93.1946 138.207C93.6366 138.458 94.1393 138.584 94.7026 138.584C95.2486 138.584 95.7426 138.458 96.1846 138.207C96.6353 137.947 96.9863 137.583 97.2376 137.115C97.4889 136.638 97.6146 136.088 97.6146 135.464ZM100.629 130.368C100.49 130.368 100.373 130.325 100.278 130.238C100.182 130.143 100.135 130.017 100.135 129.861C100.135 129.714 100.182 129.592 100.278 129.497C100.373 129.402 100.49 129.354 100.629 129.354C100.767 129.354 100.884 129.402 100.98 129.497C101.075 129.592 101.123 129.714 101.123 129.861C101.123 130.017 101.075 130.143 100.98 130.238C100.884 130.325 100.767 130.368 100.629 130.368ZM100.915 131.941V139H100.33V131.941H100.915ZM106.244 131.798C107.085 131.798 107.769 132.058 108.298 132.578C108.827 133.089 109.091 133.852 109.091 134.866V139H108.519V134.905C108.519 134.064 108.307 133.423 107.882 132.981C107.457 132.53 106.881 132.305 106.153 132.305C105.39 132.305 104.779 132.548 104.32 133.033C103.869 133.518 103.644 134.238 103.644 135.191V139H103.059V131.941H103.644V133.436C103.843 132.907 104.173 132.504 104.632 132.227C105.1 131.941 105.637 131.798 106.244 131.798ZM9.702 149.464C9.702 148.736 9.845 148.099 10.131 147.553C10.4257 147.007 10.8287 146.587 11.34 146.292C11.86 145.997 12.4493 145.85 13.108 145.85C13.8533 145.85 14.486 146.032 15.006 146.396C15.526 146.76 15.89 147.224 16.098 147.787V145.941H16.683V153H16.098V151.141C15.89 151.713 15.5217 152.185 14.993 152.558C14.473 152.922 13.8447 153.104 13.108 153.104C12.4493 153.104 11.86 152.957 11.34 152.662C10.8287 152.359 10.4257 151.934 10.131 151.388C9.845 150.833 9.702 150.192 9.702 149.464ZM16.098 149.464C16.098 148.849 15.968 148.307 15.708 147.839C15.4567 147.362 15.11 146.998 14.668 146.747C14.226 146.487 13.732 146.357 13.186 146.357C12.614 146.357 12.1113 146.483 11.678 146.734C11.2447 146.977 10.9067 147.332 10.664 147.8C10.4213 148.268 10.3 148.823 10.3 149.464C10.3 150.105 10.4213 150.66 10.664 151.128C10.9067 151.596 11.2447 151.956 11.678 152.207C12.12 152.458 12.6227 152.584 13.186 152.584C13.732 152.584 14.226 152.458 14.668 152.207C15.1187 151.947 15.4697 151.583 15.721 151.115C15.9723 150.638 16.098 150.088 16.098 149.464ZM21.1661 153.104C20.3774 153.104 19.7317 152.931 19.2291 152.584C18.7351 152.237 18.4577 151.743 18.3971 151.102H18.9951C19.0384 151.561 19.2464 151.925 19.6191 152.194C20.0004 152.463 20.5161 152.597 21.1661 152.597C21.7034 152.597 22.1281 152.463 22.4401 152.194C22.7607 151.917 22.9211 151.579 22.9211 151.18C22.9211 150.903 22.8344 150.677 22.6611 150.504C22.4964 150.322 22.2884 150.183 22.0371 150.088C21.7857 149.993 21.4434 149.889 21.0101 149.776C20.4901 149.637 20.0697 149.503 19.7491 149.373C19.4284 149.234 19.1554 149.031 18.9301 148.762C18.7047 148.493 18.5921 148.134 18.5921 147.683C18.5921 147.354 18.6917 147.05 18.8911 146.773C19.0904 146.487 19.3677 146.262 19.7231 146.097C20.0784 145.932 20.4814 145.85 20.9321 145.85C21.6687 145.85 22.2624 146.036 22.7131 146.409C23.1724 146.773 23.4194 147.28 23.4541 147.93H22.8691C22.8431 147.462 22.6611 147.081 22.3231 146.786C21.9851 146.491 21.5171 146.344 20.9191 146.344C20.4164 146.344 20.0004 146.474 19.6711 146.734C19.3417 146.994 19.1771 147.31 19.1771 147.683C19.1771 148.012 19.2681 148.281 19.4501 148.489C19.6407 148.688 19.8704 148.844 20.1391 148.957C20.4164 149.061 20.7804 149.174 21.2311 149.295C21.7251 149.425 22.1194 149.555 22.4141 149.685C22.7174 149.806 22.9731 149.988 23.1811 150.231C23.3891 150.465 23.4931 150.781 23.4931 151.18C23.4931 151.544 23.3934 151.873 23.1941 152.168C22.9947 152.463 22.7174 152.692 22.3621 152.857C22.0067 153.022 21.6081 153.104 21.1661 153.104ZM28.5799 149.464C28.5799 148.736 28.7229 148.099 29.0089 147.553C29.3036 147.007 29.7066 146.587 30.2179 146.292C30.7379 145.997 31.3273 145.85 31.9859 145.85C32.7313 145.85 33.3639 146.032 33.8839 146.396C34.4039 146.76 34.7679 147.224 34.9759 147.787V145.941H35.5609V153H34.9759V151.141C34.7679 151.713 34.3996 152.185 33.8709 152.558C33.3509 152.922 32.7226 153.104 31.9859 153.104C31.3273 153.104 30.7379 152.957 30.2179 152.662C29.7066 152.359 29.3036 151.934 29.0089 151.388C28.7229 150.833 28.5799 150.192 28.5799 149.464ZM34.9759 149.464C34.9759 148.849 34.8459 148.307 34.5859 147.839C34.3346 147.362 33.9879 146.998 33.5459 146.747C33.1039 146.487 32.6099 146.357 32.0639 146.357C31.4919 146.357 30.9893 146.483 30.5559 146.734C30.1226 146.977 29.7846 147.332 29.5419 147.8C29.2993 148.268 29.1779 148.823 29.1779 149.464C29.1779 150.105 29.2993 150.66 29.5419 151.128C29.7846 151.596 30.1226 151.956 30.5559 152.207C30.9979 152.458 31.5006 152.584 32.0639 152.584C32.6099 152.584 33.1039 152.458 33.5459 152.207C33.9966 151.947 34.3476 151.583 34.5989 151.115C34.8503 150.638 34.9759 150.088 34.9759 149.464ZM41.9449 147.8C42.1443 147.228 42.5039 146.76 43.0239 146.396C43.5526 146.032 44.1896 145.85 44.9349 145.85C45.5936 145.85 46.1786 145.997 46.6899 146.292C47.2099 146.587 47.6129 147.007 47.8989 147.553C48.1936 148.099 48.3409 148.736 48.3409 149.464C48.3409 150.192 48.1936 150.833 47.8989 151.388C47.6129 151.934 47.2099 152.359 46.6899 152.662C46.1786 152.957 45.5936 153.104 44.9349 153.104C44.1983 153.104 43.5656 152.922 43.0369 152.558C42.5169 152.185 42.1529 151.717 41.9449 151.154V156.328H41.3599V145.941H41.9449V147.8ZM47.7429 149.464C47.7429 148.823 47.6216 148.268 47.3789 147.8C47.1363 147.332 46.7939 146.977 46.3519 146.734C45.9186 146.483 45.4159 146.357 44.8439 146.357C44.2979 146.357 43.8039 146.487 43.3619 146.747C42.9199 146.998 42.5733 147.362 42.3219 147.839C42.0706 148.307 41.9449 148.849 41.9449 149.464C41.9449 150.088 42.0706 150.638 42.3219 151.115C42.5733 151.583 42.9199 151.947 43.3619 152.207C43.8039 152.458 44.2979 152.584 44.8439 152.584C45.4159 152.584 45.9186 152.458 46.3519 152.207C46.7939 151.956 47.1363 151.596 47.3789 151.128C47.6216 150.66 47.7429 150.105 47.7429 149.464ZM53.305 145.798C54.137 145.798 54.8173 146.058 55.346 146.578C55.8747 147.089 56.139 147.852 56.139 148.866V153H55.567V148.905C55.567 148.064 55.3547 147.423 54.93 146.981C54.5053 146.53 53.929 146.305 53.201 146.305C52.4383 146.305 51.8273 146.548 51.368 147.033C50.9173 147.518 50.692 148.238 50.692 149.191V153H50.107V143.38H50.692V147.436C50.8913 146.907 51.225 146.504 51.693 146.227C52.161 145.941 52.6983 145.798 53.305 145.798ZM57.8426 149.464C57.8426 148.736 57.9856 148.099 58.2716 147.553C58.5663 147.007 58.9693 146.587 59.4806 146.292C60.0006 145.997 60.59 145.85 61.2486 145.85C61.994 145.85 62.6266 146.032 63.1466 146.396C63.6666 146.76 64.0306 147.224 64.2386 147.787V145.941H64.8236V153H64.2386V151.141C64.0306 151.713 63.6623 152.185 63.1336 152.558C62.6136 152.922 61.9853 153.104 61.2486 153.104C60.59 153.104 60.0006 152.957 59.4806 152.662C58.9693 152.359 58.5663 151.934 58.2716 151.388C57.9856 150.833 57.8426 150.192 57.8426 149.464ZM64.2386 149.464C64.2386 148.849 64.1086 148.307 63.8486 147.839C63.5973 147.362 63.2506 146.998 62.8086 146.747C62.3666 146.487 61.8726 146.357 61.3266 146.357C60.7546 146.357 60.252 146.483 59.8186 146.734C59.3853 146.977 59.0473 147.332 58.8046 147.8C58.562 148.268 58.4406 148.823 58.4406 149.464C58.4406 150.105 58.562 150.66 58.8046 151.128C59.0473 151.596 59.3853 151.956 59.8186 152.207C60.2606 152.458 60.7633 152.584 61.3266 152.584C61.8726 152.584 62.3666 152.458 62.8086 152.207C63.2593 151.947 63.6103 151.583 63.8616 151.115C64.113 150.638 64.2386 150.088 64.2386 149.464ZM67.5387 147.397C67.712 146.877 68.0197 146.483 68.4617 146.214C68.9037 145.937 69.467 145.798 70.1517 145.798V146.409H69.9567C69.2634 146.409 68.687 146.608 68.2277 147.007C67.7684 147.397 67.5387 148.038 67.5387 148.931V153H66.9537V145.941H67.5387V147.397ZM79.8446 145.798C80.6506 145.798 81.3093 146.058 81.8206 146.578C82.332 147.089 82.5876 147.852 82.5876 148.866V153H82.0156V148.905C82.0156 148.064 81.812 147.423 81.4046 146.981C81.006 146.53 80.4556 146.305 79.7536 146.305C79.0256 146.305 78.4406 146.556 77.9986 147.059C77.5566 147.562 77.3356 148.29 77.3356 149.243V153H76.7636V148.905C76.7636 148.064 76.56 147.423 76.1526 146.981C75.754 146.53 75.2036 146.305 74.5016 146.305C73.7736 146.305 73.1886 146.556 72.7466 147.059C72.3046 147.562 72.0836 148.29 72.0836 149.243V153H71.4986V145.941H72.0836V147.475C72.283 146.92 72.6036 146.504 73.0456 146.227C73.4963 145.941 74.012 145.798 74.5926 145.798C75.234 145.798 75.7843 145.967 76.2436 146.305C76.7116 146.634 77.0323 147.124 77.2056 147.774C77.3703 147.124 77.691 146.634 78.1676 146.305C78.6443 145.967 79.2033 145.798 79.8446 145.798ZM84.2997 149.464C84.2997 148.736 84.4427 148.099 84.7287 147.553C85.0233 147.007 85.4263 146.587 85.9377 146.292C86.4577 145.997 87.047 145.85 87.7057 145.85C88.451 145.85 89.0837 146.032 89.6037 146.396C90.1237 146.76 90.4877 147.224 90.6957 147.787V145.941H91.2807V153H90.6957V151.141C90.4877 151.713 90.1193 152.185 89.5907 152.558C89.0707 152.922 88.4423 153.104 87.7057 153.104C87.047 153.104 86.4577 152.957 85.9377 152.662C85.4263 152.359 85.0233 151.934 84.7287 151.388C84.4427 150.833 84.2997 150.192 84.2997 149.464ZM90.6957 149.464C90.6957 148.849 90.5657 148.307 90.3057 147.839C90.0543 147.362 89.7077 146.998 89.2657 146.747C88.8237 146.487 88.3297 146.357 87.7837 146.357C87.2117 146.357 86.709 146.483 86.2757 146.734C85.8423 146.977 85.5043 147.332 85.2617 147.8C85.019 148.268 84.8977 148.823 84.8977 149.464C84.8977 150.105 85.019 150.66 85.2617 151.128C85.5043 151.596 85.8423 151.956 86.2757 152.207C86.7177 152.458 87.2203 152.584 87.7837 152.584C88.3297 152.584 88.8237 152.458 89.2657 152.207C89.7163 151.947 90.0673 151.583 90.3187 151.115C90.57 150.638 90.6957 150.088 90.6957 149.464ZM93.0467 149.464C93.0467 148.727 93.1897 148.086 93.4757 147.54C93.7704 146.994 94.1734 146.578 94.6847 146.292C95.2047 145.997 95.7984 145.85 96.4657 145.85C97.3497 145.85 98.0734 146.071 98.6367 146.513C99.2087 146.955 99.5641 147.549 99.7027 148.294H99.0917C98.9791 147.687 98.6844 147.211 98.2077 146.864C97.7397 146.517 97.1591 146.344 96.4657 146.344C95.9457 146.344 95.4734 146.461 95.0487 146.695C94.6241 146.92 94.2817 147.271 94.0217 147.748C93.7704 148.216 93.6447 148.788 93.6447 149.464C93.6447 150.149 93.7704 150.725 94.0217 151.193C94.2817 151.661 94.6241 152.012 95.0487 152.246C95.4734 152.48 95.9457 152.597 96.4657 152.597C97.1591 152.597 97.7397 152.424 98.2077 152.077C98.6844 151.73 98.9791 151.254 99.0917 150.647H99.7027C99.5641 151.384 99.2087 151.977 98.6367 152.428C98.0647 152.879 97.3411 153.104 96.4657 153.104C95.7984 153.104 95.2047 152.957 94.6847 152.662C94.1734 152.367 93.7704 151.947 93.4757 151.401C93.1897 150.846 93.0467 150.201 93.0467 149.464ZM106.997 145.941L102.889 156.315H102.291L103.604 153L100.64 145.941H101.277L103.929 152.35L106.399 145.941H106.997Z" fill="#737373"/>
</svg>
