<svg width="264" height="49" viewBox="0 0 264 49" fill="none" xmlns="http://www.w3.org/2000/svg">
<rect x="1" y="1" width="262" height="47" rx="23.5" stroke="#36A5FF" stroke-width="2"/>
<path d="M89.378 22.028C89.378 22.868 89.1027 23.5447 88.552 24.058C88.0013 24.5713 87.1753 24.828 86.074 24.828H84.1V29H83.12V19.214H86.074C87.166 19.214 87.9873 19.4707 88.538 19.984C89.098 20.4973 89.378 21.1787 89.378 22.028ZM86.074 23.988C87.6047 23.988 88.37 23.3347 88.37 22.028C88.37 21.3747 88.188 20.88 87.824 20.544C87.46 20.208 86.8767 20.04 86.074 20.04H84.1V23.988H86.074ZM92.0023 22.714C92.217 22.238 92.5437 21.8693 92.9823 21.608C93.4303 21.3467 93.9763 21.216 94.6203 21.216V22.238H94.3543C93.645 22.238 93.0757 22.4293 92.6463 22.812C92.217 23.1947 92.0023 23.834 92.0023 24.73V29H91.0223V21.356H92.0023V22.714ZM99.4406 29.112C98.7219 29.112 98.0733 28.9533 97.4946 28.636C96.9253 28.3093 96.4726 27.852 96.1366 27.264C95.8099 26.6667 95.6466 25.9713 95.6466 25.178C95.6466 24.3847 95.8146 23.694 96.1506 23.106C96.4866 22.5087 96.9439 22.0513 97.5226 21.734C98.1013 21.4073 98.7499 21.244 99.4686 21.244C100.187 21.244 100.836 21.4073 101.415 21.734C102.003 22.0513 102.46 22.5087 102.787 23.106C103.123 23.694 103.291 24.3847 103.291 25.178C103.291 25.962 103.123 26.6527 102.787 27.25C102.451 27.8473 101.989 28.3093 101.401 28.636C100.813 28.9533 100.159 29.112 99.4406 29.112ZM99.4406 28.258C99.9446 28.258 100.411 28.146 100.841 27.922C101.27 27.6887 101.615 27.3433 101.877 26.886C102.147 26.4193 102.283 25.85 102.283 25.178C102.283 24.506 102.152 23.9413 101.891 23.484C101.629 23.0173 101.284 22.672 100.855 22.448C100.425 22.2147 99.9586 22.098 99.4546 22.098C98.9506 22.098 98.4839 22.2147 98.0546 22.448C97.6253 22.672 97.2799 23.0173 97.0186 23.484C96.7666 23.9413 96.6406 24.506 96.6406 25.178C96.6406 25.85 96.7666 26.4193 97.0186 26.886C97.2799 27.3433 97.6206 27.6887 98.0406 27.922C98.4699 28.146 98.9366 28.258 99.4406 28.258ZM104.629 25.178C104.629 24.3847 104.788 23.694 105.105 23.106C105.422 22.5087 105.861 22.0513 106.421 21.734C106.981 21.4073 107.62 21.244 108.339 21.244C109.282 21.244 110.056 21.4773 110.663 21.944C111.279 22.4107 111.676 23.0453 111.853 23.848H110.803C110.672 23.2973 110.388 22.868 109.949 22.56C109.52 22.2427 108.983 22.084 108.339 22.084C107.826 22.084 107.364 22.2007 106.953 22.434C106.542 22.6673 106.216 23.0173 105.973 23.484C105.74 23.9413 105.623 24.506 105.623 25.178C105.623 25.85 105.74 26.4193 105.973 26.886C106.216 27.3527 106.542 27.7027 106.953 27.936C107.364 28.1693 107.826 28.286 108.339 28.286C108.983 28.286 109.52 28.132 109.949 27.824C110.388 27.5067 110.672 27.068 110.803 26.508H111.853C111.676 27.292 111.279 27.922 110.663 28.398C110.047 28.874 109.272 29.112 108.339 29.112C107.62 29.112 106.981 28.9533 106.421 28.636C105.861 28.3093 105.422 27.852 105.105 27.264C104.788 26.6667 104.629 25.9713 104.629 25.178ZM120.579 24.786C120.579 25.122 120.57 25.3787 120.551 25.556H114.209C114.237 26.1347 114.377 26.6293 114.629 27.04C114.881 27.4507 115.212 27.7633 115.623 27.978C116.034 28.1833 116.482 28.286 116.967 28.286C117.602 28.286 118.134 28.132 118.563 27.824C119.002 27.516 119.291 27.1007 119.431 26.578H120.467C120.28 27.3247 119.879 27.936 119.263 28.412C118.656 28.8787 117.891 29.112 116.967 29.112C116.248 29.112 115.604 28.9533 115.035 28.636C114.466 28.3093 114.018 27.852 113.691 27.264C113.374 26.6667 113.215 25.9713 113.215 25.178C113.215 24.3847 113.374 23.6893 113.691 23.092C114.008 22.4947 114.452 22.0373 115.021 21.72C115.59 21.4027 116.239 21.244 116.967 21.244C117.695 21.244 118.33 21.4027 118.871 21.72C119.422 22.0373 119.842 22.4667 120.131 23.008C120.43 23.54 120.579 24.1327 120.579 24.786ZM119.585 24.758C119.594 24.1887 119.478 23.7033 119.235 23.302C119.002 22.9007 118.68 22.5973 118.269 22.392C117.858 22.1867 117.41 22.084 116.925 22.084C116.197 22.084 115.576 22.3173 115.063 22.784C114.55 23.2507 114.265 23.9087 114.209 24.758H119.585ZM129.288 24.786C129.288 25.122 129.279 25.3787 129.26 25.556H122.918C122.946 26.1347 123.086 26.6293 123.338 27.04C123.59 27.4507 123.921 27.7633 124.332 27.978C124.743 28.1833 125.191 28.286 125.676 28.286C126.311 28.286 126.843 28.132 127.272 27.824C127.711 27.516 128 27.1007 128.14 26.578H129.176C128.989 27.3247 128.588 27.936 127.972 28.412C127.365 28.8787 126.6 29.112 125.676 29.112C124.957 29.112 124.313 28.9533 123.744 28.636C123.175 28.3093 122.727 27.852 122.4 27.264C122.083 26.6667 121.924 25.9713 121.924 25.178C121.924 24.3847 122.083 23.6893 122.4 23.092C122.717 22.4947 123.161 22.0373 123.73 21.72C124.299 21.4027 124.948 21.244 125.676 21.244C126.404 21.244 127.039 21.4027 127.58 21.72C128.131 22.0373 128.551 22.4667 128.84 23.008C129.139 23.54 129.288 24.1327 129.288 24.786ZM128.294 24.758C128.303 24.1887 128.187 23.7033 127.944 23.302C127.711 22.9007 127.389 22.5973 126.978 22.392C126.567 22.1867 126.119 22.084 125.634 22.084C124.906 22.084 124.285 22.3173 123.772 22.784C123.259 23.2507 122.974 23.9087 122.918 24.758H128.294ZM130.633 25.164C130.633 24.38 130.792 23.694 131.109 23.106C131.426 22.5087 131.86 22.0513 132.411 21.734C132.971 21.4073 133.601 21.244 134.301 21.244C134.973 21.244 135.58 21.4073 136.121 21.734C136.662 22.0607 137.059 22.4853 137.311 23.008V18.64H138.291V29H137.311V27.292C137.078 27.824 136.695 28.2627 136.163 28.608C135.631 28.944 135.006 29.112 134.287 29.112C133.587 29.112 132.957 28.9487 132.397 28.622C131.846 28.2953 131.412 27.8333 131.095 27.236C130.787 26.6387 130.633 25.948 130.633 25.164ZM137.311 25.178C137.311 24.562 137.185 24.0207 136.933 23.554C136.681 23.0873 136.336 22.728 135.897 22.476C135.468 22.224 134.992 22.098 134.469 22.098C133.928 22.098 133.442 22.2193 133.013 22.462C132.584 22.7047 132.243 23.0593 131.991 23.526C131.748 23.9833 131.627 24.5293 131.627 25.164C131.627 25.7893 131.748 26.34 131.991 26.816C132.243 27.2827 132.584 27.642 133.013 27.894C133.442 28.1367 133.928 28.258 134.469 28.258C134.992 28.258 135.468 28.132 135.897 27.88C136.336 27.628 136.681 27.2687 136.933 26.802C137.185 26.3353 137.311 25.794 137.311 25.178Z" fill="black"/>
<path d="M182.368 25.3536C182.564 25.1583 182.564 24.8417 182.368 24.6464L179.186 21.4645C178.991 21.2692 178.674 21.2692 178.479 21.4645C178.284 21.6597 178.284 21.9763 178.479 22.1716L181.308 25L178.479 27.8284C178.284 28.0237 178.284 28.3403 178.479 28.5355C178.674 28.7308 178.991 28.7308 179.186 28.5355L182.368 25.3536ZM148 25V25.5H182.015V25V24.5H148V25Z" fill="black"/>
</svg>
