<svg width="359" height="49" viewBox="0 0 359 49" fill="none" xmlns="http://www.w3.org/2000/svg">
<rect x="1" y="1" width="357" height="47" rx="23.5" stroke="#36A5FF" stroke-width="2"/>
<path d="M161.088 29.098C160.444 29.098 159.875 28.986 159.38 28.762C158.895 28.538 158.512 28.2253 158.232 27.824C157.952 27.4227 157.803 26.9747 157.784 26.48H158.82C158.867 26.956 159.077 27.376 159.45 27.74C159.823 28.0947 160.369 28.272 161.088 28.272C161.751 28.272 162.273 28.104 162.656 27.768C163.048 27.4227 163.244 26.9887 163.244 26.466C163.244 26.046 163.137 25.71 162.922 25.458C162.707 25.1967 162.441 25.0053 162.124 24.884C161.807 24.7533 161.368 24.6133 160.808 24.464C160.155 24.2867 159.637 24.114 159.254 23.946C158.871 23.778 158.545 23.5167 158.274 23.162C158.003 22.8073 157.868 22.3267 157.868 21.72C157.868 21.216 157.999 20.768 158.26 20.376C158.521 19.9747 158.89 19.662 159.366 19.438C159.842 19.214 160.388 19.102 161.004 19.102C161.909 19.102 162.637 19.326 163.188 19.774C163.748 20.2127 164.07 20.782 164.154 21.482H163.09C163.025 21.0807 162.805 20.726 162.432 20.418C162.059 20.1007 161.555 19.942 160.92 19.942C160.332 19.942 159.842 20.1007 159.45 20.418C159.058 20.726 158.862 21.1507 158.862 21.692C158.862 22.1027 158.969 22.434 159.184 22.686C159.399 22.938 159.665 23.1293 159.982 23.26C160.309 23.3907 160.747 23.5307 161.298 23.68C161.933 23.8573 162.446 24.0347 162.838 24.212C163.23 24.38 163.561 24.6413 163.832 24.996C164.103 25.3507 164.238 25.8267 164.238 26.424C164.238 26.8813 164.117 27.3153 163.874 27.726C163.631 28.1367 163.272 28.468 162.796 28.72C162.32 28.972 161.751 29.098 161.088 29.098ZM166.622 19.914C166.426 19.914 166.258 19.844 166.118 19.704C165.978 19.564 165.908 19.3913 165.908 19.186C165.908 18.9807 165.978 18.8127 166.118 18.682C166.258 18.542 166.426 18.472 166.622 18.472C166.818 18.472 166.986 18.542 167.126 18.682C167.266 18.8127 167.336 18.9807 167.336 19.186C167.336 19.3913 167.266 19.564 167.126 19.704C166.986 19.844 166.818 19.914 166.622 19.914ZM167.112 21.356V29H166.132V21.356H167.112ZM172.537 21.244C173.256 21.244 173.881 21.412 174.413 21.748C174.945 22.084 175.328 22.5087 175.561 23.022V21.356H176.541V29.196C176.541 29.896 176.387 30.5167 176.079 31.058C175.78 31.5993 175.36 32.0147 174.819 32.304C174.278 32.6027 173.662 32.752 172.971 32.752C171.991 32.752 171.174 32.5187 170.521 32.052C169.877 31.5853 169.476 30.9507 169.317 30.148H170.283C170.451 30.68 170.768 31.1047 171.235 31.422C171.711 31.7393 172.29 31.898 172.971 31.898C173.466 31.898 173.909 31.7907 174.301 31.576C174.693 31.3707 175.001 31.0627 175.225 30.652C175.449 30.2413 175.561 29.756 175.561 29.196V27.306C175.318 27.8287 174.931 28.2627 174.399 28.608C173.876 28.944 173.256 29.112 172.537 29.112C171.837 29.112 171.207 28.9487 170.647 28.622C170.096 28.2953 169.662 27.8333 169.345 27.236C169.037 26.6387 168.883 25.948 168.883 25.164C168.883 24.38 169.037 23.694 169.345 23.106C169.662 22.5087 170.096 22.0513 170.647 21.734C171.207 21.4073 171.837 21.244 172.537 21.244ZM175.561 25.178C175.561 24.562 175.435 24.0207 175.183 23.554C174.931 23.0873 174.586 22.728 174.147 22.476C173.718 22.224 173.242 22.098 172.719 22.098C172.178 22.098 171.692 22.2193 171.263 22.462C170.834 22.7047 170.493 23.0593 170.241 23.526C169.998 23.9833 169.877 24.5293 169.877 25.164C169.877 25.7893 169.998 26.34 170.241 26.816C170.493 27.2827 170.834 27.642 171.263 27.894C171.692 28.1367 172.178 28.258 172.719 28.258C173.242 28.258 173.718 28.132 174.147 27.88C174.586 27.628 174.931 27.2687 175.183 26.802C175.435 26.3353 175.561 25.794 175.561 25.178ZM182.362 21.216C183.277 21.216 184.024 21.5007 184.602 22.07C185.181 22.63 185.47 23.4467 185.47 24.52V29H184.504V24.632C184.504 23.8013 184.294 23.1667 183.874 22.728C183.464 22.2893 182.899 22.07 182.18 22.07C181.443 22.07 180.855 22.3033 180.416 22.77C179.978 23.2367 179.758 23.9227 179.758 24.828V29H178.778V21.356H179.758V22.658C180.001 22.1913 180.351 21.8367 180.808 21.594C181.266 21.342 181.784 21.216 182.362 21.216ZM192.459 19.214V29H191.479V19.214H192.459ZM198.263 21.216C199.177 21.216 199.924 21.5007 200.503 22.07C201.081 22.63 201.371 23.4467 201.371 24.52V29H200.405V24.632C200.405 23.8013 200.195 23.1667 199.775 22.728C199.364 22.2893 198.799 22.07 198.081 22.07C197.343 22.07 196.755 22.3033 196.317 22.77C195.878 23.2367 195.659 23.9227 195.659 24.828V29H194.679V21.356H195.659V22.658C195.901 22.1913 196.251 21.8367 196.709 21.594C197.166 21.342 197.684 21.216 198.263 21.216Z" fill="black"/>
</svg>
