<svg width="244" height="244" viewBox="0 0 244 244" fill="none" xmlns="http://www.w3.org/2000/svg">
<g clip-path="url(#clip0_1103_99)">
<g opacity="0.7" clip-path="url(#clip1_1103_99)">
<path opacity="0.7" d="M-4.13089 8.67458C-2.40416 9.67151 -0.196206 9.07989 0.800721 7.35316C1.79765 5.62643 1.20603 3.41848 -0.5207 2.42155C-2.24743 1.42462 -4.45539 2.01624 -5.45231 3.74297C-6.44924 5.4697 -5.85762 7.67766 -4.13089 8.67458Z" stroke="#15A690" stroke-width="0.902548"/>
<path opacity="0.7" d="M-4.6709 4.19421L0.0188761 6.90186" stroke="#15A690" stroke-width="0.902548"/>
</g>
<g opacity="0.7" clip-path="url(#clip2_1103_99)">
<path opacity="0.7" d="M29.3164 9.70165C30.9822 10.148 32.6945 9.15943 33.1409 7.49357C33.5873 5.82771 32.5987 4.11542 30.9328 3.66905C29.2669 3.22269 27.5547 4.21128 27.1083 5.87714C26.6619 7.543 27.6505 9.25529 29.3164 9.70165Z" stroke="#15A690" stroke-width="0.780676"/>
<path opacity="0.7" d="M27.8625 6.07922L32.387 7.29155" stroke="#15A690" stroke-width="0.780676"/>
</g>
<g opacity="0.7" clip-path="url(#clip3_1103_99)">
<path opacity="0.7" d="M49.4265 8.94125L57.0945 4.51413C58.1532 3.90287 58.516 2.54908 57.9047 1.49035L50.1572 -11.9286C49.546 -12.9874 48.1922 -13.3501 47.1335 -12.7389L39.4655 -8.31174C38.4067 -7.70048 38.044 -6.34669 38.6553 -5.28796L46.4027 8.13103C47.014 9.18976 48.3678 9.5525 49.4265 8.94125Z" stroke="#15A690" stroke-width="1.10678"/>
<path opacity="0.7" d="M53.0923 -0.204226C52.2982 0.254217 52.0262 1.26956 52.4846 2.06361C52.943 2.85765 53.9584 3.12971 54.7524 2.67127C55.5465 2.21283 55.8185 1.19748 55.3601 0.403438C54.9017 -0.390609 53.8863 -0.662669 53.0923 -0.204226Z" stroke="#15A690" stroke-width="1.10678"/>
<path opacity="0.7" d="M48.2998 2.56274C47.5057 3.02118 47.2337 4.03653 47.6921 4.83057C48.1506 5.62462 49.1659 5.89668 49.96 5.43824C50.754 4.9798 51.0261 3.96445 50.5676 3.17041C50.1092 2.37636 49.0938 2.1043 48.2998 2.56274Z" stroke="#15A690" stroke-width="1.10678"/>
<path opacity="0.7" d="M45.5329 -2.22974C44.7389 -1.7713 44.4668 -0.755952 44.9253 0.0380943C45.3837 0.832141 46.3991 1.1042 47.1931 0.645758C47.9872 0.187315 48.2592 -0.828028 47.8008 -1.62207C47.3423 -2.41612 46.327 -2.68818 45.5329 -2.22974Z" stroke="#15A690" stroke-width="1.10678"/>
</g>
<g opacity="0.7" clip-path="url(#clip4_1103_99)">
<path opacity="0.7" d="M98.6065 9.7442L94.5289 2.68165C93.9659 1.70652 92.719 1.37241 91.7439 1.93541L79.3844 9.07115C78.4093 9.63414 78.0752 10.881 78.6382 11.8562L82.7157 18.9187C83.2787 19.8939 84.5256 20.228 85.5008 19.665L97.8602 12.5292C98.8354 11.9662 99.1695 10.7193 98.6065 9.7442Z" stroke="#15A690" stroke-width="1.01939"/>
<path opacity="0.7" d="M90.1832 6.36772C90.6055 7.09907 91.5406 7.34965 92.272 6.9274C93.0033 6.50516 93.2539 5.56998 92.8317 4.83863C92.4094 4.10728 91.4743 3.8567 90.7429 4.27895C90.0116 4.70119 89.761 5.63637 90.1832 6.36772Z" stroke="#15A690" stroke-width="1.01939"/>
<path opacity="0.7" d="M92.7318 10.7818C93.1541 11.5131 94.0892 11.7637 94.8206 11.3415C95.5519 10.9192 95.8025 9.98405 95.3803 9.2527C94.958 8.52134 94.0228 8.27076 93.2915 8.69301C92.5601 9.11526 92.3096 10.0504 92.7318 10.7818Z" stroke="#15A690" stroke-width="1.01939"/>
<path opacity="0.7" d="M85.7692 8.91618C86.1914 9.64753 87.1266 9.89811 87.8579 9.47587C88.5893 9.05362 88.8399 8.11845 88.4176 7.38709C87.9954 6.65574 87.0602 6.40516 86.3288 6.82741C85.5975 7.24966 85.3469 8.18483 85.7692 8.91618Z" stroke="#15A690" stroke-width="1.01939"/>
<path opacity="0.7" d="M88.3177 13.3304C88.74 14.0617 89.6752 14.3123 90.4065 13.8901C91.1379 13.4678 91.3884 12.5326 90.9662 11.8013C90.544 11.0699 89.6088 10.8193 88.8774 11.2416C88.1461 11.6638 87.8955 12.599 88.3177 13.3304Z" stroke="#15A690" stroke-width="1.01939"/>
<path opacity="0.7" d="M81.3551 11.4648C81.7773 12.1961 82.7125 12.4467 83.4439 12.0245C84.1752 11.6022 84.4258 10.667 84.0036 9.93568C83.5813 9.20433 82.6461 8.95375 81.9148 9.37599C81.1834 9.79824 80.9329 10.7334 81.3551 11.4648Z" stroke="#15A690" stroke-width="1.01939"/>
<path opacity="0.7" d="M83.9037 15.8788C84.3259 16.6102 85.2611 16.8608 85.9925 16.4385C86.7238 16.0163 86.9744 15.0811 86.5521 14.3497C86.1299 13.6184 85.1947 13.3678 84.4634 13.7901C83.732 14.2123 83.4814 15.1475 83.9037 15.8788Z" stroke="#15A690" stroke-width="1.01939"/>
</g>
<g opacity="0.7" clip-path="url(#clip5_1103_99)">
<path opacity="0.7" d="M133.832 10.0395L123.886 4.29697C122.055 3.23981 119.713 3.86718 118.656 5.69824C117.599 7.5293 118.226 9.87066 120.057 10.9278L130.004 16.6703C131.835 17.7275 134.176 17.1001 135.233 15.269C136.29 13.438 135.663 11.0966 133.832 10.0395Z" stroke="#15A690" stroke-width="0.957081"/>
</g>
<g opacity="0.7" clip-path="url(#clip6_1103_99)">
<path opacity="0.7" d="M161.907 0.726737L155.605 -0.961879C154.735 -1.19503 153.841 -0.678658 153.608 0.191467L150.653 11.22C150.419 12.0901 150.936 12.9845 151.806 13.2176L158.108 14.9062C158.978 15.1394 159.872 14.623 160.106 13.7529L163.061 2.72439C163.294 1.85427 162.777 0.959887 161.907 0.726737Z" stroke="#15A690" stroke-width="0.815539"/>
<path opacity="0.7" d="M155.232 3.58184C155.885 3.75671 156.555 3.36943 156.73 2.71683C156.905 2.06424 156.518 1.39346 155.865 1.21859C155.213 1.04373 154.542 1.43101 154.367 2.0836C154.192 2.7362 154.579 3.40698 155.232 3.58184Z" stroke="#15A690" stroke-width="0.815539"/>
<path opacity="0.7" d="M159.171 4.63726C159.824 4.81213 160.494 4.42485 160.669 3.77225C160.844 3.11966 160.457 2.44887 159.804 2.27401C159.152 2.09915 158.481 2.48643 158.306 3.13902C158.131 3.79162 158.518 4.4624 159.171 4.63726Z" stroke="#15A690" stroke-width="0.815539"/>
<path opacity="0.7" d="M154.177 7.52069C154.829 7.69555 155.5 7.30827 155.675 6.65568C155.85 6.00308 155.463 5.3323 154.81 5.15744C154.157 4.98257 153.487 5.36985 153.312 6.02245C153.137 6.67504 153.524 7.34582 154.177 7.52069Z" stroke="#15A690" stroke-width="0.815539"/>
<path opacity="0.7" d="M158.116 8.57598C158.768 8.75085 159.439 8.36357 159.614 7.71097C159.789 7.05838 159.401 6.3876 158.749 6.21273C158.096 6.03787 157.425 6.42515 157.251 7.07774C157.076 7.73034 157.463 8.40112 158.116 8.57598Z" stroke="#15A690" stroke-width="0.815539"/>
<path opacity="0.7" d="M153.121 11.4594C153.774 11.6343 154.445 11.247 154.62 10.5944C154.794 9.9418 154.407 9.27102 153.755 9.09616C153.102 8.92129 152.431 9.30857 152.256 9.96117C152.082 10.6138 152.469 11.2845 153.121 11.4594Z" stroke="#15A690" stroke-width="0.815539"/>
<path opacity="0.7" d="M157.06 12.5148C157.713 12.6897 158.383 12.3024 158.558 11.6498C158.733 10.9972 158.346 10.3264 157.693 10.1516C157.041 9.97671 156.37 10.364 156.195 11.0166C156.02 11.6692 156.408 12.34 157.06 12.5148Z" stroke="#15A690" stroke-width="0.815539"/>
</g>
<g opacity="0.7" clip-path="url(#clip7_1103_99)">
<path opacity="0.7" d="M178.517 -2.00018C180.921 3.62822 177.249 9.98871 171.173 10.7208C168.769 5.0924 172.441 -1.26809 178.517 -2.00018Z" stroke="#15A690" stroke-width="1.22408"/>
<path opacity="0.7" d="M171.173 10.7209L170.681 18.9175L168.725 14.9612L164.32 15.2453L171.173 10.7209Z" stroke="#15A690" stroke-width="1.22408"/>
<path opacity="0.7" d="M175.804 2.08721C175.551 2.52631 175.701 3.08778 176.14 3.3413C176.579 3.59481 177.141 3.44437 177.394 3.00527C177.648 2.56617 177.497 2.00469 177.058 1.75118C176.619 1.49766 176.058 1.64811 175.804 2.08721Z" fill="#15A690"/>
</g>
<g opacity="0.7" clip-path="url(#clip8_1103_99)">
<path opacity="0.49" d="M208.98 5.47163C209.426 6.24414 210.413 6.50882 211.186 6.06281C211.958 5.61681 212.223 4.62901 211.777 3.85651C211.331 3.084 210.343 2.81932 209.571 3.26533C208.798 3.71133 208.534 4.69913 208.98 5.47163Z" stroke="#15A690" stroke-width="0.807564"/>
</g>
<g opacity="0.7" clip-path="url(#clip9_1103_99)">
<path opacity="0.7" d="M12.0662 30.9868C15.9701 30.4291 19.3163 33.7753 18.7586 37.6792C14.8547 38.2369 11.5085 34.8907 12.0662 30.9868Z" stroke="#15A690" stroke-width="0.788706"/>
<path opacity="0.7" d="M18.7585 37.6792L23.7778 39.3523L20.9893 39.91L20.4316 42.6985L18.7585 37.6792Z" stroke="#15A690" stroke-width="0.788706"/>
<path opacity="0.7" d="M14.1577 33.3571C14.3887 33.5881 14.7632 33.5881 14.9942 33.3571C15.2252 33.1261 15.2252 32.7516 14.9942 32.5206C14.7632 32.2896 14.3887 32.2896 14.1577 32.5206C13.9266 32.7516 13.9266 33.1261 14.1577 33.3571Z" fill="#15A690"/>
</g>
<g opacity="0.7" clip-path="url(#clip10_1103_99)">
<path opacity="0.7" d="M42.8906 48.8937V33.7975C42.8906 31.7131 41.2009 30.0234 39.1166 30.0234C37.0322 30.0234 35.3425 31.7131 35.3425 33.7975V48.8937C35.3425 50.9781 37.0322 52.6678 39.1166 52.6678C41.2009 52.6678 42.8906 50.9781 42.8906 48.8937Z" stroke="#15A690" stroke-width="1.25802"/>
<path opacity="0.7" d="M40.3745 42.6037V40.0876C40.3745 39.3928 39.8113 38.8296 39.1165 38.8296C38.4217 38.8296 37.8585 39.3928 37.8585 40.0876V42.6037C37.8585 43.2984 38.4217 43.8617 39.1165 43.8617C39.8113 43.8617 40.3745 43.2984 40.3745 42.6037Z" stroke="#15A690" stroke-width="1.25802"/>
</g>
<g opacity="0.7" clip-path="url(#clip11_1103_99)">
<path opacity="0.7" d="M82.4307 44.3252L79.7736 34.4088C79.4068 33.0396 77.9994 32.2271 76.6303 32.594C75.2611 32.9608 74.4486 34.3682 74.8154 35.7373L77.4725 45.6537C77.8394 47.0229 79.2467 47.8354 80.6159 47.4686C81.9851 47.1017 82.7976 45.6944 82.4307 44.3252Z" stroke="#15A690" stroke-width="0.855518"/>
<path opacity="0.7" d="M79.6709 40.6362L79.228 38.9835C79.1057 38.5271 78.6366 38.2562 78.1802 38.3785C77.7238 38.5008 77.453 38.9699 77.5753 39.4263L78.0181 41.0791C78.1404 41.5354 78.6095 41.8063 79.0659 41.684C79.5223 41.5617 79.7932 41.0926 79.6709 40.6362Z" stroke="#15A690" stroke-width="0.855518"/>
</g>
<g opacity="0.7" clip-path="url(#clip12_1103_99)">
<path opacity="0.7" d="M116.777 34.7123L109.081 30.2689C108.018 29.6554 106.659 30.0195 106.046 31.0821L98.27 44.5504C97.6565 45.613 98.0205 46.9718 99.0832 47.5853L106.779 52.0287C107.842 52.6422 109.201 52.2781 109.814 51.2155L117.59 37.7472C118.204 36.6846 117.84 35.3258 116.777 34.7123Z" stroke="#15A690" stroke-width="1.11085"/>
<path opacity="0.7" d="M106.988 36.1154C107.785 36.5756 108.804 36.3025 109.264 35.5055C109.724 34.7086 109.451 33.6895 108.654 33.2294C107.857 32.7692 106.838 33.0423 106.378 33.8393C105.918 34.6362 106.191 35.6553 106.988 36.1154Z" stroke="#15A690" stroke-width="1.11085"/>
<path opacity="0.7" d="M111.798 38.8925C112.595 39.3527 113.614 39.0796 114.074 38.2826C114.534 37.4857 114.261 36.4666 113.464 36.0065C112.667 35.5463 111.648 35.8194 111.188 36.6164C110.728 37.4133 111.001 38.4324 111.798 38.8925Z" stroke="#15A690" stroke-width="1.11085"/>
<path opacity="0.7" d="M104.211 40.9256C105.008 41.3857 106.027 41.1127 106.487 40.3157C106.947 39.5188 106.674 38.4997 105.877 38.0396C105.08 37.5794 104.061 37.8525 103.601 38.6495C103.141 39.4464 103.414 40.4655 104.211 40.9256Z" stroke="#15A690" stroke-width="1.11085"/>
<path opacity="0.7" d="M109.021 43.7027C109.818 44.1628 110.837 43.8898 111.297 43.0928C111.757 42.2959 111.484 41.2768 110.687 40.8167C109.89 40.3565 108.871 40.6296 108.411 41.4266C107.951 42.2235 108.224 43.2426 109.021 43.7027Z" stroke="#15A690" stroke-width="1.11085"/>
<path opacity="0.7" d="M101.434 45.7357C102.23 46.1958 103.25 45.9227 103.71 45.1258C104.17 44.3288 103.897 43.3097 103.1 42.8496C102.303 42.3895 101.284 42.6625 100.824 43.4595C100.363 44.2565 100.637 45.2756 101.434 45.7357Z" stroke="#15A690" stroke-width="1.11085"/>
<path opacity="0.7" d="M106.244 48.5128C107.041 48.9729 108.06 48.6998 108.52 47.9029C108.98 47.1059 108.707 46.0868 107.91 45.6267C107.113 45.1666 106.094 45.4396 105.634 46.2366C105.174 47.0336 105.447 48.0527 106.244 48.5128Z" stroke="#15A690" stroke-width="1.11085"/>
</g>
<g opacity="0.7" clip-path="url(#clip13_1103_99)">
<path opacity="0.49" d="M134.055 33.6039C134.623 34.5862 135.879 34.9227 136.861 34.3556C137.843 33.7885 138.18 32.5324 137.613 31.5502C137.045 30.5679 135.789 30.2313 134.807 30.7985C133.825 31.3656 133.488 32.6216 134.055 33.6039Z" stroke="#15A690" stroke-width="1.02686"/>
</g>
<g opacity="0.7" clip-path="url(#clip14_1103_99)">
<path opacity="0.49" d="M170.385 37.0533C171.759 37.0533 172.874 35.939 172.874 34.5643C172.874 33.1897 171.759 32.0753 170.385 32.0753C169.01 32.0753 167.896 33.1897 167.896 34.5643C167.896 35.939 169.01 37.0533 170.385 37.0533Z" stroke="#15A690" stroke-width="1.24451"/>
</g>
<g opacity="0.7" clip-path="url(#clip15_1103_99)">
<path opacity="0.7" d="M205.197 35.2352L197.532 33.1814C196.473 32.8978 195.386 33.5259 195.102 34.5842L191.508 47.9978C191.224 49.0562 191.852 50.144 192.911 50.4275L200.576 52.4813C201.634 52.7649 202.722 52.1369 203.005 51.0786L206.599 37.6649C206.883 36.6066 206.255 35.5188 205.197 35.2352Z" stroke="#15A690" stroke-width="0.991916"/>
<path opacity="0.7" d="M197.078 38.7078C197.872 38.9205 198.687 38.4495 198.9 37.6557C199.113 36.862 198.642 36.0461 197.848 35.8335C197.054 35.6208 196.238 36.0918 196.026 36.8855C195.813 37.6793 196.284 38.4951 197.078 38.7078Z" stroke="#15A690" stroke-width="0.991916"/>
<path opacity="0.7" d="M201.868 39.9914C202.662 40.2041 203.478 39.733 203.691 38.9393C203.903 38.1456 203.432 37.3297 202.639 37.117C201.845 36.9043 201.029 37.3754 200.816 38.1691C200.604 38.9628 201.075 39.7787 201.868 39.9914Z" stroke="#15A690" stroke-width="0.991916"/>
<path opacity="0.7" d="M195.794 43.4983C196.588 43.711 197.404 43.24 197.616 42.4462C197.829 41.6525 197.358 40.8367 196.564 40.624C195.771 40.4113 194.955 40.8823 194.742 41.6761C194.529 42.4698 195 43.2857 195.794 43.4983Z" stroke="#15A690" stroke-width="0.991916"/>
<path opacity="0.7" d="M200.585 44.782C201.378 44.9947 202.194 44.5237 202.407 43.7299C202.62 42.9362 202.149 42.1204 201.355 41.9077C200.561 41.695 199.745 42.166 199.533 42.9598C199.32 43.7535 199.791 44.5693 200.585 44.782Z" stroke="#15A690" stroke-width="0.991916"/>
<path opacity="0.7" d="M194.511 48.289C195.304 48.5017 196.12 48.0306 196.333 47.2369C196.545 46.4432 196.074 45.6273 195.281 45.4146C194.487 45.202 193.671 45.673 193.458 46.4667C193.246 47.2604 193.717 48.0763 194.511 48.289Z" stroke="#15A690" stroke-width="0.991916"/>
<path opacity="0.7" d="M199.301 49.5727C200.095 49.7854 200.911 49.3143 201.123 48.5206C201.336 47.7269 200.865 46.911 200.071 46.6983C199.277 46.4856 198.462 46.9567 198.249 47.7504C198.036 48.5441 198.507 49.36 199.301 49.5727Z" stroke="#15A690" stroke-width="0.991916"/>
</g>
<g opacity="0.7" clip-path="url(#clip16_1103_99)">
<path opacity="0.7" d="M228.566 42.0575V32.9589C228.566 31.7026 227.548 30.6842 226.291 30.6842H210.369C209.112 30.6842 208.094 31.7026 208.094 32.9589V42.0575C208.094 43.3138 209.112 44.3322 210.369 44.3322H226.291C227.548 44.3322 228.566 43.3138 228.566 42.0575Z" stroke="#15A690" stroke-width="1.13733"/>
<path opacity="0.7" d="M222.31 34.0961C222.31 35.0383 223.074 35.8021 224.016 35.8021C224.959 35.8021 225.722 35.0383 225.722 34.0961C225.722 33.1539 224.959 32.3901 224.016 32.3901C223.074 32.3901 222.31 33.1539 222.31 34.0961Z" stroke="#15A690" stroke-width="1.13733"/>
<path opacity="0.7" d="M222.31 39.7828C222.31 40.725 223.074 41.4888 224.016 41.4888C224.959 41.4888 225.722 40.725 225.722 39.7828C225.722 38.8406 224.959 38.0768 224.016 38.0768C223.074 38.0768 222.31 38.8406 222.31 39.7828Z" stroke="#15A690" stroke-width="1.13733"/>
<path opacity="0.7" d="M216.624 34.0961C216.624 35.0383 217.388 35.8021 218.33 35.8021C219.272 35.8021 220.036 35.0383 220.036 34.0961C220.036 33.1539 219.272 32.3901 218.33 32.3901C217.388 32.3901 216.624 33.1539 216.624 34.0961Z" stroke="#15A690" stroke-width="1.13733"/>
<path opacity="0.7" d="M216.624 39.7828C216.624 40.725 217.388 41.4888 218.33 41.4888C219.272 41.4888 220.036 40.725 220.036 39.7828C220.036 38.8406 219.272 38.0768 218.33 38.0768C217.388 38.0768 216.624 38.8406 216.624 39.7828Z" stroke="#15A690" stroke-width="1.13733"/>
<path opacity="0.7" d="M210.937 34.0961C210.937 35.0383 211.701 35.8021 212.643 35.8021C213.586 35.8021 214.349 35.0383 214.349 34.0961C214.349 33.1539 213.586 32.3901 212.643 32.3901C211.701 32.3901 210.937 33.1539 210.937 34.0961Z" stroke="#15A690" stroke-width="1.13733"/>
<path opacity="0.7" d="M210.937 39.7828C210.937 40.725 211.701 41.4888 212.643 41.4888C213.586 41.4888 214.349 40.725 214.349 39.7828C214.349 38.8406 213.586 38.0768 212.643 38.0768C211.701 38.0768 210.937 38.8406 210.937 39.7828Z" stroke="#15A690" stroke-width="1.13733"/>
</g>
<g opacity="0.7" clip-path="url(#clip17_1103_99)">
<path opacity="0.49" d="M24.7583 66.5728C24.7583 67.9821 25.9008 69.1246 27.3102 69.1246C28.7195 69.1246 29.8621 67.9821 29.8621 66.5728C29.8621 65.1634 28.7195 64.0209 27.3102 64.0209C25.9008 64.0209 24.7583 65.1634 24.7583 66.5728Z" stroke="#15A690" stroke-width="1.27594"/>
</g>
<g opacity="0.7" clip-path="url(#clip18_1103_99)">
<path opacity="0.7" d="M60.1776 64.4564C64.3225 61.2028 70.4304 62.8394 72.3933 67.7296C68.2483 70.9832 62.1404 69.3466 60.1776 64.4564Z" stroke="#15A690" stroke-width="1.05389"/>
<path opacity="0.7" d="M72.3934 67.7296L79.3195 66.3123L76.4653 68.8206L77.6829 72.4201L72.3934 67.7296Z" stroke="#15A690" stroke-width="1.05389"/>
<path opacity="0.7" d="M64.1812 65.802C64.6029 65.915 65.0363 65.6647 65.1493 65.2431C65.2623 64.8214 65.012 64.388 64.5904 64.275C64.1687 64.162 63.7353 64.4123 63.6223 64.8339C63.5093 65.2556 63.7596 65.689 64.1812 65.802Z" fill="#15A690"/>
</g>
<g opacity="0.7" clip-path="url(#clip19_1103_99)">
<path opacity="0.7" d="M89.1172 77.0349V63.579C89.1172 61.1019 87.1091 59.0938 84.6319 59.0938C82.1548 59.0938 80.1466 61.1019 80.1466 63.579V77.0349C80.1466 79.512 82.1548 81.5202 84.6319 81.5202C87.1091 81.5202 89.1172 79.512 89.1172 77.0349Z" stroke="#15A690" stroke-width="1.12132"/>
</g>
<g opacity="0.7" clip-path="url(#clip20_1103_99)">
<path opacity="0.7" d="M113.303 62.5169C112.084 64.6277 112.807 67.3267 114.918 68.5453C117.029 69.764 119.728 69.0408 120.946 66.93C122.165 64.8193 121.442 62.1202 119.331 60.9016C117.22 59.683 114.521 60.4062 113.303 62.5169Z" stroke="#15A690" stroke-width="1.10327"/>
<path opacity="0.7" d="M118.779 61.8571L115.469 67.5898" stroke="#15A690" stroke-width="1.10327"/>
</g>
<g opacity="0.7" clip-path="url(#clip21_1103_99)">
<path opacity="0.49" d="M153.939 62.938C155.168 63.2672 156.431 62.5381 156.76 61.3095C157.089 60.0808 156.36 58.818 155.132 58.4888C153.903 58.1596 152.64 58.8887 152.311 60.1173C151.982 61.3459 152.711 62.6088 153.939 62.938Z" stroke="#15A690" stroke-width="1.15154"/>
</g>
<g opacity="0.7" clip-path="url(#clip22_1103_99)">
<path opacity="0.49" d="M179.282 64.0189C179.282 64.9316 180.022 65.6715 180.934 65.6715C181.847 65.6715 182.587 64.9316 182.587 64.0189C182.587 63.1062 181.847 62.3663 180.934 62.3663C180.022 62.3663 179.282 63.1062 179.282 64.0189Z" stroke="#15A690" stroke-width="0.826294"/>
</g>
<g opacity="0.7" clip-path="url(#clip23_1103_99)">
<path opacity="0.7" d="M215.928 69.5192L214.62 67.2538C213.536 65.377 211.136 64.734 209.26 65.8175L201.33 70.3954C199.454 71.479 198.811 73.8788 199.894 75.7555L201.202 78.021C202.286 79.8978 204.686 80.5408 206.562 79.4572L214.491 74.8794C216.368 73.7958 217.011 71.396 215.928 69.5192Z" stroke="#15A690" stroke-width="1.30796"/>
<path opacity="0.7" d="M221.113 68.036L218.497 63.505C218.136 62.8795 217.336 62.6651 216.71 63.0263L213.312 64.9882C212.686 65.3494 212.472 66.1494 212.833 66.775L215.449 71.3059C215.81 71.9315 216.61 72.1458 217.236 71.7846L220.634 69.8227C221.26 69.4615 221.474 68.6616 221.113 68.036Z" stroke="#15A690" stroke-width="1.30796"/>
<path opacity="0.7" d="M207.169 70.045L209.785 74.5759M210.743 71.0025L206.212 73.6184" stroke="#15A690" stroke-width="1.30796"/>
</g>
<g opacity="0.7" clip-path="url(#clip24_1103_99)">
<path opacity="0.49" d="M10.4205 100.983C11.1299 102.212 12.701 102.633 13.9296 101.924C15.1583 101.214 15.5792 99.6431 14.8699 98.4145C14.1605 97.1858 12.5894 96.7649 11.3608 97.4742C10.1321 98.1836 9.71117 99.7547 10.4205 100.983Z" stroke="#15A690" stroke-width="1.28441"/>
</g>
<g opacity="0.7" clip-path="url(#clip25_1103_99)">
<path opacity="0.49" d="M44.714 94.6191C45.6479 95.1583 46.8422 94.8383 47.3814 93.9043C47.9206 92.9704 47.6006 91.7762 46.6666 91.237C45.7327 90.6977 44.5385 91.0177 43.9993 91.9517C43.46 92.8856 43.78 94.0799 44.714 94.6191Z" stroke="#15A690" stroke-width="0.976332"/>
</g>
<g opacity="0.7" clip-path="url(#clip26_1103_99)">
<path opacity="0.49" d="M74.3747 87.5936C73.7644 88.6506 74.1266 90.0022 75.1836 90.6125C76.2407 91.2228 77.5923 90.8606 78.2026 89.8036C78.8129 88.7466 78.4507 87.3949 77.3937 86.7846C76.3366 86.1743 74.985 86.5365 74.3747 87.5936Z" stroke="#15A690" stroke-width="1.10502"/>
</g>
<g opacity="0.7" clip-path="url(#clip27_1103_99)">
<path opacity="0.7" d="M114.487 110.458L106.897 97.3118C105.5 94.8916 102.405 94.0624 99.985 95.4597C97.5648 96.857 96.7356 99.9517 98.1329 102.372L105.723 115.518C107.12 117.939 110.215 118.768 112.635 117.371C115.055 115.973 115.885 112.879 114.487 110.458Z" stroke="#15A690" stroke-width="1.26502"/>
</g>
<g opacity="0.7" clip-path="url(#clip28_1103_99)">
<path opacity="0.7" d="M147.024 95.8453L137.251 93.2269C135.902 92.8653 134.515 93.6661 134.154 95.0153L129.571 112.117C129.21 113.466 130.011 114.853 131.36 115.214L141.132 117.833C142.481 118.194 143.868 117.394 144.23 116.044L148.812 98.943C149.174 97.5937 148.373 96.2069 147.024 95.8453Z" stroke="#15A690" stroke-width="1.26461"/>
<path opacity="0.7" d="M136.673 100.273C137.685 100.544 138.725 99.9432 138.996 98.9313C139.267 97.9193 138.666 96.8792 137.655 96.608C136.643 96.3369 135.602 96.9374 135.331 97.9493C135.06 98.9613 135.661 100.001 136.673 100.273Z" stroke="#15A690" stroke-width="1.26461"/>
<path opacity="0.7" d="M142.78 101.909C143.792 102.18 144.832 101.58 145.104 100.568C145.375 99.5558 144.774 98.5156 143.762 98.2445C142.75 97.9733 141.71 98.5739 141.439 99.5858C141.168 100.598 141.768 101.638 142.78 101.909Z" stroke="#15A690" stroke-width="1.26461"/>
<path opacity="0.7" d="M135.036 106.38C136.048 106.651 137.088 106.051 137.359 105.039C137.631 104.027 137.03 102.987 136.018 102.716C135.006 102.444 133.966 103.045 133.695 104.057C133.424 105.069 134.024 106.109 135.036 106.38Z" stroke="#15A690" stroke-width="1.26461"/>
<path opacity="0.7" d="M141.144 108.017C142.156 108.288 143.196 107.687 143.467 106.675C143.738 105.663 143.138 104.623 142.126 104.352C141.114 104.081 140.074 104.682 139.802 105.693C139.531 106.705 140.132 107.746 141.144 108.017Z" stroke="#15A690" stroke-width="1.26461"/>
<path opacity="0.7" d="M133.4 112.488C134.412 112.759 135.452 112.158 135.723 111.146C135.994 110.134 135.394 109.094 134.382 108.823C133.37 108.552 132.33 109.152 132.058 110.164C131.787 111.176 132.388 112.217 133.4 112.488Z" stroke="#15A690" stroke-width="1.26461"/>
<path opacity="0.7" d="M139.507 114.124C140.519 114.395 141.559 113.795 141.831 112.783C142.102 111.771 141.501 110.731 140.489 110.46C139.477 110.189 138.437 110.789 138.166 111.801C137.895 112.813 138.495 113.853 139.507 114.124Z" stroke="#15A690" stroke-width="1.26461"/>
</g>
<g opacity="0.7" clip-path="url(#clip29_1103_99)">
<path opacity="0.7" d="M160.317 81.8848C157.789 83.3448 156.922 86.5783 158.382 89.1071C159.842 91.6359 163.076 92.5024 165.605 91.0424C168.133 89.5824 169 86.3488 167.54 83.82C166.08 81.2912 162.846 80.4248 160.317 81.8848Z" stroke="#15A690" stroke-width="1.32178"/>
<path opacity="0.7" d="M166.395 84.4808L159.527 88.4462" stroke="#15A690" stroke-width="1.32178"/>
</g>
<g opacity="0.7" clip-path="url(#clip30_1103_99)">
<path opacity="0.7" d="M202.118 105.698L199.86 104.394C197.988 103.314 195.596 103.955 194.516 105.826L189.952 113.731C188.872 115.602 189.513 117.995 191.384 119.075L193.642 120.379C195.513 121.459 197.906 120.818 198.986 118.947L203.55 111.042C204.63 109.171 203.989 106.778 202.118 105.698Z" stroke="#15A690" stroke-width="1.30398"/>
<path opacity="0.7" d="M205.855 101.833L201.338 99.2252C200.714 98.8651 199.917 99.0788 199.557 99.7025L197.601 103.09C197.241 103.714 197.454 104.512 198.078 104.872L202.595 107.48C203.219 107.84 204.016 107.626 204.376 107.002L206.332 103.614C206.693 102.991 206.479 102.193 205.855 101.833Z" stroke="#15A690" stroke-width="1.30398"/>
<path opacity="0.7" d="M194.818 110.518L199.335 113.126M198.381 109.563L195.773 114.08" stroke="#15A690" stroke-width="1.30398"/>
</g>
<g opacity="0.7" clip-path="url(#clip31_1103_99)">
<path opacity="0.7" d="M215.493 103.738L229.149 95.8538C231.034 94.7653 231.68 92.3544 230.592 90.469C229.503 88.5835 227.092 87.9375 225.207 89.0261L211.551 96.9101C209.666 97.9986 209.02 100.409 210.108 102.295C211.197 104.18 213.608 104.826 215.493 103.738Z" stroke="#15A690" stroke-width="1.314"/>
<path opacity="0.7" d="M219.869 98.1769L222.145 96.8629C222.773 96.5001 222.989 95.6965 222.626 95.068C222.263 94.4395 221.459 94.2242 220.831 94.587L218.555 95.901C217.926 96.2639 217.711 97.0675 218.074 97.696C218.437 98.3244 219.24 98.5398 219.869 98.1769Z" stroke="#15A690" stroke-width="1.314"/>
</g>
<g opacity="0.7" clip-path="url(#clip32_1103_99)">
<path opacity="0.7" d="M2.98135 138.399L0.2242 128.11C-0.156483 126.689 -1.61682 125.846 -3.03754 126.226L-21.0447 131.051C-22.4655 131.432 -23.3086 132.892 -22.9279 134.313L-20.1708 144.603C-19.7901 146.024 -18.3297 146.867 -16.909 146.486L1.09818 141.661C2.51891 141.28 3.36203 139.82 2.98135 138.399Z" stroke="#15A690" stroke-width="1.3316"/>
<path opacity="0.7" d="M-4.78215 137.723C-4.49664 138.788 -3.40139 139.42 -2.33584 139.135C-1.27029 138.849 -0.637952 137.754 -0.923464 136.689C-1.20898 135.623 -2.30423 134.991 -3.36977 135.276C-4.43532 135.562 -5.06766 136.657 -4.78215 137.723Z" stroke="#15A690" stroke-width="1.3316"/>
</g>
<g opacity="0.7" clip-path="url(#clip33_1103_99)">
<path opacity="0.7" d="M27.8433 136.033C28.4314 134.269 30.7838 134.269 31.3719 132.505C31.96 130.74 34.3124 130.74 34.9005 128.976" stroke="#15A690" stroke-width="0.831699"/>
<path opacity="0.7" d="M26.6673 134.857C27.2554 133.093 29.6078 133.093 30.1959 131.328C30.784 129.564 33.1364 129.564 33.7245 127.8" stroke="#15A690" stroke-width="0.831699"/>
<path opacity="0.7" d="M29.0198 137.21C29.6079 135.445 31.9603 135.445 32.5484 133.681C33.1365 131.917 35.4889 131.917 36.077 130.152" stroke="#15A690" stroke-width="0.831699"/>
</g>
<g opacity="0.7" clip-path="url(#clip34_1103_99)">
<path opacity="0.7" d="M58.8449 128.289C60.5615 130.006 63.3447 130.006 65.0614 128.289C66.778 126.573 66.778 123.79 65.0614 122.073C63.3447 120.356 60.5615 120.356 58.8449 122.073C57.1282 123.79 57.1282 126.573 58.8449 128.289Z" stroke="#15A690" stroke-width="1.09894"/>
<path opacity="0.7" d="M59.6218 122.85L64.2842 127.512" stroke="#15A690" stroke-width="1.09894"/>
</g>
<g opacity="0.7" clip-path="url(#clip35_1103_99)">
<path opacity="0.7" d="M100.528 120.308H91.1893C89.9 120.308 88.8547 121.353 88.8547 122.643V138.985C88.8547 140.274 89.9 141.319 91.1893 141.319H100.528C101.817 141.319 102.862 140.274 102.862 138.985V122.643C102.862 121.353 101.817 120.308 100.528 120.308Z" stroke="#15A690" stroke-width="1.1673"/>
<path opacity="0.7" d="M92.3567 126.728C93.3237 126.728 94.1076 125.944 94.1076 124.977C94.1076 124.01 93.3237 123.226 92.3567 123.226C91.3896 123.226 90.6057 124.01 90.6057 124.977C90.6057 125.944 91.3896 126.728 92.3567 126.728Z" stroke="#15A690" stroke-width="1.1673"/>
<path opacity="0.7" d="M98.1931 126.728C99.1601 126.728 99.944 125.944 99.944 124.977C99.944 124.01 99.1601 123.226 98.1931 123.226C97.2261 123.226 96.4421 124.01 96.4421 124.977C96.4421 125.944 97.2261 126.728 98.1931 126.728Z" stroke="#15A690" stroke-width="1.1673"/>
<path opacity="0.7" d="M92.3567 132.565C93.3237 132.565 94.1076 131.781 94.1076 130.814C94.1076 129.847 93.3237 129.063 92.3567 129.063C91.3896 129.063 90.6057 129.847 90.6057 130.814C90.6057 131.781 91.3896 132.565 92.3567 132.565Z" stroke="#15A690" stroke-width="1.1673"/>
<path opacity="0.7" d="M98.1931 132.565C99.1601 132.565 99.944 131.781 99.944 130.814C99.944 129.847 99.1601 129.063 98.1931 129.063C97.2261 129.063 96.4421 129.847 96.4421 130.814C96.4421 131.781 97.2261 132.565 98.1931 132.565Z" stroke="#15A690" stroke-width="1.1673"/>
<path opacity="0.7" d="M92.3567 138.401C93.3237 138.401 94.1076 137.617 94.1076 136.65C94.1076 135.683 93.3237 134.899 92.3567 134.899C91.3896 134.899 90.6057 135.683 90.6057 136.65C90.6057 137.617 91.3896 138.401 92.3567 138.401Z" stroke="#15A690" stroke-width="1.1673"/>
<path opacity="0.7" d="M98.1931 138.401C99.1601 138.401 99.944 137.617 99.944 136.65C99.944 135.683 99.1601 134.899 98.1931 134.899C97.2261 134.899 96.4421 135.683 96.4421 136.65C96.4421 137.617 97.2261 138.401 98.1931 138.401Z" stroke="#15A690" stroke-width="1.1673"/>
</g>
<g opacity="0.7" clip-path="url(#clip36_1103_99)">
<path opacity="0.7" d="M132.141 123.446L122.45 120.849C121.112 120.491 119.737 121.285 119.378 122.623L114.834 139.582C114.475 140.92 115.269 142.295 116.608 142.654L126.299 145.251C127.637 145.609 129.012 144.815 129.37 143.477L133.915 126.518C134.273 125.18 133.479 123.804 132.141 123.446Z" stroke="#15A690" stroke-width="1.2541"/>
<path opacity="0.7" d="M121.877 127.836C122.88 128.105 123.912 127.51 124.18 126.506C124.449 125.503 123.854 124.471 122.85 124.202C121.847 123.933 120.815 124.529 120.546 125.532C120.277 126.536 120.873 127.567 121.877 127.836Z" stroke="#15A690" stroke-width="1.2541"/>
<path opacity="0.7" d="M127.933 129.459C128.937 129.728 129.968 129.133 130.237 128.129C130.506 127.126 129.91 126.094 128.907 125.825C127.903 125.556 126.872 126.152 126.603 127.155C126.334 128.159 126.93 129.19 127.933 129.459Z" stroke="#15A690" stroke-width="1.2541"/>
<path opacity="0.7" d="M120.253 133.893C121.257 134.162 122.288 133.567 122.557 132.563C122.826 131.559 122.231 130.528 121.227 130.259C120.224 129.99 119.192 130.586 118.923 131.589C118.654 132.593 119.25 133.624 120.253 133.893Z" stroke="#15A690" stroke-width="1.2541"/>
<path opacity="0.7" d="M126.31 135.516C127.314 135.785 128.345 135.189 128.614 134.186C128.883 133.182 128.288 132.151 127.284 131.882C126.281 131.613 125.249 132.209 124.98 133.212C124.711 134.216 125.307 135.247 126.31 135.516Z" stroke="#15A690" stroke-width="1.2541"/>
<path opacity="0.7" d="M118.63 139.95C119.634 140.219 120.665 139.623 120.934 138.62C121.203 137.616 120.608 136.585 119.604 136.316C118.601 136.047 117.569 136.643 117.3 137.646C117.031 138.65 117.627 139.681 118.63 139.95Z" stroke="#15A690" stroke-width="1.2541"/>
<path opacity="0.7" d="M124.687 141.573C125.691 141.842 126.722 141.246 126.991 140.243C127.26 139.239 126.665 138.208 125.661 137.939C124.658 137.67 123.626 138.265 123.357 139.269C123.088 140.272 123.684 141.304 124.687 141.573Z" stroke="#15A690" stroke-width="1.2541"/>
</g>
<g opacity="0.7" clip-path="url(#clip37_1103_99)">
<path opacity="0.49" d="M150.404 127.668C151.298 128.562 152.748 128.562 153.643 127.668C154.537 126.773 154.537 125.323 153.643 124.429C152.748 123.535 151.298 123.535 150.404 124.429C149.51 125.323 149.51 126.773 150.404 127.668Z" stroke="#15A690" stroke-width="1.14507"/>
</g>
<g opacity="0.7" clip-path="url(#clip38_1103_99)">
<path opacity="0.49" d="M176.454 125.259C175.956 126.122 176.251 127.224 177.114 127.722C177.976 128.22 179.079 127.925 179.577 127.062C180.074 126.2 179.779 125.097 178.917 124.6C178.054 124.102 176.952 124.397 176.454 125.259Z" stroke="#15A690" stroke-width="0.901464"/>
</g>
<g opacity="0.7" clip-path="url(#clip39_1103_99)">
<path opacity="0.7" d="M205.186 124.525C205.186 120.844 209.275 120.435 210.911 124.525C209.275 128.614 205.186 128.205 205.186 124.525Z" stroke="#15A690" stroke-width="0.817932"/>
<path opacity="0.7" d="M210.093 124.525H206.003M209.275 122.889L206.003 123.707M209.275 126.161L206.003 125.343" stroke="#15A690" stroke-width="0.817932"/>
</g>
<g opacity="0.7" clip-path="url(#clip40_1103_99)">
<path opacity="0.7" d="M18.6624 160.031C21.7511 155.912 27.9286 155.912 31.0173 160.031C27.9286 164.149 21.7511 164.149 18.6624 160.031Z" stroke="#15A690" stroke-width="1.02958"/>
<path opacity="0.7" d="M31.0173 160.031L37.1948 156.942L35.1357 160.031L37.1948 163.119L31.0173 160.031Z" stroke="#15A690" stroke-width="1.02958"/>
<path opacity="0.7" d="M22.7807 160.288C23.2072 160.288 23.5529 159.942 23.5529 159.516C23.5529 159.089 23.2072 158.744 22.7807 158.744C22.3543 158.744 22.0085 159.089 22.0085 159.516C22.0085 159.942 22.3543 160.288 22.7807 160.288Z" fill="#15A690"/>
</g>
<g opacity="0.7" clip-path="url(#clip41_1103_99)">
<path opacity="0.7" d="M44.9448 165.459C47.4606 166.133 50.0464 164.64 50.7205 162.124C51.3946 159.609 49.9016 157.023 47.3859 156.349C44.8702 155.675 42.2844 157.168 41.6103 159.683C40.9362 162.199 42.4291 164.785 44.9448 165.459Z" stroke="#15A690" stroke-width="1.17895"/>
<path opacity="0.7" d="M42.749 159.988L49.5817 161.819" stroke="#15A690" stroke-width="1.17895"/>
</g>
<g opacity="0.7" clip-path="url(#clip42_1103_99)">
<path opacity="0.7" d="M84.9477 158.353L77.5401 154.077C76.5174 153.486 75.2095 153.837 74.619 154.859L67.1347 167.823C66.5442 168.845 66.8947 170.153 67.9174 170.744L75.325 175.02C76.3478 175.611 77.6556 175.26 78.2461 174.238L85.7304 161.274C86.3209 160.252 85.9704 158.944 84.9477 158.353Z" stroke="#15A690" stroke-width="1.06919"/>
<path opacity="0.7" d="M75.5256 159.704C76.2927 160.147 77.2735 159.884 77.7164 159.117C78.1593 158.35 77.8965 157.369 77.1294 156.926C76.3623 156.483 75.3815 156.746 74.9386 157.513C74.4957 158.28 74.7585 159.261 75.5256 159.704Z" stroke="#15A690" stroke-width="1.06919"/>
<path opacity="0.7" d="M80.1555 162.377C80.9226 162.82 81.9034 162.557 82.3463 161.79C82.7892 161.023 82.5264 160.042 81.7593 159.599C80.9922 159.156 80.0113 159.419 79.5685 160.186C79.1256 160.953 79.3884 161.934 80.1555 162.377Z" stroke="#15A690" stroke-width="1.06919"/>
<path opacity="0.7" d="M72.8528 164.334C73.6198 164.777 74.6007 164.514 75.0436 163.747C75.4864 162.98 75.2236 161.999 74.4565 161.556C73.6895 161.113 72.7086 161.376 72.2657 162.143C71.8229 162.91 72.0857 163.891 72.8528 164.334Z" stroke="#15A690" stroke-width="1.06919"/>
<path opacity="0.7" d="M77.4826 167.007C78.2497 167.449 79.2306 167.187 79.6735 166.42C80.1163 165.653 79.8535 164.672 79.0864 164.229C78.3193 163.786 77.3385 164.049 76.8956 164.816C76.4527 165.583 76.7156 166.564 77.4826 167.007Z" stroke="#15A690" stroke-width="1.06919"/>
<path opacity="0.7" d="M70.1799 168.963C70.947 169.406 71.9278 169.143 72.3707 168.376C72.8136 167.609 72.5508 166.628 71.7837 166.186C71.0166 165.743 70.0358 166.006 69.5929 166.773C69.15 167.54 69.4128 168.521 70.1799 168.963Z" stroke="#15A690" stroke-width="1.06919"/>
<path opacity="0.7" d="M74.8095 171.636C75.5766 172.079 76.5575 171.816 77.0004 171.049C77.4432 170.282 77.1804 169.301 76.4133 168.858C75.6463 168.416 74.6654 168.678 74.2225 169.445C73.7797 170.213 74.0425 171.193 74.8095 171.636Z" stroke="#15A690" stroke-width="1.06919"/>
</g>
<g opacity="0.7">
<path opacity="0.7" d="M108.88 163.024C104.416 161.827 105.249 156.734 110.741 156.079C115.17 159.392 113.345 164.22 108.88 163.024Z" stroke="#15A690" stroke-width="1.02707"/>
<path opacity="0.7" d="M110.475 157.071L109.146 162.032M108.225 157.532L108.154 161.766M112.194 158.595L110.138 162.297" stroke="#15A690" stroke-width="1.02707"/>
</g>
<g opacity="0.7" clip-path="url(#clip43_1103_99)">
<path opacity="0.7" d="M122.418 136.685C124.537 138.084 123.706 141.186 125.824 142.585C127.943 143.984 127.112 147.086 129.231 148.485" stroke="#15A690" stroke-width="1.13545"/>
<path opacity="0.7" d="M124.385 135.55C126.503 136.949 125.672 140.051 127.791 141.45C129.91 142.849 129.079 145.951 131.197 147.35" stroke="#15A690" stroke-width="1.13545"/>
<path opacity="0.7" d="M120.452 137.821C122.57 139.219 121.739 142.322 123.858 143.72C125.977 145.119 125.145 148.222 127.264 149.62" stroke="#15A690" stroke-width="1.13545"/>
</g>
<g opacity="0.7" clip-path="url(#clip44_1103_99)">
<path opacity="0.7" d="M158.03 163.907L163.175 154.994C164.123 153.354 163.561 151.256 161.92 150.308C160.279 149.361 158.181 149.923 157.234 151.564L152.088 160.476C151.141 162.117 151.703 164.215 153.344 165.162C154.984 166.11 157.082 165.548 158.03 163.907Z" stroke="#15A690" stroke-width="0.857609"/>
</g>
<g opacity="0.7" clip-path="url(#clip45_1103_99)">
<path opacity="0.7" d="M192.137 173.573C192.308 170.719 195.801 169.783 195.972 166.929C196.144 164.075 199.637 163.139 199.808 160.285" stroke="#15A690" stroke-width="1.27858"/>
<path opacity="0.7" d="M189.922 172.294C190.093 169.44 193.587 168.504 193.758 165.65C193.929 162.797 197.422 161.861 197.594 159.007" stroke="#15A690" stroke-width="1.27858"/>
<path opacity="0.7" d="M194.351 174.851C194.523 171.997 198.016 171.061 198.187 168.208C198.358 165.354 201.851 164.418 202.023 161.564" stroke="#15A690" stroke-width="1.27858"/>
</g>
<g opacity="0.7" clip-path="url(#clip46_1103_99)">
<path opacity="0.7" d="M215.07 155.043C217.127 151.48 221.314 153.37 220.611 158.242C216.743 161.286 213.013 158.605 215.07 155.043Z" stroke="#15A690" stroke-width="0.914163"/>
<path opacity="0.7" d="M219.82 157.785L215.862 155.5M219.942 155.745L216.319 154.708M218.114 158.911L215.404 156.291" stroke="#15A690" stroke-width="0.914163"/>
</g>
<g opacity="0.7" clip-path="url(#clip47_1103_99)">
<path opacity="0.7" d="M8.7655 197.391L3.65935 188.547C2.95434 187.326 1.3929 186.907 0.171786 187.612C-1.04933 188.317 -1.46772 189.879 -0.762704 191.1L4.34344 199.944C5.04845 201.165 6.60989 201.584 7.83101 200.879C9.05212 200.174 9.47051 198.612 8.7655 197.391Z" stroke="#15A690" stroke-width="0.851024"/>
<path opacity="0.7" d="M5.16399 194.557L4.31296 193.083C4.07796 192.676 3.55748 192.536 3.15044 192.771C2.7434 193.006 2.60394 193.527 2.83895 193.934L3.68997 195.408C3.92497 195.815 4.44545 195.954 4.85249 195.719C5.25953 195.484 5.39899 194.964 5.16399 194.557Z" stroke="#15A690" stroke-width="0.851024"/>
</g>
<g opacity="0.7" clip-path="url(#clip48_1103_99)">
<path opacity="0.7" d="M40.2567 180.854H30.7347C29.42 180.854 28.3542 181.92 28.3542 183.235V199.898C28.3542 201.213 29.42 202.279 30.7347 202.279H40.2567C41.5714 202.279 42.6372 201.213 42.6372 199.898V183.235C42.6372 181.92 41.5714 180.854 40.2567 180.854Z" stroke="#15A690" stroke-width="1.19025"/>
<path opacity="0.7" d="M31.925 187.401C32.9111 187.401 33.7104 186.601 33.7104 185.615C33.7104 184.629 32.9111 183.83 31.925 183.83C30.939 183.83 30.1396 184.629 30.1396 185.615C30.1396 186.601 30.939 187.401 31.925 187.401Z" stroke="#15A690" stroke-width="1.19025"/>
<path opacity="0.7" d="M37.8762 187.401C38.8622 187.401 39.6616 186.601 39.6616 185.615C39.6616 184.629 38.8622 183.83 37.8762 183.83C36.8902 183.83 36.0908 184.629 36.0908 185.615C36.0908 186.601 36.8902 187.401 37.8762 187.401Z" stroke="#15A690" stroke-width="1.19025"/>
<path opacity="0.7" d="M31.925 193.352C32.9111 193.352 33.7104 192.553 33.7104 191.567C33.7104 190.58 32.9111 189.781 31.925 189.781C30.939 189.781 30.1396 190.58 30.1396 191.567C30.1396 192.553 30.939 193.352 31.925 193.352Z" stroke="#15A690" stroke-width="1.19025"/>
<path opacity="0.7" d="M37.8762 193.352C38.8622 193.352 39.6616 192.553 39.6616 191.567C39.6616 190.58 38.8622 189.781 37.8762 189.781C36.8902 189.781 36.0908 190.58 36.0908 191.567C36.0908 192.553 36.8902 193.352 37.8762 193.352Z" stroke="#15A690" stroke-width="1.19025"/>
<path opacity="0.7" d="M31.925 199.303C32.9111 199.303 33.7104 198.504 33.7104 197.518C33.7104 196.532 32.9111 195.732 31.925 195.732C30.939 195.732 30.1396 196.532 30.1396 197.518C30.1396 198.504 30.939 199.303 31.925 199.303Z" stroke="#15A690" stroke-width="1.19025"/>
<path opacity="0.7" d="M37.8762 199.303C38.8622 199.303 39.6616 198.504 39.6616 197.518C39.6616 196.532 38.8622 195.732 37.8762 195.732C36.8902 195.732 36.0908 196.532 36.0908 197.518C36.0908 198.504 36.8902 199.303 37.8762 199.303Z" stroke="#15A690" stroke-width="1.19025"/>
</g>
<g opacity="0.7" clip-path="url(#clip49_1103_99)">
<path opacity="0.7" d="M46.4851 197.119L59.8732 189.389C62.3379 187.966 63.1824 184.814 61.7594 182.35C60.3364 179.885 57.1848 179.041 54.7201 180.464L41.332 188.193C38.8673 189.616 38.0228 192.768 39.4458 195.233C40.8688 197.697 44.0204 198.542 46.4851 197.119Z" stroke="#15A690" stroke-width="1.28827"/>
</g>
<g opacity="0.7" clip-path="url(#clip50_1103_99)">
<path opacity="0.7" d="M91.7433 193.546L90.3432 192.738C89.1834 192.068 87.7003 192.465 87.0307 193.625L84.2016 198.525C83.532 199.685 83.9294 201.168 85.0892 201.838L86.4892 202.646C87.6491 203.316 89.1321 202.918 89.8018 201.759L92.6309 196.858C93.3005 195.699 92.9031 194.216 91.7433 193.546Z" stroke="#15A690" stroke-width="0.808314"/>
<path opacity="0.7" d="M94.0602 191.15L91.2601 189.533C90.8735 189.31 90.3791 189.443 90.1559 189.829L88.9434 191.929C88.7202 192.316 88.8527 192.81 89.2393 193.033L92.0394 194.65C92.426 194.873 92.9203 194.741 93.1436 194.354L94.356 192.254C94.5792 191.868 94.4468 191.373 94.0602 191.15Z" stroke="#15A690" stroke-width="0.808314"/>
<path opacity="0.7" d="M87.2185 196.534L90.0186 198.15M89.4269 195.942L87.8103 198.742" stroke="#15A690" stroke-width="0.808314"/>
</g>
<g opacity="0.7" clip-path="url(#clip51_1103_99)">
<path opacity="0.7" d="M114.67 174.079C112.476 174.079 110.697 175.859 110.697 178.053C110.697 180.248 112.476 182.027 114.67 182.027C116.865 182.027 118.644 180.248 118.644 178.053C118.644 175.859 116.865 174.079 114.67 174.079Z" stroke="#15A690" stroke-width="0.993409"/>
<path opacity="0.7" d="M117.651 178.053H111.69" stroke="#15A690" stroke-width="0.993409"/>
</g>
<g opacity="0.7" clip-path="url(#clip52_1103_99)">
<path opacity="0.7" d="M138.139 179.138H146.157C147.264 179.138 148.162 178.241 148.162 177.134V163.103C148.162 161.995 147.264 161.098 146.157 161.098H138.139C137.032 161.098 136.135 161.995 136.135 163.103V177.134C136.135 178.241 137.032 179.138 138.139 179.138Z" stroke="#15A690" stroke-width="1.00224"/>
<path opacity="0.7" d="M145.155 173.626C144.325 173.626 143.652 174.299 143.652 175.129C143.652 175.96 144.325 176.633 145.155 176.633C145.985 176.633 146.658 175.96 146.658 175.129C146.658 174.299 145.985 173.626 145.155 173.626Z" stroke="#15A690" stroke-width="1.00224"/>
<path opacity="0.7" d="M140.144 173.626C139.314 173.626 138.64 174.299 138.64 175.129C138.64 175.96 139.314 176.633 140.144 176.633C140.974 176.633 141.647 175.96 141.647 175.129C141.647 174.299 140.974 173.626 140.144 173.626Z" stroke="#15A690" stroke-width="1.00224"/>
<path opacity="0.7" d="M145.155 168.615C144.325 168.615 143.652 169.288 143.652 170.118C143.652 170.949 144.325 171.622 145.155 171.622C145.985 171.622 146.658 170.949 146.658 170.118C146.658 169.288 145.985 168.615 145.155 168.615Z" stroke="#15A690" stroke-width="1.00224"/>
<path opacity="0.7" d="M140.144 168.615C139.314 168.615 138.64 169.288 138.64 170.118C138.64 170.949 139.314 171.622 140.144 171.622C140.974 171.622 141.647 170.949 141.647 170.118C141.647 169.288 140.974 168.615 140.144 168.615Z" stroke="#15A690" stroke-width="1.00224"/>
<path opacity="0.7" d="M145.155 163.603C144.325 163.603 143.652 164.277 143.652 165.107C143.652 165.937 144.325 166.61 145.155 166.61C145.985 166.61 146.658 165.937 146.658 165.107C146.658 164.277 145.985 163.603 145.155 163.603Z" stroke="#15A690" stroke-width="1.00224"/>
<path opacity="0.7" d="M140.144 163.603C139.314 163.603 138.64 164.277 138.64 165.107C138.64 165.937 139.314 166.61 140.144 166.61C140.974 166.61 141.647 165.937 141.647 165.107C141.647 164.277 140.974 163.603 140.144 163.603Z" stroke="#15A690" stroke-width="1.00224"/>
</g>
<g opacity="0.7" clip-path="url(#clip53_1103_99)">
<path opacity="0.49" d="M180.7 186.147C180.951 187.086 181.916 187.642 182.854 187.391C183.792 187.14 184.349 186.175 184.097 185.237C183.846 184.299 182.882 183.742 181.943 183.994C181.005 184.245 180.448 185.209 180.7 186.147Z" stroke="#15A690" stroke-width="0.879311"/>
</g>
<g opacity="0.7" clip-path="url(#clip54_1103_99)">
<path opacity="0.7" d="M217.38 193.302L214.031 187.5C213.568 186.699 212.544 186.425 211.743 186.887L201.591 192.749C200.79 193.211 200.516 194.235 200.978 195.036L204.327 200.838C204.79 201.639 205.814 201.913 206.615 201.451L216.767 195.589C217.568 195.127 217.843 194.103 217.38 193.302Z" stroke="#15A690" stroke-width="0.837346"/>
<path opacity="0.7" d="M210.461 190.528C210.808 191.129 211.576 191.335 212.177 190.988C212.778 190.641 212.983 189.873 212.637 189.272C212.29 188.671 211.522 188.466 210.921 188.812C210.32 189.159 210.114 189.927 210.461 190.528Z" stroke="#15A690" stroke-width="0.837346"/>
<path opacity="0.7" d="M212.555 194.154C212.901 194.755 213.67 194.961 214.27 194.614C214.871 194.267 215.077 193.499 214.73 192.898C214.383 192.297 213.615 192.091 213.014 192.438C212.414 192.785 212.208 193.553 212.555 194.154Z" stroke="#15A690" stroke-width="0.837346"/>
<path opacity="0.7" d="M206.835 192.622C207.182 193.222 207.95 193.428 208.551 193.081C209.152 192.735 209.358 191.966 209.011 191.366C208.664 190.765 207.896 190.559 207.295 190.906C206.694 191.253 206.488 192.021 206.835 192.622Z" stroke="#15A690" stroke-width="0.837346"/>
<path opacity="0.7" d="M208.929 196.247C209.275 196.848 210.044 197.054 210.644 196.707C211.245 196.36 211.451 195.592 211.104 194.991C210.757 194.391 209.989 194.185 209.388 194.532C208.788 194.879 208.582 195.647 208.929 196.247Z" stroke="#15A690" stroke-width="0.837346"/>
<path opacity="0.7" d="M203.209 194.715C203.556 195.316 204.324 195.522 204.925 195.175C205.526 194.828 205.732 194.06 205.385 193.459C205.038 192.858 204.27 192.653 203.669 192.999C203.068 193.346 202.863 194.114 203.209 194.715Z" stroke="#15A690" stroke-width="0.837346"/>
<path opacity="0.7" d="M205.303 198.341C205.65 198.942 206.418 199.147 207.019 198.801C207.619 198.454 207.825 197.686 207.478 197.085C207.132 196.484 206.363 196.278 205.763 196.625C205.162 196.972 204.956 197.74 205.303 198.341Z" stroke="#15A690" stroke-width="0.837346"/>
</g>
<g opacity="0.7" clip-path="url(#clip55_1103_99)">
<path opacity="0.7" d="M13.1319 199.123C13.8997 200.659 12.364 202.195 13.1319 203.73C13.8997 205.266 12.364 206.802 13.1319 208.337" stroke="#15A690" stroke-width="0.767827"/>
<path opacity="0.7" d="M14.6675 199.123C15.4353 200.659 13.8997 202.195 14.6675 203.73C15.4353 205.266 13.8997 206.802 14.6675 208.337" stroke="#15A690" stroke-width="0.767827"/>
<path opacity="0.7" d="M11.5962 199.123C12.364 200.659 10.8284 202.195 11.5962 203.73C12.364 205.266 10.8284 206.802 11.5962 208.337" stroke="#15A690" stroke-width="0.767827"/>
</g>
<g opacity="0.7" clip-path="url(#clip56_1103_99)">
<path opacity="0.7" d="M42.5193 222.656C44.5316 223.818 47.1047 223.128 48.2665 221.116C49.4283 219.104 48.7388 216.531 46.7266 215.369C44.7143 214.207 42.1412 214.897 40.9794 216.909C39.8176 218.921 40.5071 221.494 42.5193 222.656Z" stroke="#15A690" stroke-width="1.0518"/>
<path opacity="0.7" d="M41.8904 217.435L47.3557 220.59" stroke="#15A690" stroke-width="1.0518"/>
</g>
<g opacity="0.7" clip-path="url(#clip57_1103_99)">
<path opacity="0.7" d="M71.7995 217.727C76.2772 215.814 81.3374 218.736 81.9198 223.57C77.4421 225.483 72.3819 222.561 71.7995 217.727Z" stroke="#15A690" stroke-width="0.973823"/>
<path opacity="0.7" d="M81.9196 223.57L88.4405 223.961L85.2931 225.518L85.519 229.022L81.9196 223.57Z" stroke="#15A690" stroke-width="0.973823"/>
<path opacity="0.7" d="M75.0511 219.886C75.4004 220.087 75.8471 219.968 76.0488 219.618C76.2505 219.269 76.1308 218.822 75.7814 218.621C75.4321 218.419 74.9854 218.539 74.7837 218.888C74.5821 219.237 74.7017 219.684 75.0511 219.886Z" fill="#15A690"/>
</g>
<g opacity="0.7" clip-path="url(#clip58_1103_99)">
<path opacity="0.7" d="M98.8173 208.883C100.248 209.828 99.687 211.923 101.118 212.868C102.549 213.813 101.988 215.909 103.419 216.854" stroke="#15A690" stroke-width="0.766974"/>
<path opacity="0.7" d="M100.146 208.116C101.577 209.061 101.015 211.157 102.447 212.101C103.878 213.046 103.316 215.142 104.747 216.087" stroke="#15A690" stroke-width="0.766974"/>
<path opacity="0.7" d="M97.4889 209.65C98.9201 210.595 98.3586 212.691 99.7898 213.636C101.221 214.58 100.66 216.676 102.091 217.621" stroke="#15A690" stroke-width="0.766974"/>
</g>
<g opacity="0.7" clip-path="url(#clip59_1103_99)">
<path opacity="0.7" d="M148.106 215.141L137.515 212.303C136.053 211.911 134.55 212.779 134.158 214.242C133.766 215.704 134.634 217.207 136.096 217.599L146.687 220.437C148.15 220.829 149.653 219.961 150.045 218.498C150.436 217.036 149.569 215.533 148.106 215.141Z" stroke="#15A690" stroke-width="0.913741"/>
<path opacity="0.7" d="M143.22 215.724L141.455 215.251C140.968 215.12 140.467 215.409 140.336 215.897C140.205 216.384 140.495 216.885 140.982 217.016L142.747 217.489C143.235 217.62 143.736 217.33 143.866 216.843C143.997 216.355 143.708 215.854 143.22 215.724Z" stroke="#15A690" stroke-width="0.913741"/>
</g>
<g opacity="0.7" clip-path="url(#clip60_1103_99)">
<path opacity="0.49" d="M164.538 218.072C165.259 218.793 166.429 218.793 167.15 218.072C167.871 217.35 167.871 216.181 167.15 215.459C166.429 214.738 165.259 214.738 164.538 215.459C163.816 216.181 163.816 217.35 164.538 218.072Z" stroke="#15A690" stroke-width="0.923629"/>
</g>
<g opacity="0.7" clip-path="url(#clip61_1103_99)">
<path opacity="0.7" d="M193.269 217.039C198.489 217.668 201.644 223.132 199.578 227.967C194.359 227.338 191.204 221.874 193.269 217.039Z" stroke="#15A690" stroke-width="1.05153"/>
<path opacity="0.7" d="M199.579 227.967L205.465 231.854L201.682 231.61L200.001 235.008L199.579 227.967Z" stroke="#15A690" stroke-width="1.05153"/>
<path opacity="0.7" d="M195.145 220.814C195.363 221.191 195.845 221.32 196.222 221.102C196.599 220.884 196.729 220.402 196.511 220.025C196.293 219.648 195.811 219.518 195.433 219.736C195.056 219.954 194.927 220.436 195.145 220.814Z" fill="#15A690"/>
</g>
<g opacity="0.7" clip-path="url(#clip62_1103_99)">
<path opacity="0.7" d="M245.679 215.883H230.838C228.106 215.883 225.891 218.098 225.891 220.83C225.891 223.562 228.106 225.777 230.838 225.777H245.679C248.411 225.777 250.626 223.562 250.626 220.83C250.626 218.098 248.411 215.883 245.679 215.883Z" stroke="#15A690" stroke-width="1.23678"/>
</g>
</g>
<defs>
<clipPath id="clip0_1103_99">
<rect width="244" height="244" fill="white"/>
</clipPath>
<clipPath id="clip1_1103_99">
<rect width="8.12293" height="8.12293" fill="white" transform="translate(-3.8125) rotate(30)"/>
</clipPath>
<clipPath id="clip2_1103_99">
<rect width="7.02608" height="7.02608" fill="white" transform="translate(27.6406 2.38281) rotate(15)"/>
</clipPath>
<clipPath id="clip3_1103_99">
<rect width="15.4949" height="22.1356" fill="white" transform="translate(60.5234 3.8125) rotate(150)"/>
</clipPath>
<clipPath id="clip4_1103_99">
<rect width="14.2715" height="20.3878" fill="white" transform="translate(93.8828 -0.476562) rotate(60)"/>
</clipPath>
<clipPath id="clip5_1103_99">
<rect width="19.1416" height="7.65665" fill="white" transform="translate(120.57 2.38281) rotate(30)"/>
</clipPath>
<clipPath id="clip6_1103_99">
<rect width="11.4175" height="16.3108" fill="white" transform="translate(153.453 -2.38281) rotate(15)"/>
</clipPath>
<clipPath id="clip7_1103_99">
<rect width="24.4815" height="12.2408" fill="white" transform="translate(184.43) rotate(120)"/>
</clipPath>
<clipPath id="clip8_1103_99">
<rect width="4.03782" height="4.03782" fill="white" transform="translate(211.117 1.90625) rotate(60)"/>
</clipPath>
<clipPath id="clip9_1103_99">
<rect width="15.7741" height="7.88706" fill="white" transform="translate(14.2969 27.6406) rotate(45)"/>
</clipPath>
<clipPath id="clip10_1103_99">
<rect width="22.6444" height="7.54812" fill="white" transform="matrix(0 1 -1 0 42.8906 30.0234)"/>
</clipPath>
<clipPath id="clip11_1103_99">
<rect width="15.3993" height="5.13311" fill="white" transform="translate(79.1094 31.9297) rotate(75)"/>
</clipPath>
<clipPath id="clip12_1103_99">
<rect width="15.5519" height="22.2169" fill="white" transform="translate(106.75 27.6406) rotate(30)"/>
</clipPath>
<clipPath id="clip13_1103_99">
<rect width="5.13428" height="5.13428" fill="white" transform="translate(136.773 29.0703) rotate(60)"/>
</clipPath>
<clipPath id="clip14_1103_99">
<rect width="6.22253" height="6.22253" fill="white" transform="translate(167.273 31.4531)"/>
</clipPath>
<clipPath id="clip15_1103_99">
<rect width="13.8868" height="19.8383" fill="white" transform="translate(194.914 31.4531) rotate(15)"/>
</clipPath>
<clipPath id="clip16_1103_99">
<rect width="15.9226" height="22.7466" fill="white" transform="matrix(0 1 -1 0 229.703 29.5469)"/>
</clipPath>
<clipPath id="clip17_1103_99">
<rect width="6.37971" height="6.37971" fill="white" transform="matrix(0 1 -1 0 30.5 63.3828)"/>
</clipPath>
<clipPath id="clip18_1103_99">
<rect width="21.0777" height="10.5389" fill="white" transform="translate(60.5234 59.0938) rotate(15)"/>
</clipPath>
<clipPath id="clip19_1103_99">
<rect width="22.4264" height="8.97057" fill="white" transform="matrix(0 1 -1 0 89.1172 59.0938)"/>
</clipPath>
<clipPath id="clip20_1103_99">
<rect width="9.92946" height="9.92946" fill="white" transform="translate(123.906 62.9062) rotate(120)"/>
</clipPath>
<clipPath id="clip21_1103_99">
<rect width="5.75769" height="5.75769" fill="white" transform="translate(152.5 57.1875) rotate(15)"/>
</clipPath>
<clipPath id="clip22_1103_99">
<rect width="4.13147" height="4.13147" fill="white" transform="matrix(0 1 -1 0 183 61.9531)"/>
</clipPath>
<clipPath id="clip23_1103_99">
<rect width="18.3115" height="26.1593" fill="white" transform="translate(216.359 57.1875) rotate(60)"/>
</clipPath>
<clipPath id="clip24_1103_99">
<rect width="6.42205" height="6.42205" fill="white" transform="translate(13.8203 95.3125) rotate(60)"/>
</clipPath>
<clipPath id="clip25_1103_99">
<rect width="4.88166" height="4.88166" fill="white" transform="translate(44.7969 89.5938) rotate(30)"/>
</clipPath>
<clipPath id="clip26_1103_99">
<rect width="5.52511" height="5.52511" fill="white" transform="translate(80.0625 87.6875) rotate(120)"/>
</clipPath>
<clipPath id="clip27_1103_99">
<rect width="25.3004" height="10.1202" fill="white" transform="translate(104.367 92.9297) rotate(60)"/>
</clipPath>
<clipPath id="clip28_1103_99">
<rect width="17.7046" height="25.2922" fill="white" transform="translate(133.914 91.0234) rotate(15)"/>
</clipPath>
<clipPath id="clip29_1103_99">
<rect width="11.8961" height="11.8961" fill="white" transform="translate(171.086 88.6406) rotate(150)"/>
</clipPath>
<clipPath id="clip30_1103_99">
<rect width="18.2557" height="26.0796" fill="white" transform="translate(196.344 94.8359) rotate(30)"/>
</clipPath>
<clipPath id="clip31_1103_99">
<rect width="23.6519" height="7.88397" fill="white" transform="translate(232.562 93.8828) rotate(150)"/>
</clipPath>
<clipPath id="clip32_1103_99">
<rect width="18.6424" height="26.632" fill="white" transform="translate(0.476562 123.906) rotate(75)"/>
</clipPath>
<clipPath id="clip33_1103_99">
<rect width="6.65359" height="13.3072" fill="white" transform="translate(34.3125 124.859) rotate(45)"/>
</clipPath>
<clipPath id="clip34_1103_99">
<rect width="9.89045" height="9.89045" fill="white" transform="translate(61.9531 118.188) rotate(45)"/>
</clipPath>
<clipPath id="clip35_1103_99">
<rect width="16.3422" height="23.3459" fill="white" transform="translate(87.6875 119.141)"/>
</clipPath>
<clipPath id="clip36_1103_99">
<rect width="17.5575" height="25.0821" fill="white" transform="translate(119.141 118.664) rotate(15)"/>
</clipPath>
<clipPath id="clip37_1103_99">
<rect width="5.72536" height="5.72536" fill="white" transform="translate(152.023 122) rotate(45)"/>
</clipPath>
<clipPath id="clip38_1103_99">
<rect width="4.50732" height="4.50732" fill="white" transform="translate(181.094 125.336) rotate(120)"/>
</clipPath>
<clipPath id="clip39_1103_99">
<rect width="9.81519" height="8.17932" fill="white" transform="matrix(0 1 -1 0 212.547 119.617)"/>
</clipPath>
<clipPath id="clip40_1103_99">
<rect width="20.5916" height="10.2958" fill="white" transform="translate(17.6328 154.883)"/>
</clipPath>
<clipPath id="clip41_1103_99">
<rect width="10.6105" height="10.6105" fill="white" transform="translate(42.4141 154.406) rotate(15)"/>
</clipPath>
<clipPath id="clip42_1103_99">
<rect width="14.9686" height="21.3838" fill="white" transform="translate(75.2969 151.547) rotate(30)"/>
</clipPath>
<clipPath id="clip43_1103_99">
<rect width="9.08356" height="18.1671" fill="white" transform="translate(134.867 149.164) rotate(150)"/>
</clipPath>
<clipPath id="clip44_1103_99">
<rect width="17.1522" height="6.86087" fill="white" transform="translate(164.891 152.023) rotate(120)"/>
</clipPath>
<clipPath id="clip45_1103_99">
<rect width="10.2287" height="20.4574" fill="white" transform="translate(197.297 154.406) rotate(30)"/>
</clipPath>
<clipPath id="clip46_1103_99">
<rect width="10.97" height="9.14163" fill="white" transform="translate(224.938 154.406) rotate(120)"/>
</clipPath>
<clipPath id="clip47_1103_99">
<rect width="15.3184" height="5.10615" fill="white" transform="translate(2.38281 186.336) rotate(60)"/>
</clipPath>
<clipPath id="clip48_1103_99">
<rect width="16.6635" height="23.805" fill="white" transform="translate(27.1641 179.664)"/>
</clipPath>
<clipPath id="clip49_1103_99">
<rect width="25.7655" height="10.3062" fill="white" transform="translate(64.3359 186.812) rotate(150)"/>
</clipPath>
<clipPath id="clip50_1103_99">
<rect width="11.3164" height="16.1663" fill="white" transform="translate(88.1641 186.812) rotate(30)"/>
</clipPath>
<clipPath id="clip51_1103_99">
<rect width="8.94068" height="8.94068" fill="white" transform="matrix(-1 0 0 -1 119.141 182.523)"/>
</clipPath>
<clipPath id="clip52_1103_99">
<rect width="14.0314" height="20.0449" fill="white" transform="matrix(-1 0 0 -1 149.164 180.141)"/>
</clipPath>
<clipPath id="clip53_1103_99">
<rect width="4.39655" height="4.39655" fill="white" transform="translate(183.953 183) rotate(75)"/>
</clipPath>
<clipPath id="clip54_1103_99">
<rect width="11.7228" height="16.7469" fill="white" transform="translate(213.5 184.906) rotate(60)"/>
</clipPath>
<clipPath id="clip55_1103_99">
<rect width="6.14262" height="12.2852" fill="white" transform="matrix(-1 0 0 -1 16.2031 210.641)"/>
</clipPath>
<clipPath id="clip56_1103_99">
<rect width="9.46623" height="9.46623" fill="white" transform="translate(42.8906 212.547) rotate(30)"/>
</clipPath>
<clipPath id="clip57_1103_99">
<rect width="19.4765" height="9.73823" fill="white" transform="translate(73.3906 213.023) rotate(30)"/>
</clipPath>
<clipPath id="clip58_1103_99">
<rect width="6.13579" height="12.2716" fill="white" transform="translate(107.227 217.312) rotate(150)"/>
</clipPath>
<clipPath id="clip59_1103_99">
<rect width="16.4473" height="5.48245" fill="white" transform="translate(134.867 211.594) rotate(15)"/>
</clipPath>
<clipPath id="clip60_1103_99">
<rect width="4.61815" height="4.61815" fill="white" transform="translate(165.844 213.5) rotate(45)"/>
</clipPath>
<clipPath id="clip61_1103_99">
<rect width="21.0306" height="10.5153" fill="white" transform="translate(197.297 213.5) rotate(60)"/>
</clipPath>
<clipPath id="clip62_1103_99">
<rect width="24.7357" height="9.89427" fill="white" transform="translate(225.891 215.883)"/>
</clipPath>
</defs>
</svg>
