<svg width="26" height="26" viewBox="0 0 26 26" fill="none" xmlns="http://www.w3.org/2000/svg">
<path d="M18.25 2.375C17 1.125 15.375 0.5 13.875 0.5C12.375 0.5 10.625 1.125 9.5 2.375L2.25 9.375C-0.25 11.875 -0.25 15.75 2.25 18.25C4.75 20.75 8.625 20.75 11.125 18.25L18.25 11.125C20.625 8.75 20.625 4.75 18.25 2.375ZM16.5 9.375L13 12.875L8.5 8.5L3 14C3 13 3.25 11.875 4.125 11.125L11.25 4C11.875 3.375 12.875 3 13.75 3C14.625 3 15.625 3.375 16.375 4C17.875 5.625 17.875 7.875 16.5 9.375ZM22.5 6.875C22.5 7.875 22.25 8.75 22 9.75C23.25 11.25 23.25 13.5 21.875 14.875L18.375 18.375L16.5 16.5L13 20C11.375 21.625 9.125 22.5 7 22.5C7.25 22.875 7.5 23.25 7.875 23.625C10.375 26.125 14.25 26.125 16.75 23.625L23.875 16.5C26.375 14 26.375 10.125 23.875 7.625C23.25 7.375 22.875 7.125 22.5 6.875Z" fill="#686868"/>
</svg>
