<svg width="25" height="25" viewBox="0 0 25 25" fill="none" xmlns="http://www.w3.org/2000/svg">
<path opacity="0.5" d="M2.82103 14.4358C1.28101 12.8956 0.415902 10.8067 0.416016 8.62868C0.416129 6.45065 1.28146 4.36187 2.82163 2.82185C4.36181 1.28184 6.45068 0.416726 8.62871 0.41684C10.8067 0.416953 12.8955 1.28228 14.4355 2.82246L22.1773 10.5643C22.9526 11.3239 23.5696 12.2297 23.9927 13.2292C24.4157 14.2288 24.6364 15.3023 24.642 16.3877C24.6475 17.4731 24.4379 18.5489 24.0251 19.5527C23.6123 20.5566 23.0046 21.4686 22.2372 22.2362C21.4697 23.0037 20.5577 23.6115 19.5539 24.0244C18.5501 24.4373 17.4744 24.647 16.389 24.6416C15.3036 24.6361 14.23 24.4155 13.2304 23.9926C12.2308 23.5697 11.3249 22.9528 10.5652 22.1775L2.82103 14.4358Z" fill="#686868"/>
<path d="M7.43299 19.048L5.91895 17.5327L6.51707 17.4179H6.51828L6.5352 17.4131C6.55292 17.4099 6.58232 17.403 6.6234 17.3925C6.70799 17.3732 6.83526 17.3366 7.00524 17.2826C7.34478 17.1738 7.84745 16.989 8.46732 16.6905C9.70465 16.0948 11.412 15.0423 13.2269 13.2274C15.0394 11.4137 16.0931 9.70513 16.69 8.46658C16.9885 7.84792 17.1734 7.34646 17.2821 7.00571C17.3319 6.85085 17.3755 6.69404 17.4126 6.53567L17.4162 6.51875L17.5322 5.91942L19.0463 7.43346L19.0076 7.55792C18.8185 8.13848 18.5896 8.70533 18.3225 9.25442C17.6458 10.6585 16.4798 12.5375 14.5078 14.5095C12.537 16.4803 10.6568 17.6475 9.25395 18.323C8.66563 18.6091 8.05699 18.8514 7.43299 19.048Z" fill="#686868"/>
</svg>
