<svg width="91" height="152" viewBox="0 0 91 152" fill="none" xmlns="http://www.w3.org/2000/svg">
<path d="M17.9558 53.3893L8.27792 64.6462C6.66938 66.5171 5.41493 68.6715 4.57719 71.0016L2.02085 78.1119C1.34548 79.9904 1 81.9738 1 83.9727V144.038C1 145.898 2.49116 147.406 4.33061 147.406M17.9558 53.3893V48.6425M17.9558 53.3893L34.6089 64.4141M53.3814 18.7837L54.3809 16.3407C55.821 12.8205 54.0914 8.79384 50.5647 7.4562L47.3257 6.2277L32.2398 1.3232C31.0192 0.92638 29.7113 0.894269 28.4731 1.23072L23.0885 2.69388C15.4164 4.77859 10.0835 11.8129 10.0835 19.8478V25.8211C10.0835 26.8331 10.3089 27.832 10.7429 28.7438L17.2964 42.5105C17.7304 43.4223 17.9558 44.4213 17.9558 45.4332V48.6425M53.3814 18.7837L44.7483 21.5411C42.9395 22.1189 41.5043 23.5227 40.873 25.3318L39.9367 28.0151C39.0833 30.4607 36.1645 31.416 34.0563 29.9399C32.1107 28.5775 29.4231 29.2739 28.3648 31.4147L27.1285 33.9155C26.5328 35.1206 26.7663 36.576 27.7082 37.5287C29.0866 38.9229 28.8627 41.2433 27.2438 42.3416L17.9558 48.6425M53.3814 18.7837V25.8478C53.3814 26.8426 53.5992 27.8251 54.0192 28.7247L57.1065 35.3372C57.8674 36.9669 57.0683 38.9047 55.3879 39.5045C54.1855 39.9338 53.3814 41.0833 53.3814 42.373V45.3402C53.3814 47.4234 52.4286 49.3894 50.8006 50.6655L49.8214 51.4331C48.2553 52.6607 46.1993 53.0475 44.3015 52.4717C40.9857 51.4656 37.5042 53.4323 36.6123 56.8154L34.6089 64.4141M34.6089 64.4141L45.9226 79.1266C46.832 80.3093 47.3257 81.7647 47.3257 83.263V112.494M47.3257 112.494L57.378 114.673C58.9322 115.01 60.0426 116.399 60.0426 118.007M47.3257 112.494L39.2526 111.134C36.4692 110.664 34.2802 108.472 33.7884 105.662L28.5532 75.7452M5.84452 90.4449L16.5969 122.799C17.4252 125.291 19.6115 127.069 22.1963 127.351L44.9035 129.829M44.9035 129.829L58.4183 131.304C59.2857 131.399 60.0426 130.712 60.0426 129.829M44.9035 129.829V144.344C44.9035 146.035 43.5479 147.406 41.8756 147.406M4.33061 147.406V152M4.33061 147.406H41.8756M41.8756 147.406V152M60.0426 118.007L74.9597 115.396C75.4962 115.302 76.0484 115.39 76.5296 115.648L77.5323 116.185C78.9238 116.93 78.8663 118.966 77.435 119.629C75.9577 120.314 75.9577 122.437 77.435 123.122L80.026 124.323C80.6177 124.597 81.2779 124.683 81.9188 124.569L89.2869 123.253C89.8746 123.149 90.2421 123.876 89.8139 124.296L83.3029 130.688C81.8106 132.153 79.7275 132.829 77.6711 132.516L60.0426 129.829M60.0426 118.007V129.829" stroke="#9C9C9C"/>
</svg>
