<svg width="124" height="154" viewBox="0 0 124 154" fill="none" xmlns="http://www.w3.org/2000/svg">
<path d="M91.0549 25.0462L73.1047 18.9491L69.7581 17.6418M91.0549 25.0462V15.9124C91.0549 12.2404 89.4035 8.76383 86.5593 6.44828L84.0113 4.37386C82.2516 2.94119 80.1275 2.02961 77.8784 1.74191L72.8466 1.09826C69.1654 0.627362 65.4709 1.86534 62.8128 4.46045L55.1546 11.9374M91.0549 25.0462L86.187 39.6793M55.1546 11.9374L42.0162 13.7096C40.4803 13.9168 39.3342 15.2303 39.3342 16.7831C39.3342 18.0841 40.1446 19.2469 41.3636 19.6948L45.7766 21.3161C47.53 21.9603 49.4304 22.0904 51.255 21.6911L53.3292 21.2372M55.1546 11.9374L69.7581 17.6418M69.7581 17.6418L53.3292 21.2372M86.187 39.6793L84.1073 37.9861C82.3434 36.55 81.3192 34.3938 81.3192 32.1164V29.8544C81.3192 28.0625 80.2099 26.4585 78.5355 25.8293C77.2288 25.3383 75.7654 25.5149 74.6123 26.3026L74.4142 26.438C71.9808 28.1005 68.6396 27.1674 67.4151 24.4834L66.8363 23.2147C65.6954 20.7139 62.9904 19.3251 60.2983 19.8579L53.3292 21.2372M86.187 39.6793V42.3816C86.187 47.066 83.509 51.3364 79.2968 53.3686L69.7581 57.9706M53.3292 29.619L50.776 32.8169C49.6344 34.2468 50.2196 36.3768 51.9308 37.0198C52.8004 37.3466 53.4399 38.1002 53.6221 39.0127L54.6658 44.2419C54.9838 45.8349 55.789 47.2892 56.9697 48.4027C59.0405 50.3557 62.0076 51.0253 64.7141 50.1505L65.0424 50.0443M65.0424 50.0443L69.7581 48.5201M65.0424 50.0443L69.7581 57.9706M69.7581 57.9706L58.4277 73.5484C57.2767 75.1309 56.523 76.9678 56.2302 78.9039L55.2919 85.1091C55.2005 85.7137 55.1546 86.3243 55.1546 86.9358V105.833M86.187 51.5686L94.7057 60.4094M94.7057 60.4094L97.2251 68.7403C97.5719 69.8869 97.7481 71.0785 97.7481 72.2767V117.417M94.7057 60.4094L86.5047 58.9153C83.1962 58.3125 79.7862 59.1084 77.0841 61.1141L76.4306 61.5991C74.274 63.1998 72.706 65.4699 71.9705 68.0562L66.3979 87.6526C65.643 90.3072 67.1319 93.082 69.7581 93.915M94.7057 60.4094C96.5984 57.3751 99.9175 55.5317 103.489 55.5317H110.691C116.582 55.5317 121.628 59.7609 122.669 65.5717L122.809 66.3525C122.936 67.0635 123 67.7844 123 68.5068V114.611C123 116.438 122.439 118.22 121.394 119.717C119.731 122.097 117.014 123.514 114.114 123.514H98.3397M97.7481 117.417L98.3397 123.514M97.7481 117.417L84.4731 103.089M56.6758 119.856V136.318C56.6758 138.33 58.3187 139.953 60.3267 139.925M56.6758 119.856L71.2748 118.208C75.606 117.719 79.3455 114.946 81.0785 110.939L84.4731 103.089M56.6758 119.856L51.8317 119.407C49.6266 119.202 47.4077 119.604 45.4139 120.57L41.0962 122.661C39.944 123.219 38.6602 123.447 37.3868 123.319L30.7529 122.655C29.0361 122.483 28.0373 120.626 28.8379 119.094M86.187 99.126L94.7057 79.9202M86.187 99.126L69.7581 93.915M86.187 99.126L84.4731 103.089M98.3397 123.514L99.3773 134.208C99.6467 136.986 97.4902 139.401 94.7057 139.44M55.1546 105.833L53.3508 106.408C50.2244 107.405 46.8289 107.094 43.934 105.547L39.3342 103.089M55.1546 105.833L60.1247 104.684C64.3874 103.698 67.7941 100.495 69.0476 96.2957L69.7581 93.915M39.3342 103.089H32.8489C32.3189 103.089 31.8032 103.261 31.3792 103.58C29.9657 104.642 30.1054 106.809 31.6436 107.68L31.8803 107.814M39.3342 103.089V85.7124C39.3342 82.5134 36.7461 79.9202 33.5536 79.9202M18.6459 113.759H29.0173C29.7889 113.759 30.5391 113.505 31.152 113.035L32.1866 112.242C33.6989 111.083 33.5377 108.753 31.8803 107.814M18.6459 113.759L20.9268 116.299C22.9188 118.516 25.8982 119.569 28.8379 119.094M18.6459 113.759H13.1696C6.44851 113.759 1 108.3 1 101.565V86.9318C1 83.0594 4.13289 79.9202 7.99751 79.9202M28.8379 119.094L33.5536 118.332M7.99751 79.9202L8.39241 78.1395C8.92777 75.7255 10.1829 73.5317 11.9914 71.849L13.4738 70.4696M7.99751 79.9202H33.5536M7.99751 79.9202V100.65M13.4738 70.4696H13.1696C10.9852 70.4696 9.21446 68.6953 9.21446 66.5065C9.21446 64.3178 10.9852 62.5434 13.1696 62.5434H28.0773C30.2617 62.5434 32.0324 64.3178 32.0324 66.5065V66.8114C32.0324 68.8318 30.3979 70.4696 28.3815 70.4696M13.4738 70.4696H28.3815M28.3815 70.4696L30.207 74.4328L33.5536 79.9202M33.5536 79.9202V88.4561C33.5536 95.1908 28.1051 100.65 21.384 100.65H7.99751M7.99751 100.65C7.99751 104.684 11.2741 107.946 15.2991 107.92L31.8803 107.814M60.3267 139.925V154M60.3267 139.925L94.7057 139.44M94.7057 139.44V154M20.7756 83.5784V89.9804M20.7756 89.9804V96.3824M20.7756 89.9804H26.5561M20.7756 89.9804H14.3865" stroke="#989898"/>
</svg>
