<svg width="59" height="61" viewBox="0 0 59 61" fill="none" xmlns="http://www.w3.org/2000/svg">
<path d="M21.8729 2.29834V18.7966C21.8729 20.8674 20.1941 22.5462 18.1233 22.5462H2" stroke="#1862AC" stroke-width="2.99968" stroke-linecap="round"/>
<path d="M26.7479 7.92273V24.421C26.7479 26.4918 25.0691 28.1706 22.9983 28.1706H6.875" stroke="#1862AC" stroke-width="2.99968" stroke-linecap="round"/>
<path d="M21.8729 59.2922V42.794C21.8729 40.7231 20.1941 39.0444 18.1233 39.0444H2" stroke="#1862AC" stroke-width="2.99968" stroke-linecap="round"/>
<path d="M26.7479 53.6678V37.1696C26.7479 35.0988 25.0691 33.42 22.9983 33.42H6.875" stroke="#1862AC" stroke-width="2.99968" stroke-linecap="round"/>
<path d="M37.2463 2.11084V18.6091C37.2463 20.6799 38.925 22.3587 40.9959 22.3587H57.1191" stroke="#1862AC" stroke-width="2.99968" stroke-linecap="round"/>
<path d="M32.3713 7.73523V24.2335C32.3713 26.3043 34.05 27.9831 36.1209 27.9831H52.2441" stroke="#1862AC" stroke-width="2.99968" stroke-linecap="round"/>
<path d="M37.2463 59.4797V42.9815C37.2463 40.9106 38.925 39.2319 40.9959 39.2319H57.1191" stroke="#1862AC" stroke-width="2.99968" stroke-linecap="round"/>
<path d="M32.3713 53.8553V37.3571C32.3713 35.2863 34.05 33.6075 36.1209 33.6075H52.2441" stroke="#1862AC" stroke-width="2.99968" stroke-linecap="round"/>
</svg>
