<svg width="430" height="932" viewBox="0 0 430 932" fill="none" xmlns="http://www.w3.org/2000/svg">
<g clip-path="url(#clip0_1108_352)">
<rect x="32" y="197" width="365" height="48" rx="10" fill="#F8F8F8"/>
<rect x="33" y="136" width="74" height="20" rx="10" fill="#F8F8F8"/>
<rect x="33" y="97" width="97" height="10" rx="5" fill="#F8F8F8"/>
<rect x="117" y="136" width="74" height="20" rx="10" fill="#F8F8F8"/>
<rect x="201" y="136" width="74" height="20" rx="10" fill="#F8F8F8"/>
<rect x="285" y="136" width="74" height="20" rx="10" fill="#F8F8F8"/>
<rect x="33" y="275" width="365" height="48" rx="10" fill="#F8F8F8"/>
<rect x="33" y="353" width="365" height="48" rx="10" fill="#F8F8F8"/>
<rect x="33" y="431" width="365" height="48" rx="10" fill="#F8F8F8"/>
<rect x="33" y="509" width="365" height="48" rx="10" fill="#F8F8F8"/>
<rect x="33" y="587" width="365" height="48" rx="10" fill="#F8F8F8"/>
<rect x="33" y="665" width="365" height="48" rx="10" fill="#F8F8F8"/>
<rect x="33" y="743" width="365" height="48" rx="10" fill="#F8F8F8"/>
<rect x="33" y="815" width="365" height="48" rx="10" fill="#F8F8F8"/>
</g>
<defs>
<clipPath id="clip0_1108_352">
<rect width="430" height="932" fill="white"/>
</clipPath>
</defs>
</svg>
