<svg width="59" height="61" viewBox="0 0 59 61" fill="none" xmlns="http://www.w3.org/2000/svg">
<path d="M21.8729 2.18751V18.6858C21.8729 20.7566 20.1941 22.4353 18.1233 22.4353H2M26.7477 7.81189V24.3101C26.7477 26.381 25.0689 28.0597 22.9981 28.0597H6.87482M21.8729 59.1814V42.6832C21.8729 40.6123 20.1941 38.9336 18.1233 38.9336H2M26.7477 53.5571V37.0588C26.7477 34.988 25.0689 33.3092 22.9981 33.3092H6.87482M37.2447 2V18.4982C37.2447 20.5691 38.9234 22.2478 40.9943 22.2478H57.1175M32.3698 7.62441V24.1227C32.3698 26.1935 34.0486 27.8722 36.1194 27.8722H52.2427M37.2447 59.369V42.8707C37.2447 40.7999 38.9234 39.1211 40.9943 39.1211H57.1175M32.3698 53.7446V37.2463C32.3698 35.1755 34.0486 33.4967 36.1194 33.4967H52.2427" stroke="#1862AC" stroke-width="2.99968" stroke-linecap="round"/>
</svg>
