<svg width="25" height="25" viewBox="0 0 25 25" fill="none" xmlns="http://www.w3.org/2000/svg">
<g clip-path="url(#clip0_1058_97)">
<path d="M23.8125 14.2891H25V19.0469H23.8125V14.2891ZM22.625 11.9063H23.8125V14.2891H22.625V11.9063ZM22.625 17.8594H21.4297V16.6719H20.2422V15.4766H19.0547V14.2891H17.8594V13.1016H16.6719V11.9063H15.4766V10.7188H14.2891V9.52344H11.9062V10.7188H10.7188V11.9063H13.1016V13.1016H14.2891V14.2891H15.4766V15.4766H16.6719V16.6719H17.8594V17.8594H19.0547V19.0469H20.2422V20.2422H21.4297V22.625H22.625V21.4297H23.8125V19.0469H22.625V17.8594ZM21.4297 10.7188H22.625V11.9063H21.4297V10.7188Z" fill="#686868"/>
<path d="M16.6719 22.625V21.4297H14.2891V20.2422H13.1016V19.0469H11.9062V16.6719H10.7188V11.9062H9.53125V14.2891H8.33594V19.0469H9.53125V21.4297H10.7188V22.625H11.9062V23.8125H14.2891V25H19.0547V23.8125H21.4297V22.625H16.6719ZM19.0547 9.52344H21.4297V10.7188H19.0547V9.52344ZM14.2891 8.33594H19.0547V9.52344H14.2891V8.33594ZM2.38281 23.8125H10.7188V25H2.38281V23.8125ZM5.95312 13.1016H7.14844V20.2422H5.95312V13.1016ZM3.57812 17.8594H4.76562V19.0469H3.57812V17.8594ZM4.76562 5.95312H13.1016V7.14844H14.2891V5.95312H15.4766V4.76562H16.6719V1.19531H15.4766V0H2.38281V1.19531H1.19531V4.76562H2.38281V5.95312H3.57812V8.33594H4.76562V5.95312ZM13.1016 1.19531H14.2891V4.76562H13.1016V1.19531ZM10.7188 1.19531H11.9062V4.76562H10.7188V1.19531ZM8.33594 1.19531H9.53125V4.76562H8.33594V1.19531ZM5.95312 1.19531H7.14844V4.76562H5.95312V1.19531ZM3.57812 1.19531H4.76562V4.76562H3.57812V1.19531ZM2.38281 8.33594H3.57812V9.52344H2.38281V8.33594ZM1.19531 22.625H2.38281V23.8125H1.19531V22.625Z" fill="#686868"/>
<path d="M1.19531 21.4297H5.95312V20.2422H1.19531V17.8594H3.57812V16.6719H1.19531V15.4766H3.57812V14.2891H1.19531V13.1016H5.95312V11.9063H1.19531V10.7188H0V22.625H1.19531V21.4297ZM1.19531 9.52344H2.38281V10.7188H1.19531V9.52344Z" fill="#686868"/>
</g>
<defs>
<clipPath id="clip0_1058_97">
<rect width="25" height="25" fill="white"/>
</clipPath>
</defs>
</svg>
