<svg width="174" height="184" viewBox="0 0 174 184" fill="none" xmlns="http://www.w3.org/2000/svg">
<mask id="path-1-inside-1_1268_41" fill="white">
<path d="M85 0C110.631 0 131.757 19.2864 134.659 44.1387C157.152 49.0228 174 69.0439 174 93C174 116.316 158.04 135.904 136.449 141.437C132.857 165.524 112.087 184 87 184C61.9128 184 41.1415 165.524 37.5498 141.437C15.9593 135.903 0 116.316 0 93C0 70.5286 14.8242 51.5197 35.2266 45.2188C37.6335 19.8474 58.9985 0 85 0Z"/>
</mask>
<path d="M85 0C110.631 0 131.757 19.2864 134.659 44.1387C157.152 49.0228 174 69.0439 174 93C174 116.316 158.04 135.904 136.449 141.437C132.857 165.524 112.087 184 87 184C61.9128 184 41.1415 165.524 37.5498 141.437C15.9593 135.903 0 116.316 0 93C0 70.5286 14.8242 51.5197 35.2266 45.2188C37.6335 19.8474 58.9985 0 85 0Z" fill="#DBEDFF"/>
<path d="M134.659 44.1387L128.7 44.8345L129.197 49.0924L133.386 50.002L134.659 44.1387ZM136.449 141.437L134.96 135.624L131.102 136.613L130.515 140.552L136.449 141.437ZM37.5498 141.437L43.4842 140.552L42.8969 136.613L39.0394 135.624L37.5498 141.437ZM35.2266 45.2188L36.9971 50.9516L40.8217 49.7704L41.1997 45.7854L35.2266 45.2188ZM85 0V6C107.551 6 126.147 22.9707 128.7 44.8345L134.659 44.1387L140.619 43.4428C137.368 15.6021 113.712 -6 85 -6V0ZM134.659 44.1387L133.386 50.002C153.178 54.2997 168 71.926 168 93H174H180C180 66.1618 161.126 43.7458 135.932 38.2753L134.659 44.1387ZM174 93H168C168 113.51 153.961 130.755 134.96 135.624L136.449 141.437L137.939 147.249C162.119 141.052 180 119.123 180 93H174ZM136.449 141.437L130.515 140.552C127.355 161.743 109.071 178 87 178V184V190C115.103 190 138.36 169.304 142.384 142.321L136.449 141.437ZM87 184V178C64.9287 178 46.6441 161.743 43.4842 140.552L37.5498 141.437L31.6154 142.321C35.6389 169.304 58.8969 190 87 190V184ZM37.5498 141.437L39.0394 135.624C20.0384 130.755 6 113.51 6 93H0H-6C-6 119.122 11.8803 141.052 36.0602 147.249L37.5498 141.437ZM0 93H6C6 73.2342 19.0378 56.498 36.9971 50.9516L35.2266 45.2188L33.4561 39.4859C10.6105 46.5415 -6 67.8229 -6 93H0ZM35.2266 45.2188L41.1997 45.7854C43.3173 23.4649 62.1223 6 85 6V0V-6C55.8747 -6 31.9498 16.2299 29.2534 44.6521L35.2266 45.2188Z" fill="url(#paint0_linear_1268_41)" mask="url(#path-1-inside-1_1268_41)"/>
<defs>
<linearGradient id="paint0_linear_1268_41" x1="87" y1="0" x2="87" y2="184" gradientUnits="userSpaceOnUse">
<stop stop-color="#1862AC"/>
<stop offset="1" stop-color="#15A690"/>
</linearGradient>
</defs>
</svg>
