<?xml version="1.0" ?><svg xmlns="http://www.w3.org/2000/svg" width="512" height="512" viewBox="0 0 512 512" fill="none"><defs><pattern id="pharmaseaPattern" patternUnits="userSpaceOnUse" width="512" height="512"><use href="#weed" x="13" y="11" opacity="0.7" transform="translate(13.0,11.0) rotate(0) scale(0.8124873506683097) translate(-13.0, -11.0)"/><use href="#bubble" x="55" y="4" opacity="0.7" transform="translate(55.0,4.0) rotate(15) scale(0.8911314307843718) translate(-55.0, -4.0)"/><use href="#pill" x="142" y="13" opacity="0.7" transform="translate(142.0,13.0) rotate(30) scale(0.5337694064564728) translate(-142.0, -13.0)"/><use href="#bottle" x="188" y="-5" opacity="0.7" transform="translate(188.0,-5.0) rotate(150) scale(1.0844132387069605) translate(-188.0, 5.0)"/><use href="#bubble" x="270" y="5" opacity="0.7" transform="translate(270.0,5.0) rotate(150) scale(0.5592400584936457) translate(-270.0, -5.0)"/><use href="#cap" x="327" y="3" opacity="0.7" transform="translate(327.0,3.0) rotate(90) scale(1.017316495557456) translate(-327.0, -3.0)"/><use href="#blister" x="390" y="-8" opacity="0.7" transform="translate(390.0,-8.0) rotate(30) scale(0.6837531056789529) translate(-390.0, 8.0)"/><use href="#fish" x="452" y="-15" opacity="0.7" transform="translate(452.0,-15.0) rotate(60) scale(0.7509187864177105) translate(-452.0, 15.0)"/><use href="#bottle" x="9" y="53" opacity="0.7" transform="translate(9.0,53.0) rotate(150) scale(0.8166507690533555) translate(-9.0, -53.0)"/><use href="#weed" x="50" y="77" opacity="0.7" transform="translate(50.0,77.0) rotate(150) scale(0.6934393790541222) translate(-50.0, -77.0)"/><use href="#pill" x="120" y="63" opacity="0.7" transform="translate(120.0,63.0) rotate(45) scale(1.1284660844953331) translate(-120.0, -63.0)"/><use href="#band" x="184" y="68" opacity="0.7" transform="translate(184.0,68.0) rotate(30) scale(1.0566647516589986) translate(-184.0, -68.0)"/><use href="#bubble" x="251" y="59" opacity="0.7" transform="translate(251.0,59.0) rotate(180) scale(0.716186999461445) translate(-251.0, -59.0)"/><use href="#band" x="333" y="59" opacity="0.7" transform="translate(333.0,59.0) rotate(0) scale(0.5075355711268167) translate(-333.0, -59.0)"/><use href="#cap" x="385" y="66" opacity="0.7" transform="translate(385.0,66.0) rotate(45) scale(1.279674984038241) translate(-385.0, -66.0)"/><use href="#fish" x="454" y="55" opacity="0.7" transform="translate(454.0,55.0) rotate(120) scale(1.0155986432652782) translate(-454.0, -55.0)"/><use href="#shell" x="-2" y="129" opacity="0.7" transform="translate(-2.0,129.0) rotate(15) scale(0.6873978036978541) translate(2.0, -129.0)"/><use href="#cap" x="52" y="138" opacity="0.7" transform="translate(52.0,138.0) rotate(90) scale(0.8481918375456812) translate(-52.0, -138.0)"/><use href="#pill" x="112" y="115" opacity="0.7" transform="translate(112.0,115.0) rotate(0) scale(0.9416573450379748) translate(-112.0, -115.0)"/><use href="#blister" x="199" y="144" opacity="0.7" transform="translate(199.0,144.0) rotate(90) scale(1.2805873642265377) translate(-199.0, -144.0)"/><use href="#cap" x="256" y="140" opacity="0.7" transform="translate(256.0,140.0) rotate(15) scale(0.7472525286941705) translate(-256.0, -140.0)"/><use href="#blister" x="322" y="113" opacity="0.7" transform="translate(322.0,113.0) rotate(180) scale(0.9397071825581689) translate(-322.0, -113.0)"/><use href="#weed" x="375" y="122" opacity="0.7" transform="translate(375.0,122.0) rotate(90) scale(0.5596632926926097) translate(-375.0, -122.0)"/><use href="#shell" x="444" y="123" opacity="0.7" transform="translate(444.0,123.0) rotate(0) scale(0.8628925577996716) translate(-444.0, -123.0)"/><use href="#weed" x="14" y="190" opacity="0.7" transform="translate(14.0,190.0) rotate(120) scale(1.1627203711597962) translate(-14.0, -190.0)"/><use href="#weed" x="71" y="208" opacity="0.7" transform="translate(71.0,208.0) rotate(120) scale(0.5652400175548763) translate(-71.0, -208.0)"/><use href="#band" x="119" y="180" opacity="0.7" transform="translate(119.0,180.0) rotate(15) scale(0.9512186982488509) translate(-119.0, -180.0)"/><use href="#bottle" x="195" y="202" opacity="0.7" transform="translate(195.0,202.0) rotate(30) scale(0.761058381087613) translate(-195.0, -202.0)"/><use href="#cap" x="257" y="187" opacity="0.7" transform="translate(257.0,187.0) rotate(0) scale(1.1745827714334869) translate(-257.0, -187.0)"/><use href="#blister" x="305" y="200" opacity="0.7" transform="translate(305.0,200.0) rotate(30) scale(1.2878355303002067) translate(-305.0, -200.0)"/><use href="#blister" x="375" y="181" opacity="0.7" transform="translate(375.0,181.0) rotate(120) scale(1.0283740821872118) translate(-375.0, -181.0)"/><use href="#cap" x="442" y="206" opacity="0.7" transform="translate(442.0,206.0) rotate(0) scale(1.2808354113011955) translate(-442.0, -206.0)"/><use href="#bottle" x="-4" y="251" opacity="0.7" transform="translate(-4.0,251.0) rotate(180) scale(1.1117730417522482) translate(4.0, -251.0)"/><use href="#shell" x="55" y="255" opacity="0.7" transform="translate(55.0,255.0) rotate(180) scale(1.0305744461999267) translate(-55.0, -255.0)"/><use href="#weed" x="122" y="262" opacity="0.7" transform="translate(122.0,262.0) rotate(30) scale(1.1448424626543057) translate(-122.0, -262.0)"/><use href="#weed" x="199" y="250" opacity="0.7" transform="translate(199.0,250.0) rotate(0) scale(0.5508493524471062) translate(-199.0, -250.0)"/><use href="#fish" x="264" y="242" opacity="0.7" transform="translate(264.0,242.0) rotate(30) scale(0.8002910538407022) translate(-264.0, -242.0)"/><use href="#blister" x="309" y="266" opacity="0.7" transform="translate(309.0,266.0) rotate(180) scale(0.9625647157599732) translate(-309.0, -266.0)"/><use href="#weed" x="393" y="270" opacity="0.7" transform="translate(393.0,270.0) rotate(150) scale(0.6563199750211186) translate(-393.0, -270.0)"/><use href="#cap" x="457" y="268" opacity="0.7" transform="translate(457.0,268.0) rotate(60) scale(0.818356215517564) translate(-457.0, -268.0)"/><use href="#fish" x="1" y="328" opacity="0.7" transform="translate(1.0,328.0) rotate(120) scale(0.5572555409131017) translate(-1.0, -328.0)"/><use href="#pill" x="68" y="314" opacity="0.7" transform="translate(68.0,314.0) rotate(150) scale(0.5107101021855682) translate(-68.0, -314.0)"/><use href="#cap" x="120" y="311" opacity="0.7" transform="translate(120.0,311.0) rotate(90) scale(0.5843064243070881) translate(-120.0, -311.0)"/><use href="#weed" x="192" y="309" opacity="0.7" transform="translate(192.0,309.0) rotate(75) scale(1.087616213296759) translate(-192.0, -309.0)"/><use href="#band" x="248" y="308" opacity="0.7" transform="translate(248.0,308.0) rotate(45) scale(0.6022380322028074) translate(-248.0, -308.0)"/><use href="#bubble" x="334" y="312" opacity="0.7" transform="translate(334.0,312.0) rotate(120) scale(1.0065164297718683) translate(-334.0, -312.0)"/><use href="#band" x="391" y="327" opacity="0.7" transform="translate(391.0,327.0) rotate(30) scale(0.9325564526782255) translate(-391.0, -327.0)"/><use href="#band" x="458" y="304" opacity="0.7" transform="translate(458.0,304.0) rotate(90) scale(0.5393625422317461) translate(-458.0, -304.0)"/><use href="#weed" x="-5" y="375" opacity="0.7" transform="translate(-5.0,375.0) rotate(90) scale(0.9020178538380774) translate(5.0, -375.0)"/><use href="#bubble" x="54" y="386" opacity="0.7" transform="translate(54.0,386.0) rotate(75) scale(0.5516856755241843) translate(-54.0, -386.0)"/><use href="#fish" x="114" y="384" opacity="0.7" transform="translate(114.0,384.0) rotate(45) scale(0.7727067240756834) translate(-114.0, -384.0)"/><use href="#weed" x="206" y="374" opacity="0.7" transform="translate(206.0,374.0) rotate(60) scale(0.9575522098656613) translate(-206.0, -374.0)"/><use href="#band" x="268" y="389" opacity="0.7" transform="translate(268.0,389.0) rotate(15) scale(0.5235820856704578) translate(-268.0, -389.0)"/><use href="#cap" x="325" y="377" opacity="0.7" transform="translate(325.0,377.0) rotate(90) scale(0.5072910801348304) translate(-325.0, -377.0)"/><use href="#band" x="387" y="368" opacity="0.7" transform="translate(387.0,368.0) rotate(180) scale(1.1446995484597564) translate(-387.0, -368.0)"/><use href="#blister" x="435" y="371" opacity="0.7" transform="translate(435.0,371.0) rotate(15) scale(1.2027860583773795) translate(-435.0, -371.0)"/><use href="#cap" x="6" y="436" opacity="0.7" transform="translate(6.0,436.0) rotate(75) scale(1.2440893387501406) translate(-6.0, -436.0)"/><use href="#cap" x="80" y="463" opacity="0.7" transform="translate(80.0,463.0) rotate(75) scale(0.8865815909979955) translate(-80.0, -463.0)"/><use href="#shell" x="142" y="446" opacity="0.7" transform="translate(142.0,446.0) rotate(90) scale(0.9145670478527563) translate(-142.0, -446.0)"/><use href="#shell" x="197" y="464" opacity="0.7" transform="translate(197.0,464.0) rotate(180) scale(0.6903565930756973) translate(-197.0, -464.0)"/><use href="#bottle" x="265" y="434" opacity="0.7" transform="translate(265.0,434.0) rotate(30) scale(1.0813570198343485) translate(-265.0, -434.0)"/><use href="#weed" x="325" y="436" opacity="0.7" transform="translate(325.0,436.0) rotate(150) scale(0.6671474615465584) translate(-325.0, -436.0)"/><use href="#bottle" x="376" y="456" opacity="0.7" transform="translate(376.0,456.0) rotate(150) scale(0.877842898225353) translate(-376.0, -456.0)"/><use href="#fish" x="464" y="444" opacity="0.7" transform="translate(464.0,444.0) rotate(15) scale(0.9801928661573763) translate(-464.0, -444.0)"/></pattern><symbol id="cap" viewBox="0 0 40 16"><rect x="0" y="0" rx="8" ry="8" width="40" height="16" stroke="#15a690" stroke-width="1" opacity="0.7"/></symbol><symbol id="pill" viewBox="0 0 18 18"><circle cx="9" cy="9" r="8" stroke="#15a690" stroke-width="1" opacity="0.7"/><line x1="3" y1="9" x2="15" y2="9" stroke="#15a690" stroke-width="1" opacity="0.7"/></symbol><symbol id="bottle" viewBox="0 0 28 40"><rect x="6" y="10" width="16" height="26" rx="6" stroke="#15a690" stroke-width="1" opacity="0.7"/><rect x="8" y="2" width="12" height="10" rx="2" stroke="#15a690" stroke-width="1" opacity="0.7"/><path d="M10 22 L18 22 M14 18 L14 26" stroke="#15a690" stroke-width="1" opacity="0.7"/></symbol><symbol id="blister" viewBox="0 0 28 40"><rect x="2" y="2" width="24" height="36" rx="4" stroke="#15a690" stroke-width="1" opacity="0.7"/><circle cx="8" cy="10" r="3" stroke="#15a690" stroke-width="1" opacity="0.7"/><circle cx="18" cy="10" r="3" stroke="#15a690" stroke-width="1" opacity="0.7"/><circle cx="8" cy="20" r="3" stroke="#15a690" stroke-width="1" opacity="0.7"/><circle cx="18" cy="20" r="3" stroke="#15a690" stroke-width="1" opacity="0.7"/><circle cx="8" cy="30" r="3" stroke="#15a690" stroke-width="1" opacity="0.7"/><circle cx="18" cy="30" r="3" stroke="#15a690" stroke-width="1" opacity="0.7"/></symbol><symbol id="band" viewBox="0 0 36 12"><rect x="0" y="0" width="36" height="12" rx="6" stroke="#15a690" stroke-width="1" opacity="0.7"/><rect x="14" y="4" width="8" height="4" rx="2" stroke="#15a690" stroke-width="1" opacity="0.7"/></symbol><symbol id="fish" viewBox="0 0 40 20"><path d="M2 10 C8 2, 20 2, 26 10 C20 18, 8 18, 2 10 Z" stroke="#15a690" stroke-width="1" fill="none" opacity="0.7"/><path d="M26 10 L38 4 L34 10 L38 16 Z" stroke="#15a690" stroke-width="1" fill="none" opacity="0.7"/><circle cx="10" cy="9" r="1.5" fill="#15a690" opacity="0.7"/></symbol><symbol id="shell" viewBox="0 0 24 20"><path d="M12 18 C3 18 2 8 12 4 C22 8 21 18 12 18 Z" stroke="#15a690" stroke-width="1" fill="none" opacity="0.7"/><path d="M12 6 L12 16 M8 8 L10 16 M16 8 L14 16" stroke="#15a690" stroke-width="1" opacity="0.7"/></symbol><symbol id="weed" viewBox="0 0 16 32"><path d="M8 30 C6 26, 10 22, 8 18 C6 14, 10 10, 8 6" stroke="#15a690" stroke-width="1" fill="none" opacity="0.7"/><path d="M4 30 C2 26, 6 22, 4 18 C2 14, 6 10, 4 6" stroke="#15a690" stroke-width="1" fill="none" opacity="0.7"/><path d="M12 30 C10 26, 14 22, 12 18 C10 14, 14 10, 12 6" stroke="#15a690" stroke-width="1" fill="none" opacity="0.7"/></symbol><symbol id="bubble" viewBox="0 0 10 10"><circle cx="5" cy="5" r="4" stroke="#15a690" stroke-width="1" fill="none" opacity="0.48999999999999994"/></symbol></defs><rect width="512" height="512" fill="url(#pharmaseaPattern)"/></svg>