<svg width="85" height="88" viewBox="0 0 85 88" fill="none" xmlns="http://www.w3.org/2000/svg">
<path d="M31.4052 3.26807V26.2092C31.4052 29.5229 28.7189 32.2092 25.4052 32.2092H3" stroke="#1862AC" stroke-width="6" stroke-linecap="round"/>
<path d="M38.374 11.3073V34.2484C38.374 37.5621 35.6877 40.2484 32.374 40.2484H9.96875" stroke="#1862AC" stroke-width="6" stroke-linecap="round"/>
<path d="M31.4052 84.732V61.7908C31.4052 58.4771 28.7189 55.7908 25.4052 55.7908H3" stroke="#1862AC" stroke-width="6" stroke-linecap="round"/>
<path d="M38.374 76.6928V53.7517C38.374 50.4379 35.6877 47.7517 32.374 47.7517H9.96875" stroke="#1862AC" stroke-width="6" stroke-linecap="round"/>
<path d="M53.378 3.00012V25.9413C53.378 29.255 56.0643 31.9413 59.378 31.9413H81.7832" stroke="#1862AC" stroke-width="6" stroke-linecap="round"/>
<path d="M46.4092 11.0393V33.9804C46.4092 37.2941 49.0955 39.9804 52.4092 39.9804H74.8145" stroke="#1862AC" stroke-width="6" stroke-linecap="round"/>
<path d="M53.378 85V62.0588C53.378 58.7451 56.0643 56.0588 59.378 56.0588H81.7832" stroke="#1862AC" stroke-width="6" stroke-linecap="round"/>
<path d="M46.4092 76.9608V54.0196C46.4092 50.7059 49.0955 48.0196 52.4092 48.0196H74.8145" stroke="#1862AC" stroke-width="6" stroke-linecap="round"/>
</svg>
