<svg width="20" height="22" viewBox="0 0 20 22" fill="none" xmlns="http://www.w3.org/2000/svg">
<path fill-rule="evenodd" clip-rule="evenodd" d="M2.02134 0.392853H10.3625C11.733 0.392853 13.0474 0.937299 14.0166 1.90642C14.9857 2.87554 15.5301 4.18995 15.5301 5.5605C15.5301 6.93104 14.9857 8.24545 14.0166 9.21457C13.0474 10.1837 11.733 10.7281 10.3625 10.7281H9.35363L13.0842 14.2261L17.1448 10.1671C17.2527 10.0513 17.3828 9.95847 17.5274 9.89405C17.6719 9.82964 17.828 9.795 17.9862 9.79221C18.1445 9.78942 18.3017 9.81853 18.4484 9.8778C18.5952 9.93708 18.7285 10.0253 18.8404 10.1372C18.9523 10.2491 19.0405 10.3824 19.0998 10.5292C19.1591 10.676 19.1882 10.8331 19.1854 10.9914C19.1826 11.1496 19.148 11.3057 19.0836 11.4503C19.0192 11.5948 18.9263 11.725 18.8105 11.8329L14.8049 15.84L18.7838 19.569C19.0064 19.7841 19.1355 20.0781 19.1432 20.3876C19.1508 20.6971 19.0364 20.9971 18.8246 21.2229C18.6129 21.4487 18.3208 21.5821 18.0114 21.5943C17.7021 21.6066 17.4004 21.4966 17.1715 21.2881L13.1376 17.5057L9.38192 21.2614C9.1585 21.4696 8.863 21.5829 8.55767 21.5776C8.25234 21.5722 7.96102 21.4485 7.74508 21.2325C7.52915 21.0166 7.40546 20.7253 7.40007 20.42C7.39468 20.1146 7.50802 19.8191 7.7162 19.5957L11.4169 15.8934L5.90749 10.7281H3.19992V18.9781C3.19992 19.2907 3.07575 19.5905 2.85472 19.8115C2.6337 20.0325 2.33392 20.1567 2.02134 20.1567C1.70877 20.1567 1.40899 20.0325 1.18797 19.8115C0.966944 19.5905 0.842773 19.2907 0.842773 18.9781V1.57142C0.842773 1.25885 0.966944 0.959073 1.18797 0.738048C1.40899 0.517023 1.70877 0.392853 2.02134 0.392853ZM10.3625 8.371H3.19992V2.75H10.3625C11.1079 2.75 11.8227 3.0461 12.3498 3.57317C12.8769 4.10024 13.173 4.8151 13.173 5.5605C13.173 6.30589 12.8769 7.02075 12.3498 7.54782C11.8227 8.07489 11.1079 8.371 10.3625 8.371Z" fill="#686868"/>
</svg>
