<svg width="18" height="30" viewBox="0 0 18 30" fill="none" xmlns="http://www.w3.org/2000/svg">
<path d="M5.66698 20C5.66698 22.2093 7.33365 23 9.00032 23C10.667 23 12.3337 22.2093 12.3337 20C12.3337 17.7907 9.00032 15 9.00032 15C9.00032 15 5.66698 17.7907 5.66698 20ZM5.09098 1.66666H12.9097C14.1363 1.66666 14.7523 1.66666 15.1337 2.05732C15.8443 2.78532 15.8443 5.88132 15.1337 6.60932C14.751 6.99999 14.1377 6.99999 12.9097 6.99999H5.09098C3.86432 6.99999 3.24965 6.99999 2.86698 6.60932C2.15632 5.88132 2.15632 2.78532 2.86698 2.05732C3.24832 1.66666 3.86298 1.66666 5.09098 1.66666Z" stroke="#686868" stroke-width="2" stroke-linecap="round" stroke-linejoin="round"/>
<path d="M3.66667 7C3.81766 7.28432 3.95384 7.57627 4.07467 7.87467C4.27591 8.42741 4.35277 9.01773 4.29976 9.60357C4.24675 10.1894 4.06519 10.7564 3.768 11.264C3.5959 11.5356 3.40987 11.7982 3.21067 12.0507L2.67333 12.7693C2.07333 13.5693 1.77333 13.9693 1.556 14.408C1.33632 14.8508 1.17926 15.322 1.08933 15.808C1 16.2867 1 16.7867 1 17.7893V20.3333C1 24.104 1 25.9907 2.172 27.1613C3.34267 28.3333 5.22933 28.3333 9 28.3333C12.7707 28.3333 14.6573 28.3333 15.828 27.1613C17 25.9907 17 24.104 17 20.3333V17.7893C17 16.7893 17 16.288 16.9107 15.8067C16.8207 15.3206 16.6637 14.8495 16.444 14.4067C16.2267 13.9693 15.9267 13.5693 15.3267 12.7693L14.7893 12.052C14.5897 11.7996 14.4032 11.537 14.2307 11.2653C13.9333 10.7575 13.7516 10.1903 13.6986 9.60426C13.6456 9.01816 13.7226 8.4276 13.924 7.87467C14.004 7.66 14.1133 7.44 14.3333 7" stroke="#686868" stroke-width="2" stroke-linecap="round" stroke-linejoin="round"/>
</svg>
