<svg width="25" height="23" viewBox="0 0 25 23" fill="none" xmlns="http://www.w3.org/2000/svg">
<path d="M6.46865 4.58833C5.72069 5.5985 5.25065 7.00983 5.25065 8.49971C5.25065 9.04467 5.34369 9.65004 5.46815 10.2119H3.00315C2.89598 9.64734 2.83937 9.07434 2.83398 8.49971C2.83398 6.53133 3.44782 4.60888 4.52565 3.15042C5.60711 1.68833 7.22023 0.625 9.17773 0.625C9.92932 0.625 10.6277 0.890833 11.2053 1.205C11.7914 1.52279 12.3339 1.93725 12.7943 2.34083C13.1326 2.63688 13.4432 2.94137 13.709 3.21929C13.9748 2.94137 14.2842 2.63688 14.6237 2.33963C15.0841 1.93725 15.6266 1.52279 16.2127 1.20379C16.7902 0.890833 17.4887 0.625 18.2402 0.625C20.1977 0.625 21.8109 1.68833 22.8923 3.15042C23.9702 4.60888 24.584 6.53133 24.584 8.49971C24.584 10.578 24.0257 12.1948 23.6415 12.9053C22.3534 15.8778 19.9802 18.2087 18.0058 19.7674C17.1714 20.4246 16.2999 21.0334 15.3958 21.5908C15.0321 21.8133 14.6622 22.0257 14.2866 22.2276L14.2684 22.2372L14.2624 22.2409H14.26L13.709 22.5236L13.158 22.2421L13.1556 22.2409L13.1495 22.2372L13.1314 22.2276C13.0321 22.1764 12.9338 22.1232 12.8366 22.0681C12.5619 21.9146 12.2903 21.7555 12.0222 21.5908C11.118 21.033 10.2466 20.4238 9.41215 19.7662C7.93074 18.5965 6.22215 16.9919 4.91836 15.0054H7.92711C8.82087 16.0596 9.82058 17.0192 10.9105 17.8691C11.7995 18.5696 12.7345 19.2099 13.709 19.7855C13.8322 19.713 13.9728 19.6285 14.1307 19.5318C14.7469 19.1548 15.5928 18.5941 16.5075 17.8715C18.3599 16.4095 20.3911 14.3613 21.4435 11.8988L21.4713 11.8347L21.5064 11.7743C21.6683 11.4891 22.1673 10.2542 22.1673 8.50092C22.1673 7.01104 21.6961 5.60092 20.9493 4.58954C20.205 3.58179 19.2516 3.04167 18.2402 3.04167C18.0457 3.04167 17.7545 3.11658 17.3678 3.32683C16.9908 3.53225 16.5957 3.82587 16.2151 4.15817C15.6679 4.64522 15.1619 5.17669 14.7022 5.74713C14.5834 5.89662 14.4324 6.01736 14.2604 6.10036C14.0884 6.18335 13.8999 6.22646 13.709 6.22646C13.518 6.22646 13.3295 6.18335 13.1576 6.10036C12.9856 6.01736 12.8345 5.89662 12.7157 5.74713C12.2561 5.17669 11.7501 4.64522 11.2029 4.15817C10.8495 3.84065 10.463 3.56194 10.0502 3.32683C9.66348 3.11658 9.37348 3.04167 9.17773 3.04167C8.16636 3.04167 7.21298 3.58179 6.46865 4.58833Z" fill="#686868"/>
<path d="M3.28074 11.4202H7.58724L10.3012 6.96875L12.1656 11.5544L13.0622 10.2312H17.3337V12.6093H14.3551L11.6267 16.6354L9.86616 12.3035L8.95508 13.7983H0.416992V11.4202H3.28074Z" fill="#686868"/>
</svg>
