<svg width="25" height="28" viewBox="0 0 25 28" fill="none" xmlns="http://www.w3.org/2000/svg">
<path d="M10.6668 0.666657C13.257 0.666257 15.7589 1.6084 17.7055 3.31724C19.6521 5.02608 20.9103 7.38485 21.2454 9.95332L24.2454 14.672C24.4428 14.9827 24.4028 15.4453 23.9454 15.6427L21.3334 16.76V20.6667C21.3334 21.3739 21.0525 22.0522 20.5524 22.5523C20.0523 23.0524 19.374 23.3333 18.6668 23.3333H16.0014L16.0001 27.3333H4.0001V22.408C4.0001 20.8347 3.41877 19.3453 2.3401 18.0013C1.0837 16.4326 0.296072 14.5408 0.0679569 12.544C-0.160158 10.5471 0.180526 8.52647 1.05075 6.71481C1.92098 4.90314 3.28535 3.3742 4.98664 2.30414C6.68794 1.23408 8.65693 0.666455 10.6668 0.666657ZM10.6668 3.33332C9.15954 3.33326 7.68296 3.75898 6.40711 4.56145C5.13127 5.36392 4.10808 6.51049 3.4554 7.86907C2.80272 9.22765 2.54712 10.743 2.71803 12.2405C2.88894 13.738 3.47942 15.1567 4.42143 16.3333C5.8801 18.152 6.66677 20.2227 6.66677 22.408V24.6667H13.3334L13.3361 20.6667H18.6668V15.0027L20.7334 14.1173L18.6761 10.884L18.6001 10.2947C18.348 8.36908 17.404 6.60097 15.9443 5.3201C14.4846 4.03923 12.6088 3.33307 10.6668 3.33332ZM10.6668 7.33332C11.0204 7.33332 11.3595 7.4738 11.6096 7.72385C11.8596 7.9739 12.0001 8.31303 12.0001 8.66666V9.99999H13.3334C13.6871 9.99999 14.0262 10.1405 14.2762 10.3905C14.5263 10.6406 14.6668 10.9797 14.6668 11.3333C14.6668 11.6869 14.5263 12.0261 14.2762 12.2761C14.0262 12.5262 13.6871 12.6667 13.3334 12.6667H12.0001V14C12.0001 14.3536 11.8596 14.6927 11.6096 14.9428C11.3595 15.1928 11.0204 15.3333 10.6668 15.3333C10.3131 15.3333 9.97401 15.1928 9.72396 14.9428C9.47391 14.6927 9.33343 14.3536 9.33343 14V12.6653L8.0001 12.6667C7.64648 12.6667 7.30734 12.5262 7.05729 12.2761C6.80724 12.0261 6.66677 11.6869 6.66677 11.3333C6.66677 10.9797 6.80724 10.6406 7.05729 10.3905C7.30734 10.1405 7.64648 9.99999 8.0001 9.99999L9.33343 9.99866V8.66666C9.33343 8.31303 9.47391 7.9739 9.72396 7.72385C9.97401 7.4738 10.3131 7.33332 10.6668 7.33332Z" fill="#686868"/>
</svg>
